<svg width="550" height="657" viewBox="0 0 550 657" fill="none" xmlns="http://www.w3.org/2000/svg">
<path d="M437.702 525.672H125.414C119.909 525.672 115.447 530.134 115.447 535.638C115.447 541.143 119.909 545.605 125.414 545.605H437.702C443.206 545.605 447.669 541.143 447.669 535.638C447.669 530.134 443.206 525.672 437.702 525.672Z" fill="#E4EBF7"/>
<circle cx="275.182" cy="325.777" r="179.07" fill="#E6F7FF"/>
<path fill-rule="evenodd" clip-rule="evenodd" d="M456.569 172.576H236.909V152.852C236.909 148.573 240.371 145.104 244.64 145.104H448.838C453.107 145.104 456.569 148.573 456.569 152.852V172.576Z" fill="#253368"/>
<path fill-rule="evenodd" clip-rule="evenodd" d="M448.838 362.487H244.64C240.371 362.487 236.909 359.018 236.909 354.739V170.265H456.569V354.739C456.569 359.018 453.107 362.487 448.838 362.487Z" fill="#E4EBF7"/>
<path fill-rule="evenodd" clip-rule="evenodd" d="M254.76 157.889C254.76 160.574 252.588 162.751 249.908 162.751C247.228 162.751 245.056 160.574 245.056 157.889C245.056 155.204 247.228 153.027 249.908 153.027C252.588 153.027 254.76 155.204 254.76 157.889Z" fill="#FF7946"/>
<path fill-rule="evenodd" clip-rule="evenodd" d="M272.88 157.889C272.88 160.574 270.708 162.751 268.028 162.751C265.348 162.751 263.176 160.574 263.176 157.889C263.176 155.204 265.348 153.027 268.028 153.027C270.708 153.027 272.88 155.204 272.88 157.889Z" fill="#FAAD14"/>
<path fill-rule="evenodd" clip-rule="evenodd" d="M291 157.889C291 160.574 288.828 162.751 286.148 162.751C283.468 162.751 281.296 160.574 281.296 157.889C281.296 155.204 283.468 153.027 286.148 153.027C288.828 153.027 291 155.204 291 157.889Z" fill="#7CB305"/>
<path fill-rule="evenodd" clip-rule="evenodd" d="M260.65 336.341C259.318 336.341 258.238 335.259 258.238 333.925V193.886C258.238 192.552 259.318 191.47 260.65 191.47H435.228C436.56 191.47 437.64 192.552 437.64 193.886V333.925C437.64 335.259 436.56 336.341 435.228 336.341H260.65Z" fill="white"/>
<path d="M318.869 252.511C319.873 251.651 321.393 251.844 322.154 252.912L322.193 252.97L357.324 305.627L384.498 286.532C384.82 286.306 385.195 286.169 385.586 286.134L385.67 286.128L421.575 284.254C422.812 284.19 423.868 285.14 423.932 286.377C423.996 287.592 423.079 288.632 421.874 288.73L421.809 288.734L386.548 290.574L358.023 310.618C357.011 311.329 355.618 311.085 354.906 310.084L354.868 310.028L319.865 257.563L278.957 292.587C278.033 293.377 276.652 293.286 275.839 292.393L275.794 292.342C275.003 291.418 275.094 290.037 275.988 289.224L276.039 289.179L318.869 252.511Z" fill="#FF7946"/>
<path d="M416.258 220.731C416.948 219.703 418.341 219.428 419.37 220.118C420.38 220.795 420.663 222.151 420.02 223.173L419.984 223.23L388.04 270.863C387.239 272.057 385.542 272.196 384.557 271.164L384.509 271.113L347.997 230.489L322.688 247.565C322.331 247.806 321.912 247.939 321.483 247.948L321.397 247.949L277.461 247.23C276.223 247.21 275.235 246.19 275.255 244.951C275.275 243.734 276.26 242.76 277.47 242.745L277.535 242.745L320.764 243.452L347.106 225.678C348.015 225.066 349.229 225.2 349.982 225.987L350.029 226.038L385.919 265.971L416.258 220.731Z" fill="#FAAD14"/>
<path d="M360.919 251.237C361.479 250.747 362.243 250.568 362.96 250.754L363.034 250.775L386.424 257.713L420.898 252.22C422.1 252.028 423.231 252.83 423.455 254.018L423.466 254.082C423.658 255.284 422.857 256.415 421.668 256.639L421.604 256.65L386.628 262.223C386.327 262.271 386.02 262.257 385.725 262.182L385.637 262.158L362.942 255.427L323.509 289.916C322.782 290.551 321.733 290.649 320.904 290.166L320.842 290.129L273.731 260.652C272.681 259.995 272.362 258.611 273.02 257.561C273.665 256.529 275.01 256.204 276.053 256.814L276.111 256.849L321.809 285.442L360.919 251.237Z" fill="#597EF7"/>
<path fill-rule="evenodd" clip-rule="evenodd" d="M320.47 209.804H276.278C274.468 209.804 272.988 208.32 272.988 206.507C272.988 204.694 274.468 203.211 276.278 203.211H320.47C322.279 203.211 323.76 204.694 323.76 206.507C323.76 208.32 322.279 209.804 320.47 209.804Z" fill="#CCD7EE"/>
<path fill-rule="evenodd" clip-rule="evenodd" d="M294.919 225.35H278.472C276.656 225.35 275.183 223.874 275.183 222.054C275.183 220.233 276.656 218.757 278.472 218.757H294.919C296.736 218.757 298.209 220.233 298.209 222.054C298.209 223.874 296.736 225.35 294.919 225.35Z" fill="#CCD7EE"/>
<path d="M414.082 297.078C406.379 297.078 400.153 303.406 400.153 311.192C400.153 318.978 406.379 325.307 414.082 325.307C421.785 325.307 428.012 318.978 428.012 311.192C428.012 303.407 421.785 297.078 414.082 297.078ZM414.082 302.387C418.833 302.387 422.702 306.32 422.702 311.192C422.702 316.065 418.833 319.997 414.082 319.997C409.331 319.997 405.462 316.065 405.462 311.192C405.462 306.32 409.331 302.387 414.082 302.387Z" fill="#CCD7EE"/>
<path d="M423.346 303.748C424.694 303.171 426.255 303.796 426.831 305.144C427.606 306.955 428.012 308.927 428.012 310.953C428.012 312.612 427.74 314.235 427.215 315.766C426.739 317.153 425.229 317.892 423.842 317.416C422.477 316.948 421.741 315.478 422.17 314.11L422.192 314.043C422.528 313.065 422.702 312.024 422.702 310.953C422.702 309.701 422.464 308.49 422.01 307.378L421.95 307.233C421.373 305.885 421.998 304.325 423.346 303.748Z" fill="#597EF7"/>
<path fill-rule="evenodd" clip-rule="evenodd" d="M175.521 444.371C175.521 449.103 171.685 452.939 166.953 452.939C162.222 452.939 158.385 449.103 158.385 444.371C158.385 439.639 162.222 435.803 166.953 435.803C171.685 435.803 175.521 439.639 175.521 444.371Z" fill="#253368"/>
<path fill-rule="evenodd" clip-rule="evenodd" d="M165.346 521.482H168.662V446.93H165.346V521.482Z" fill="#253368"/>
<path fill-rule="evenodd" clip-rule="evenodd" d="M165.346 521.482L126.719 527.916L124.226 526.115L165.346 514.004V521.482Z" fill="#253368"/>
<path fill-rule="evenodd" clip-rule="evenodd" d="M168.662 521.482L207.29 527.916L209.782 526.115L168.662 514.004V521.482Z" fill="#253368"/>
<path fill-rule="evenodd" clip-rule="evenodd" d="M164.373 530.131H169.635V519.329H164.373V530.131Z" fill="#253368"/>
<path fill-rule="evenodd" clip-rule="evenodd" d="M130.338 530.275C130.338 532.742 128.338 534.741 125.872 534.741C123.405 534.741 121.406 532.742 121.406 530.275C121.406 527.808 123.405 525.809 125.872 525.809C128.338 525.809 130.338 527.808 130.338 530.275Z" fill="#253368"/>
<path fill-rule="evenodd" clip-rule="evenodd" d="M171.47 530.275C171.47 532.742 169.471 534.741 167.004 534.741C164.538 534.741 162.538 532.742 162.538 530.275C162.538 527.808 164.538 525.809 167.004 525.809C169.471 525.809 171.47 527.808 171.47 530.275Z" fill="#253368"/>
<path fill-rule="evenodd" clip-rule="evenodd" d="M212.994 530.275C212.994 532.742 210.994 534.741 208.527 534.741C206.061 534.741 204.062 532.742 204.062 530.275C204.062 527.808 206.061 525.809 208.527 525.809C210.994 525.809 212.994 527.808 212.994 530.275Z" fill="#253368"/>
<path fill-rule="evenodd" clip-rule="evenodd" d="M220.66 442.798H113.248C113.248 432.24 121.806 423.683 132.363 423.683H201.544C212.101 423.683 220.66 432.24 220.66 442.798Z" fill="#A3B5D6"/>
<path fill-rule="evenodd" clip-rule="evenodd" d="M200.969 372.111C200.969 372.111 200.163 385.525 187.904 384.577C175.403 383.612 176.747 370.072 176.747 370.072C176.747 370.072 176.14 361.656 177.011 350.339C177.693 341.495 178.74 329.945 179.715 324.329C180.765 318.267 186.344 314.267 192.086 314.71C200.813 315.384 203.772 322.424 203.58 328.542C203.392 334.491 203.11 344.281 202.757 350.833C202.08 363.433 200.969 372.111 200.969 372.111Z" fill="#ADC6FF"/>
<path fill-rule="evenodd" clip-rule="evenodd" d="M228.337 388.472C229.812 393.987 242.082 392.115 242.082 392.115L248.096 397.017C249.049 397.676 249.457 397.033 249.976 397.151C251.373 397.47 251.707 396.001 251.707 396.001C252.241 395.881 252.933 396.428 253.445 395.146C253.445 395.146 254.44 395.299 254.779 394.126C254.907 393.69 252.986 387.783 251.841 384.327C251.336 382.809 250.025 381.706 248.446 381.468L233.761 379.255C233.761 379.255 226.353 381.052 228.337 388.472Z" fill="#C99382"/>
<path d="M241.18 388.265C241.013 388.193 240.819 388.271 240.747 388.439C240.683 388.588 240.738 388.758 240.869 388.845L240.921 388.873L245.259 390.727L249.589 396.697C249.685 396.828 249.858 396.869 249.999 396.801L250.051 396.77C250.182 396.675 250.222 396.501 250.154 396.36L250.124 396.308L245.74 390.265C245.716 390.232 245.687 390.205 245.654 390.183L245.602 390.155L241.18 388.265Z" fill="#9B6160"/>
<path d="M244.13 386.443C243.971 386.353 243.769 386.41 243.68 386.569C243.6 386.71 243.636 386.885 243.756 386.985L243.805 387.019L247.787 389.265L251.317 395.446C251.397 395.587 251.566 395.646 251.713 395.594L251.767 395.569C251.908 395.489 251.967 395.32 251.915 395.172L251.89 395.118L248.315 388.858C248.295 388.824 248.27 388.793 248.239 388.768L248.191 388.734L244.13 386.443Z" fill="#9B6160"/>
<path d="M246.987 384.759C246.844 384.646 246.636 384.67 246.523 384.813C246.422 384.94 246.43 385.119 246.534 385.236L246.577 385.278L249.258 387.401L252.479 394.034C252.549 394.18 252.714 394.251 252.864 394.208L252.92 394.187C253.066 394.116 253.136 393.952 253.094 393.801L253.073 393.745L249.819 387.044C249.804 387.014 249.786 386.987 249.763 386.963L249.727 386.929L246.987 384.759Z" fill="#9B6160"/>
<path fill-rule="evenodd" clip-rule="evenodd" d="M189.395 362.749C189.395 362.749 177.04 360.147 174.531 370.414C171.945 381.002 183.68 384.047 183.68 384.047C183.68 384.047 191.992 385.987 202.226 388.421C208.472 389.907 215.404 391.41 220.592 391.779C226.21 392.178 227.482 389.301 228.736 384.168C230.225 378.071 230.222 375.401 225.021 373.311C220.062 371.319 213.091 369.525 207.751 367.889C197.571 364.772 189.395 362.749 189.395 362.749Z" fill="#ADC6FF"/>
<path fill-rule="evenodd" clip-rule="evenodd" d="M231.325 390.947L234.225 379.076L226.424 376.259L223.105 389.84L231.325 390.947Z" fill="#ADC6FF"/>
<path fill-rule="evenodd" clip-rule="evenodd" d="M239.872 412.668C215.333 406.285 189.903 399.938 169.557 395.352C169.557 395.352 154.203 394.513 153.391 408.545C152.596 422.299 169.183 426.384 169.183 426.384L235.817 436.754C235.817 436.754 246.688 438.323 248.505 426.246C250.16 415.23 239.872 412.668 239.872 412.668Z" fill="#597EF7"/>
<path fill-rule="evenodd" clip-rule="evenodd" d="M235.548 477.675C231.192 476.8 227.159 480.218 227.314 484.665C227.491 489.78 227.695 496.692 227.814 504.137C227.937 511.8 228.054 518.15 228.601 518.956C231.014 522.51 235.836 523.832 240.79 527.352C244.711 530.138 245.388 531.462 250.385 532.399C257.468 533.727 254.166 530.719 246.302 521.203C239.295 512.726 239.766 508.75 239.766 508.75L241.07 484.809C241.256 481.388 238.903 478.349 235.548 477.675Z" fill="#C99382"/>
<path fill-rule="evenodd" clip-rule="evenodd" d="M245.59 518.953C250.708 524.648 256.572 529.149 256.43 531.853C256.287 534.558 254.158 537 245.347 533.87C239.318 531.727 241.044 530.432 235.289 526.683C232.414 524.81 231.367 525.012 228.717 522.833C227.198 520.877 227.882 511.379 227.882 511.379L237.967 522.445C237.967 522.445 235.345 517.291 237.5 516.174C239.655 515.056 241.638 514.296 242.909 515.213C244.18 516.129 245.59 518.953 245.59 518.953Z" fill="#7D4556"/>
<path fill-rule="evenodd" clip-rule="evenodd" d="M250.583 426.434C247.275 466.638 243.511 505.975 243.511 505.975L226.512 505.964L223.856 424.987C223.856 424.987 225.347 415.695 238.477 414.004C250.554 412.448 250.583 426.434 250.583 426.434Z" fill="#597EF7"/>
<path fill-rule="evenodd" clip-rule="evenodd" d="M128.664 413.53C130.195 397.313 130.6 388.976 132.416 385.93C171.451 387.047 181.175 386.533 181.175 386.533C181.175 386.533 181.573 392.269 183.371 409.927C183.371 409.927 171.353 431.854 155.845 431.854C141.863 431.854 128.664 413.53 128.664 413.53Z" fill="#597EF7"/>
<path fill-rule="evenodd" clip-rule="evenodd" d="M132.416 385.93L133.154 378.575L180.952 379.149L181.175 386.515C181.175 386.515 155.878 387.491 132.416 385.93Z" fill="#597EF7"/>
<path fill-rule="evenodd" clip-rule="evenodd" d="M153.904 288.567C153.904 288.567 147.265 284.493 149.924 277.256C147.232 270.787 151.016 267.068 151.016 267.068C151.016 267.068 151.564 258.783 157.074 258.592C160.955 250.262 170.445 254.082 170.445 254.082C170.445 254.082 176.875 249.342 185.365 256.707C191.817 257.264 192.003 254.053 193.967 256.392C195.932 258.73 196.598 264.009 193.724 265.929C198.4 268.231 193.663 275.616 193.663 275.616C193.663 275.616 195.005 280.097 189.328 283.131C183.649 286.165 181.026 296.524 171.7 299.355C162.726 302.079 153.523 298.783 153.904 288.567Z" fill="#7D4556"/>
<path fill-rule="evenodd" clip-rule="evenodd" d="M156.612 304.295L159.31 290.118L178.11 293.453L177.647 305.961C177.441 311.545 172.677 315.86 167.107 315.507C167.001 315.5 166.895 315.493 166.788 315.486C161.092 315.127 155.918 309.967 156.612 304.295Z" fill="#C99382"/>
<path fill-rule="evenodd" clip-rule="evenodd" d="M164.376 268.473C164.376 268.473 165.394 273.561 161.465 274.722C162.024 281.27 159.206 280.651 159.206 280.651C159.206 280.651 154.778 274.777 151.583 279.783C148.547 284.539 153.54 291.709 158.298 290.697C165.975 303.486 181.751 304.391 187.119 296.189C190.381 291.205 189.349 283.858 189.811 280.423C190.946 271.98 189.431 269.391 189.431 269.391C189.431 269.391 186.188 270.024 182.703 267.309C178.86 270.056 173.476 267.178 173.476 267.178C173.476 267.178 169.751 271.772 164.376 268.473Z" fill="#C99382"/>
<path d="M155.601 280.827C154.516 280.595 153.767 280.865 153.356 281.475C153.172 281.748 153.095 282.019 153.078 282.217C153.061 282.415 153.207 282.59 153.405 282.607C153.603 282.624 153.777 282.477 153.794 282.279C153.802 282.192 153.847 282.034 153.952 281.878C154.193 281.52 154.642 281.358 155.451 281.531C156.214 281.694 156.846 282.284 157.211 283.072C157.364 283.401 157.452 283.734 157.462 283.998C157.469 284.19 157.436 284.288 157.429 284.292C156.688 284.699 156.108 285.287 155.916 285.936C155.669 286.769 156.068 287.583 157.117 288.26C157.284 288.368 157.507 288.32 157.614 288.153C157.722 287.986 157.674 287.763 157.507 287.656C156.705 287.138 156.459 286.635 156.605 286.141C156.735 285.703 157.184 285.248 157.774 284.924C158.968 284.269 157.566 281.247 155.601 280.827Z" fill="#9B6160"/>
<path d="M156.661 283.473C156.329 283.433 155.985 283.42 155.657 283.453C154.766 283.543 154.166 283.958 154.17 284.791C154.171 284.99 154.332 285.15 154.531 285.149C154.73 285.148 154.89 284.987 154.889 284.788C154.887 284.416 155.161 284.227 155.729 284.17C155.997 284.143 156.29 284.153 156.574 284.188L156.705 284.205C156.741 284.211 156.769 284.216 156.788 284.219C156.983 284.257 157.171 284.129 157.209 283.934C157.247 283.739 157.12 283.55 156.925 283.512L156.79 283.49C156.751 283.485 156.708 283.479 156.661 283.473Z" fill="#9B6160"/>
<path fill-rule="evenodd" clip-rule="evenodd" d="M176.842 280.329C176.543 283.785 173.505 286.344 170.053 286.047C166.601 285.748 164.045 282.704 164.343 279.249C164.641 275.793 167.681 273.233 171.132 273.531C174.584 273.83 177.14 276.874 176.842 280.329Z" fill="white"/>
<path d="M171.17 273.09C174.865 273.41 177.602 276.668 177.283 280.367C176.962 284.067 173.71 286.806 170.015 286.488C166.32 286.168 163.584 282.91 163.903 279.21C164.216 275.572 167.37 272.861 170.989 273.077L171.17 273.09ZM164.784 279.286C164.507 282.499 166.883 285.328 170.091 285.606C173.299 285.882 176.124 283.504 176.402 280.291C176.679 277.079 174.303 274.25 171.094 273.972C167.886 273.695 165.06 276.074 164.784 279.286Z" fill="#7D4556"/>
<path fill-rule="evenodd" clip-rule="evenodd" d="M192.05 281.055C191.75 284.51 188.712 287.069 185.26 286.772C181.809 286.473 179.252 283.429 179.551 279.974C179.848 276.518 182.888 273.958 186.34 274.256C189.792 274.555 192.348 277.599 192.05 281.055Z" fill="white"/>
<path d="M186.377 273.815C190.073 274.135 192.809 277.393 192.49 281.093C192.17 284.792 188.917 287.531 185.222 287.213C181.527 286.893 178.79 283.635 179.111 279.935C179.423 276.297 182.577 273.586 186.196 273.802L186.377 273.815ZM179.991 280.012C179.713 283.224 182.09 286.053 185.298 286.331C188.507 286.608 191.331 284.229 191.609 281.016C191.886 277.804 189.51 274.975 186.301 274.697C183.093 274.42 180.267 276.8 179.991 280.012Z" fill="#7D4556"/>
<path d="M178.385 279.303C178.212 279.401 178.151 279.621 178.249 279.794L178.34 279.958C178.413 280.093 178.495 280.246 178.584 280.416C178.836 280.901 179.088 281.417 179.323 281.942C179.535 282.416 179.722 282.875 179.879 283.309C180.407 284.772 180.529 285.83 180.197 286.212C179.826 286.641 179.34 286.894 178.758 286.999C178.166 287.106 177.518 287.053 176.889 286.899C176.652 286.841 176.476 286.784 176.384 286.748C176.199 286.675 175.991 286.767 175.919 286.952C175.846 287.137 175.938 287.346 176.123 287.418L176.246 287.463C176.365 287.503 176.525 287.551 176.718 287.598C177.437 287.775 178.18 287.835 178.886 287.708C179.621 287.575 180.254 287.245 180.74 286.684C181.317 286.019 181.174 284.778 180.555 283.064C180.392 282.612 180.198 282.137 179.979 281.648C179.738 281.109 179.48 280.58 179.221 280.083L179.049 279.758L178.875 279.439C178.777 279.266 178.557 279.205 178.385 279.303Z" fill="#9B6160"/>
<path fill-rule="evenodd" clip-rule="evenodd" d="M171.758 289.028C171.758 289.028 177.484 290.189 181.671 289.885C181.671 289.885 180.158 293.921 176.07 293.067C172.44 292.309 171.758 289.028 171.758 289.028Z" fill="white"/>
<path d="M171.833 288.657L172.585 288.797C173.182 288.903 173.84 289.009 174.54 289.107C176.037 289.318 177.513 289.468 178.89 289.528C179.896 289.573 180.82 289.568 181.644 289.508C181.919 289.488 182.122 289.76 182.025 290.018L181.976 290.138C181.927 290.253 181.855 290.403 181.759 290.581C181.538 290.991 181.263 291.4 180.93 291.784C179.714 293.183 178.07 293.871 175.993 293.437C174.498 293.125 173.355 292.39 172.527 291.363C172.133 290.873 171.837 290.35 171.623 289.826C171.494 289.508 171.42 289.257 171.389 289.105C171.333 288.839 171.568 288.603 171.833 288.657ZM172.453 289.542L172.314 289.516L172.323 289.54C172.51 290 172.77 290.459 173.115 290.888C173.837 291.783 174.829 292.422 176.147 292.697C177.934 293.07 179.312 292.493 180.36 291.287L180.53 291.081C180.695 290.873 180.842 290.657 180.971 290.439L181.052 290.297L181.039 290.298C180.362 290.324 179.632 290.318 178.857 290.284C177.453 290.222 175.954 290.071 174.435 289.856C173.726 289.756 173.059 289.649 172.453 289.542Z" fill="#7D4556"/>
<path d="M181.921 272.19C181.74 272.085 181.509 272.147 181.405 272.328C181.3 272.508 181.361 272.74 181.542 272.845C183.481 273.971 185.956 274.427 188.549 273.948C188.754 273.91 188.89 273.713 188.852 273.508C188.814 273.302 188.617 273.166 188.412 273.204C185.999 273.65 183.706 273.228 181.921 272.19Z" fill="#7D4556"/>
<path d="M178.753 277.946C178.042 277.853 177.292 277.854 176.586 277.911L176.314 277.936L176.196 277.95L176.313 278.827L176.564 278.801C176.593 278.798 176.624 278.795 176.657 278.793C177.306 278.741 177.998 278.74 178.639 278.823C179.023 278.873 179.366 278.952 179.656 279.06L179.797 279.116L180.147 278.304C179.746 278.13 179.277 278.014 178.753 277.946Z" fill="#7D4556"/>
<path d="M185.927 279.013C184.851 278.92 184.064 279.388 183.564 280.199C183.301 280.627 183.168 281.048 183.119 281.347C183.079 281.588 183.243 281.816 183.484 281.855C183.724 281.895 183.952 281.732 183.991 281.49L184.006 281.419C184.017 281.373 184.033 281.314 184.055 281.243C184.118 281.044 184.204 280.846 184.316 280.664C184.652 280.12 185.134 279.833 185.851 279.895C186.505 279.951 186.882 280.283 187.084 280.843C187.192 281.142 187.234 281.462 187.235 281.739L187.23 281.903C187.209 282.146 187.389 282.361 187.633 282.382C187.856 282.401 188.054 282.251 188.102 282.039L188.113 281.959C188.113 281.951 188.114 281.939 188.115 281.915C188.134 281.505 188.087 281.019 187.915 280.542C187.603 279.677 186.95 279.101 185.927 279.013Z" fill="#7D4556"/>
<path d="M170.893 277.713C169.817 277.619 169.03 278.088 168.53 278.899C168.266 279.326 168.133 279.748 168.084 280.047C168.044 280.288 168.207 280.516 168.448 280.555C168.667 280.591 168.875 280.459 168.941 280.254L168.984 280.069C168.993 280.032 169.005 279.99 169.02 279.943C169.083 279.744 169.169 279.546 169.282 279.364C169.617 278.819 170.1 278.532 170.817 278.594C171.47 278.651 171.847 278.983 172.049 279.543C172.158 279.843 172.2 280.163 172.201 280.439L172.196 280.603C172.175 280.846 172.356 281.061 172.599 281.082C172.822 281.101 173.02 280.951 173.068 280.738L173.079 280.643L173.081 280.615C173.1 280.205 173.053 279.719 172.88 279.242C172.568 278.377 171.915 277.801 170.893 277.713Z" fill="#7D4556"/>
<path d="M164.343 279.249L158.167 278.714" stroke="#7D4556" stroke-width="1.14866"/>
<path d="M175.174 271.575C175.096 271.381 174.875 271.287 174.682 271.366C173.99 271.645 173.17 271.842 172.249 271.963C170.852 272.147 169.355 272.147 167.953 272.037L167.663 272.012L167.213 271.964C167.006 271.937 166.817 272.083 166.79 272.29C166.763 272.497 166.908 272.687 167.115 272.714L167.326 272.739L167.593 272.765C167.687 272.774 167.788 272.783 167.893 272.791C169.344 272.905 170.891 272.905 172.347 272.713C173.327 272.584 174.208 272.373 174.965 272.067C175.158 271.989 175.252 271.769 175.174 271.575Z" fill="#7D4556"/>
<path d="M175.76 296.971C175.562 296.961 175.394 297.115 175.385 297.314L175.373 297.501C175.365 297.603 175.354 297.73 175.338 297.876C175.293 298.301 175.227 298.726 175.137 299.119C174.949 299.938 174.68 300.498 174.383 300.661C174.208 300.757 174.145 300.975 174.24 301.15C174.335 301.324 174.554 301.388 174.728 301.293C175.266 300.998 175.606 300.289 175.838 299.28C175.935 298.856 176.005 298.404 176.053 297.953L176.082 297.653L176.103 297.347C176.112 297.148 175.959 296.98 175.76 296.971Z" fill="#9B6160"/>
<path d="M177.014 298.205C176.815 298.203 176.653 298.362 176.651 298.561L176.643 298.852C176.64 298.915 176.636 298.985 176.632 299.061C176.611 299.438 176.575 299.814 176.522 300.163C176.469 300.509 176.402 300.807 176.322 301.042C176.257 301.23 176.357 301.435 176.545 301.5C176.732 301.564 176.937 301.464 177.002 301.276C177.098 300.995 177.174 300.656 177.233 300.272C177.289 299.898 177.327 299.499 177.35 299.102L177.365 298.786C177.368 298.696 177.37 298.622 177.37 298.568C177.372 298.369 177.213 298.207 177.014 298.205Z" fill="#9B6160"/>
<path d="M174.099 298.46C173.91 298.401 173.709 298.508 173.65 298.698L173.62 298.791C173.601 298.848 173.576 298.92 173.546 299.004C173.461 299.237 173.365 299.469 173.26 299.684C173.067 300.082 172.867 300.367 172.709 300.476L172.663 300.504C172.485 300.591 172.411 300.807 172.498 300.985C172.585 301.164 172.8 301.238 172.978 301.151C173.333 300.977 173.628 300.574 173.907 299.998C174.023 299.759 174.128 299.505 174.221 299.252L174.303 299.016C174.318 298.973 174.329 298.937 174.338 298.909C174.396 298.719 174.289 298.518 174.099 298.46Z" fill="#9B6160"/>
<path d="M178.106 297.933C177.929 297.959 177.801 298.109 177.798 298.283L177.802 298.341L178.115 300.493C178.144 300.69 178.326 300.826 178.523 300.797C178.7 300.772 178.828 300.621 178.831 300.448L178.827 300.389L178.513 298.237C178.488 298.06 178.337 297.932 178.164 297.929L178.106 297.933Z" fill="#9B6160"/>
<path d="M165.765 297.773C165.599 297.664 165.376 297.711 165.267 297.877C165.159 298.043 165.205 298.267 165.371 298.376C165.93 298.743 166.507 299.076 167.1 299.378C170.71 301.214 174.479 301.735 177.717 301.513L178.019 301.49C178.294 301.467 178.489 301.444 178.595 301.428C178.791 301.399 178.926 301.215 178.897 301.018C178.867 300.822 178.684 300.687 178.488 300.716L178.323 300.738C178.253 300.746 178.166 300.755 178.065 300.764L177.959 300.773C174.777 301.039 171.012 300.56 167.426 298.736C166.856 298.446 166.302 298.126 165.765 297.773Z" fill="#9B6160"/>
<path d="M173.143 286.516C173.087 286.325 172.887 286.216 172.697 286.272L172.531 286.325C172.403 286.367 172.261 286.417 172.108 286.474C171.671 286.638 171.234 286.83 170.824 287.049C169.451 287.783 168.663 288.653 168.855 289.705C168.89 289.9 169.077 290.03 169.273 289.995C169.468 289.959 169.597 289.772 169.562 289.576C169.446 288.94 170.041 288.284 171.162 287.684C171.542 287.481 171.951 287.302 172.36 287.148L172.556 287.077C172.707 287.023 172.825 286.985 172.9 286.963C173.091 286.907 173.2 286.707 173.143 286.516Z" fill="#9B6160"/>
<path fill-rule="evenodd" clip-rule="evenodd" d="M155.63 304.966L153.622 308.698C153.622 308.698 139.693 310.371 132.892 314.473C126.742 318.182 127.517 357.338 128.463 370.516C125.15 385.988 137.513 384.74 137.513 384.74L181.634 388.384C181.634 388.384 188.092 384.712 184.881 373.809C185.705 364.943 200.082 322.423 194.528 316.862C190.21 312.537 179.785 311.692 179.785 311.692L179.086 307.357C179.086 307.357 172.394 306.592 155.63 304.966Z" fill="#ADC6FF"/>
<path d="M192.404 333.793C192.202 333.773 192.023 333.921 192.003 334.123C191.624 338.029 190.883 342.692 189.841 347.952C189.254 350.915 188.58 354.021 187.836 357.226C186.959 361.008 186.024 364.755 185.084 368.33L184.531 370.413C184.373 370.999 184.222 371.558 184.076 372.09L183.698 373.462L183.378 374.599C183.321 374.794 183.434 374.998 183.629 375.054C183.825 375.11 184.028 374.998 184.084 374.802L184.469 373.434L184.786 372.284C185.004 371.486 185.237 370.624 185.481 369.705C186.528 365.769 187.575 361.603 188.553 357.393C189.298 354.181 189.974 351.067 190.562 348.095L190.799 346.887C191.721 342.097 192.382 337.825 192.735 334.195C192.754 333.992 192.607 333.812 192.404 333.793Z" fill="#597EF7"/>
<path d="M157.055 310.758C156.858 310.706 156.657 310.824 156.605 311.02C156.554 311.217 156.671 311.418 156.867 311.47C163.755 313.287 170.517 313.752 176.21 313.443L176.682 313.416C176.973 313.398 177.237 313.379 177.471 313.359L177.937 313.316C177.954 313.314 177.968 313.313 177.98 313.312C178.181 313.289 178.327 313.106 178.304 312.904C178.281 312.702 178.099 312.557 177.897 312.58L177.576 312.611L177.044 312.654C176.916 312.663 176.78 312.672 176.637 312.681C170.919 313.037 164.048 312.603 157.055 310.758Z" fill="#597EF7"/>
<path fill-rule="evenodd" clip-rule="evenodd" d="M200.767 485.535C196.033 484.752 191.806 488.59 192.134 493.383C192.513 498.898 192.987 506.351 193.387 514.384C193.801 522.65 194.159 529.5 194.78 530.351C197.514 534.098 202.768 535.348 208.245 538.966C212.579 541.83 213.358 543.234 218.786 544.062C226.481 545.235 222.806 542.11 213.969 532.127C206.096 523.233 206.458 518.924 206.458 518.924L206.989 493.034C207.063 489.333 204.414 486.139 200.767 485.535Z" fill="#C99382"/>
<path fill-rule="evenodd" clip-rule="evenodd" d="M213.119 529.723C218.852 535.683 225.347 540.326 225.291 543.251C225.237 546.175 223.028 548.889 213.403 545.834C206.816 543.742 208.631 542.281 202.282 538.445C199.112 536.529 197.988 536.785 195.048 534.531C193.337 532.476 193.726 522.198 193.726 522.198L205.018 533.772C205.018 533.772 201.998 528.306 204.284 527.021C206.569 525.736 208.683 524.842 210.088 525.784C211.493 526.725 213.119 529.723 213.119 529.723Z" fill="#7D4556"/>
<path fill-rule="evenodd" clip-rule="evenodd" d="M214.634 429.105C212.572 472.625 209.983 515.226 209.983 515.226L191.634 515.854L185.732 428.547C185.732 428.547 186.817 415.501 201.102 416.143C213.991 416.722 214.634 429.105 214.634 429.105Z" fill="#597EF7"/>
<path fill-rule="evenodd" clip-rule="evenodd" d="M206.933 414.852C187.094 407.487 161.76 402.131 143.407 398.395C143.407 398.395 129.639 400.234 128.708 413.782C127.796 427.061 142.755 430.44 142.755 430.44L202.926 438.197C202.926 438.197 212.745 439.343 214.557 427.645C216.211 416.976 206.933 414.852 206.933 414.852Z" fill="#597EF7"/>
<path d="M131.904 387.944C131.705 387.944 131.544 388.106 131.544 388.304C131.544 388.483 131.674 388.632 131.845 388.66L131.904 388.664H180.852C181.051 388.664 181.212 388.503 181.212 388.304C181.212 388.125 181.081 387.977 180.91 387.949L180.852 387.944H131.904Z" fill="#253368"/>
<path d="M132.444 393.53C132.246 393.53 132.085 393.691 132.085 393.89C132.085 394.069 132.215 394.217 132.386 394.245L132.444 394.25H181.572C181.771 394.25 181.932 394.089 181.932 393.89C181.932 393.711 181.801 393.563 181.63 393.535L181.572 393.53H132.444Z" fill="#253368"/>
<path d="M166.168 387.855C165.989 387.863 165.847 388.001 165.828 388.173L165.826 388.232L166.096 393.908C166.106 394.106 166.274 394.259 166.472 394.25C166.651 394.241 166.793 394.104 166.813 393.932L166.814 393.873L166.544 388.197C166.535 387.999 166.366 387.845 166.168 387.855Z" fill="#253368"/>
<path fill-rule="evenodd" clip-rule="evenodd" d="M209.739 414.674L154.434 402.664L210.685 389.042L255.975 403.571L209.739 414.674Z" fill="#CCD7EE"/>
<path fill-rule="evenodd" clip-rule="evenodd" d="M212.062 410.898L171.896 402.176L211.799 392.152L245.643 402.834L212.062 410.898Z" fill="#4E5C93"/>
<path fill-rule="evenodd" clip-rule="evenodd" d="M154.304 405.55L154.421 402.683L210.89 414.48L209.753 417.484L154.304 405.55Z" fill="#253368"/>
<path d="M219.092 394.982L186.535 404.881C186.408 404.92 186.337 405.054 186.375 405.181C186.409 405.292 186.515 405.36 186.626 405.35L186.674 405.341L219.232 395.441C219.358 395.402 219.43 395.268 219.391 395.142C219.358 395.031 219.251 394.962 219.14 394.972L219.092 394.982Z" fill="#CCD7EE"/>
<path d="M214.961 393.04L178.594 403.435C178.466 403.471 178.393 403.604 178.429 403.731C178.461 403.843 178.566 403.913 178.678 403.905L178.725 403.896L215.093 393.501C215.22 393.465 215.294 393.332 215.258 393.205C215.226 393.093 215.12 393.023 215.009 393.031L214.961 393.04Z" fill="#CCD7EE"/>
<path d="M219.407 397.916L192.042 406.654C191.916 406.695 191.846 406.83 191.887 406.956C191.922 407.067 192.029 407.134 192.14 407.122L192.188 407.112L219.553 398.374C219.679 398.333 219.749 398.198 219.709 398.072C219.673 397.962 219.566 397.894 219.455 397.906L219.407 397.916Z" fill="#CCD7EE"/>
<path d="M226.705 399.066L199.339 407.804C199.213 407.844 199.143 407.979 199.184 408.105C199.219 408.216 199.327 408.283 199.437 408.271L199.485 408.261L226.85 399.523C226.976 399.483 227.046 399.348 227.006 399.221C226.971 399.111 226.863 399.044 226.752 399.056L226.705 399.066Z" fill="#CCD7EE"/>
<path d="M233.416 400.605L206.051 409.343C205.925 409.383 205.855 409.518 205.896 409.645C205.931 409.755 206.038 409.822 206.149 409.81L206.197 409.8L233.562 401.062C233.688 401.022 233.758 400.887 233.718 400.761C233.682 400.65 233.575 400.583 233.464 400.595L233.416 400.605Z" fill="#CCD7EE"/>
<path d="M178.624 400.793C178.494 400.769 178.369 400.856 178.346 400.986C178.325 401.1 178.389 401.21 178.492 401.252L178.539 401.265L212.979 407.516C213.11 407.54 213.234 407.453 213.258 407.323C213.279 407.209 213.215 407.099 213.112 407.057L213.065 407.044L178.624 400.793Z" fill="#CCD7EE"/>
<path d="M186.471 398.513C186.341 398.489 186.216 398.576 186.193 398.706C186.172 398.82 186.235 398.93 186.339 398.972L186.386 398.985L220.827 405.236C220.957 405.26 221.082 405.173 221.106 405.043C221.126 404.929 221.063 404.819 220.959 404.777L220.913 404.764L186.471 398.513Z" fill="#CCD7EE"/>
<path d="M196.111 397.242C195.98 397.218 195.856 397.305 195.832 397.435C195.811 397.549 195.875 397.659 195.978 397.701L196.025 397.714L230.466 403.965C230.596 403.989 230.721 403.902 230.744 403.772C230.765 403.658 230.701 403.548 230.598 403.506L230.551 403.493L196.111 397.242Z" fill="#CCD7EE"/>
<path d="M202.832 392.802C202.701 392.778 202.577 392.865 202.553 392.995C202.532 393.109 202.596 393.219 202.7 393.261L202.746 393.274L237.188 399.525C237.318 399.549 237.443 399.462 237.466 399.332C237.487 399.218 237.423 399.108 237.32 399.066L237.273 399.053L202.832 392.802Z" fill="#CCD7EE"/>
<path fill-rule="evenodd" clip-rule="evenodd" d="M209.798 417.489L212.293 417.849L256.085 406.754L277.594 334.911L230.726 341.546L209.798 417.489Z" fill="#253368"/>
<path fill-rule="evenodd" clip-rule="evenodd" d="M212.382 417.858L258.562 406.179C258.984 406.073 259.319 405.752 259.445 405.334L280.193 336.296C280.455 335.429 279.728 334.583 278.833 334.711L234.372 341.067C233.886 341.137 233.485 341.49 233.353 341.965L212.382 417.858Z" fill="#4E5C93"/>
<path fill-rule="evenodd" clip-rule="evenodd" d="M145.489 370.908C145.489 370.908 143.979 384.261 131.786 382.669C119.353 381.046 121.409 367.594 121.409 367.594C121.409 367.594 121.244 359.16 122.71 347.904C123.855 339.108 125.508 327.63 126.776 322.071C128.145 316.073 133.926 312.374 139.638 313.119C148.316 314.252 150.902 321.438 150.387 327.538C149.887 333.469 149.09 343.23 148.394 349.755C147.055 362.301 145.489 370.908 145.489 370.908Z" fill="#ADC6FF"/>
<path fill-rule="evenodd" clip-rule="evenodd" d="M180.757 388.067C182.362 394.071 195.716 392.033 195.716 392.033L202.261 397.368C203.298 398.085 203.744 397.386 204.307 397.514C205.828 397.861 206.191 396.262 206.191 396.262C206.773 396.132 207.526 396.727 208.083 395.332C208.083 395.332 209.165 395.498 209.535 394.221C209.672 393.746 207.583 387.318 206.336 383.557C205.788 381.905 204.361 380.705 202.642 380.445L186.66 378.036C186.66 378.036 178.597 379.99 180.757 388.067Z" fill="#C99382"/>
<path d="M194.735 387.841C194.552 387.763 194.341 387.848 194.263 388.031C194.193 388.195 194.254 388.383 194.4 388.476L194.452 388.503L199.173 390.522L203.886 397.019C203.989 397.162 204.179 397.206 204.332 397.132L204.388 397.099C204.531 396.995 204.575 396.806 204.501 396.652L204.467 396.596L199.695 390.019C199.67 389.984 199.638 389.954 199.602 389.93L199.545 389.899L194.735 387.841Z" fill="#9B6160"/>
<path d="M197.945 385.86C197.772 385.763 197.552 385.824 197.455 385.997C197.368 386.151 197.407 386.342 197.538 386.451L197.592 386.488L201.925 388.932L205.766 395.658C205.854 395.812 206.037 395.876 206.198 395.819L206.257 395.792C206.41 395.704 206.474 395.521 206.417 395.36L206.39 395.301L202.5 388.488C202.478 388.451 202.45 388.417 202.417 388.39L202.364 388.353L197.945 385.86Z" fill="#9B6160"/>
<path d="M201.053 384.027C200.898 383.903 200.671 383.93 200.548 384.086C200.439 384.224 200.448 384.419 200.56 384.547L200.607 384.591L203.526 386.901L207.031 394.121C207.109 394.282 207.291 394.359 207.457 394.309L207.511 394.288C207.672 394.209 207.748 394.027 207.699 393.861L207.678 393.807L204.136 386.513C204.12 386.481 204.1 386.451 204.075 386.425L204.036 386.388L201.053 384.027Z" fill="#9B6160"/>
<path fill-rule="evenodd" clip-rule="evenodd" d="M138.374 360.072C138.374 360.072 124.929 357.241 122.198 368.414C119.381 379.937 132.155 383.252 132.155 383.252C132.155 383.252 141.2 385.363 152.337 388.012C159.137 389.629 166.681 391.265 172.328 391.666C178.442 392.101 179.825 388.97 181.19 383.383C182.812 376.749 182.808 373.841 177.147 371.568C171.751 369.399 164.163 367.447 158.353 365.667C147.273 362.274 138.374 360.072 138.374 360.072Z" fill="#ADC6FF"/>
<path fill-rule="evenodd" clip-rule="evenodd" d="M184.007 390.762L187.165 377.842L178.674 374.776L175.061 389.556L184.007 390.762Z" fill="#ADC6FF"/>
<path d="M150.299 334.875C150.097 334.853 149.916 334.999 149.894 335.201L149.786 336.135C149.539 338.155 149.055 341.553 148.358 346.224L145.931 362.264C145.905 362.448 146.019 362.622 146.198 362.671C149.494 363.582 152.863 364.552 156.252 365.577L158.569 366.279L166.243 368.524L167.493 368.894C171.351 370.046 174.122 370.965 176.471 371.909C179.232 373.018 180.574 374.257 181.026 376.039C181.051 376.138 181.115 376.221 181.202 376.27L181.257 376.295L186.19 378.075L183.19 390.352L177.832 389.631C177.741 389.618 177.65 389.641 177.575 389.692L177.523 389.735C176.283 390.977 174.512 391.492 171.814 391.3C167.056 390.961 160.943 389.798 152.388 387.774L145.285 386.089L131.699 382.894C131.501 382.847 131.304 382.971 131.258 383.169C131.211 383.367 131.334 383.564 131.532 383.611L137.446 384.997C140.352 385.68 143.363 386.39 146.425 387.115L152.723 388.61C161.051 390.569 167.047 391.699 171.762 392.034C174.475 392.227 176.385 391.733 177.772 390.51L177.911 390.384L183.419 391.126C183.585 391.149 183.742 391.057 183.806 390.908L183.825 390.849L186.982 377.929C187.022 377.767 186.947 377.601 186.806 377.521L186.75 377.496L181.686 375.667L181.643 375.524C181.065 373.714 179.627 372.426 176.988 371.325L176.745 371.225L176.246 371.028C174.143 370.206 171.696 369.393 168.469 368.418L165.664 367.589C164.061 367.124 160.426 366.065 158.609 365.523L157.921 365.315C154.52 364.273 151.134 363.285 147.813 362.356L146.706 362.048L149.033 346.683C149.884 340.991 150.427 337.134 150.625 335.28C150.647 335.078 150.501 334.896 150.299 334.875Z" fill="#597EF7"/>
<path fill-rule="evenodd" clip-rule="evenodd" d="M326.687 415.729C343.387 407.876 353.34 428.471 344.941 439.939C334.692 453.932 329.442 470.034 326.519 474.885C324.053 478.977 317.297 488.954 309.162 484.356C301.675 480.124 305.756 463.513 305.756 463.513C305.756 463.513 306.086 425.417 326.687 415.729Z" fill="#5B8C00"/>
<path fill-rule="evenodd" clip-rule="evenodd" d="M276.458 481.158C270.781 473.543 268.708 462.615 275.045 459.813C281.12 457.126 291.184 463.741 295.846 476.472C300.507 489.203 303.197 498.357 298.637 499.948C291.156 502.559 283.957 491.216 276.458 481.158Z" fill="#5B8C00"/>
<path fill-rule="evenodd" clip-rule="evenodd" d="M336.144 481.736C329.723 489.217 320.456 504.267 314.651 498.996C311.133 495.802 315.836 480.674 328.711 472.443C339.662 465.442 342.565 474.255 336.144 481.736Z" fill="#7CB305"/>
<path fill-rule="evenodd" clip-rule="evenodd" d="M274.698 429.82C277.14 428.187 280.212 427.814 283.015 428.706C286.927 429.952 292.863 433.661 298.738 444.306C306.408 458.205 310.402 473.442 309.612 483.094C309.096 489.406 301.275 492.127 296.899 487.525C294.89 485.411 292.763 482.153 290.683 477.21C282.311 457.32 274.484 444.856 273.55 443.604C271.06 440.265 269.279 433.445 274.698 429.82Z" fill="#7CB305"/>
<path fill-rule="evenodd" clip-rule="evenodd" d="M280.313 437.754C280.396 438.736 279.663 439.599 278.675 439.681C277.687 439.764 276.819 439.034 276.736 438.052C276.653 437.07 277.387 436.207 278.375 436.125C279.363 436.042 280.23 436.772 280.313 437.754Z" fill="white"/>
<path fill-rule="evenodd" clip-rule="evenodd" d="M295.559 445.372C295.642 446.354 294.908 447.217 293.92 447.3C292.932 447.382 292.064 446.653 291.981 445.671C291.899 444.689 292.632 443.826 293.62 443.743C294.608 443.661 295.476 444.39 295.559 445.372Z" fill="white"/>
<path fill-rule="evenodd" clip-rule="evenodd" d="M293.003 465.657C293.098 466.782 292.258 467.77 291.127 467.865C289.996 467.959 289.002 467.124 288.907 465.999C288.812 464.874 289.652 463.886 290.783 463.792C291.915 463.697 292.908 464.533 293.003 465.657Z" fill="white"/>
<path fill-rule="evenodd" clip-rule="evenodd" d="M339.829 435.342C339.829 436.939 338.528 438.232 336.923 438.232C335.317 438.232 334.016 436.939 334.016 435.342C334.016 433.746 335.317 432.452 336.923 432.452C338.528 432.452 339.829 433.746 339.829 435.342Z" fill="white"/>
<path fill-rule="evenodd" clip-rule="evenodd" d="M316.428 444.167C316.428 445.763 315.127 447.057 313.522 447.057C311.916 447.057 310.615 445.763 310.615 444.167C310.615 442.571 311.916 441.278 313.522 441.278C315.127 441.278 316.428 442.571 316.428 444.167Z" fill="white"/>
<path fill-rule="evenodd" clip-rule="evenodd" d="M324.007 463.785C324.007 464.452 323.463 464.993 322.792 464.993C322.121 464.993 321.577 464.452 321.577 463.785C321.577 463.117 322.121 462.577 322.792 462.577C323.463 462.577 324.007 463.117 324.007 463.785Z" fill="white"/>
<path fill-rule="evenodd" clip-rule="evenodd" d="M332.76 479.232C332.76 480.218 331.957 481.017 330.966 481.017C329.974 481.017 329.171 480.218 329.171 479.232C329.171 478.247 329.974 477.448 330.966 477.448C331.957 477.448 332.76 478.247 332.76 479.232Z" fill="white"/>
<path d="M290.838 483.19C291.005 483.032 291.27 483.038 291.429 483.204L291.506 483.286L291.564 483.35C291.669 483.467 291.791 483.607 291.928 483.769C292.317 484.231 292.75 484.782 293.215 485.422C294.541 487.247 295.865 489.424 297.1 491.95C300.625 499.159 302.74 507.721 302.74 517.606C302.74 517.835 302.552 518.022 302.321 518.022C302.09 518.022 301.903 517.835 301.903 517.606C301.903 507.851 299.819 499.413 296.347 492.314C295.134 489.832 293.835 487.696 292.536 485.909C292.11 485.322 291.713 484.813 291.354 484.384L291.287 484.304C291.185 484.183 291.092 484.076 291.009 483.982L290.904 483.866C290.865 483.823 290.838 483.794 290.824 483.779C290.664 483.612 290.67 483.349 290.838 483.19Z" fill="#253368"/>
<path d="M322.457 486.103C322.595 485.918 322.857 485.881 323.043 486.018C323.228 486.156 323.266 486.416 323.128 486.6C321.603 488.63 320.197 490.812 318.903 493.126C316.168 498.016 314.054 503.259 312.484 508.502C311.935 510.338 311.493 512.041 311.15 513.569L311.08 513.883C310.998 514.257 310.927 514.597 310.867 514.903L310.828 515.103L310.758 515.48C310.72 515.707 310.504 515.86 310.276 515.821C310.048 515.783 309.894 515.569 309.933 515.342L309.956 515.208C309.976 515.1 310 514.973 310.029 514.827L310.098 514.48C310.165 514.15 310.243 513.785 310.333 513.388L310.409 513.054C310.745 511.595 311.167 509.987 311.682 508.265C313.268 502.967 315.404 497.669 318.171 492.721C319.483 490.377 320.909 488.163 322.457 486.103Z" fill="#253368"/>
<path d="M329.771 434.19C329.931 434.343 329.942 434.592 329.802 434.758L329.783 434.779C329.775 434.787 329.757 434.806 329.73 434.835L329.628 434.946L329.568 435.012C329.388 435.212 329.178 435.452 328.942 435.733C328.264 436.539 327.508 437.509 326.693 438.644C324.361 441.89 322.027 445.8 319.848 450.378C316.22 457.999 313.394 466.692 311.681 476.464C309.602 488.33 309.257 501.293 310.96 515.361C310.987 515.59 310.823 515.797 310.594 515.824C310.364 515.852 310.156 515.689 310.128 515.461C308.416 501.311 308.763 488.267 310.857 476.321C312.582 466.473 315.431 457.709 319.091 450.022C321.292 445.398 323.651 441.446 326.012 438.16L326.195 437.907C326.923 436.905 327.603 436.033 328.222 435.292L328.3 435.2C328.522 434.935 328.722 434.705 328.897 434.509L328.945 434.457C328.999 434.396 329.048 434.342 329.092 434.296L329.179 434.203C329.339 434.037 329.604 434.031 329.771 434.19Z" fill="#253368"/>
<path d="M293.544 458.865C293.742 458.746 293.999 458.809 294.119 459.005L294.161 459.075C294.194 459.132 294.234 459.199 294.279 459.277L294.344 459.391C294.457 459.587 294.583 459.812 294.722 460.067L294.837 460.279C295.262 461.066 295.729 461.978 296.227 463.011L296.295 463.152C297.92 466.536 299.544 470.493 301.059 474.99C305.301 487.58 307.882 501.871 307.979 517.603C307.98 517.833 307.794 518.02 307.563 518.022C307.332 518.023 307.143 517.838 307.142 517.608C307.046 501.968 304.48 487.764 300.265 475.254C298.788 470.872 297.209 467.008 295.628 463.694L295.54 463.511C294.999 462.385 294.496 461.403 294.043 460.568L293.906 460.318C293.775 460.08 293.657 459.871 293.553 459.691L293.504 459.607L293.403 459.436C293.283 459.24 293.346 458.984 293.544 458.865Z" fill="#253368"/>
<path fill-rule="evenodd" clip-rule="evenodd" d="M325.755 538.245H289.578C287.623 538.245 286.023 536.654 286.023 534.71V508.471C286.023 506.527 287.623 504.936 289.578 504.936H325.755C327.71 504.936 329.31 506.527 329.31 508.471V534.71C329.31 536.654 327.71 538.245 325.755 538.245Z" fill="#253368"/>
</svg>
