<svg width="400" height="450" viewBox="0 0 400 450" fill="none" xmlns="http://www.w3.org/2000/svg">
<g clip-path="url(#clip0_285_16334)">
<path d="M367.702 405.672H55.4137C49.9092 405.672 45.447 410.134 45.447 415.638C45.447 421.143 49.9092 425.605 55.4137 425.605H367.702C373.206 425.605 377.669 421.143 377.669 415.638C377.669 410.134 373.206 405.672 367.702 405.672Z" fill="#E4EBF7"/>
<circle cx="205.182" cy="205.777" r="179.07" fill="#E6F7FF"/>
<path fill-rule="evenodd" clip-rule="evenodd" d="M386.53 71.417H167.13V56.286C167.13 53.0038 169.802 50.3426 173.097 50.3426H380.563C383.858 50.3426 386.53 53.0038 386.53 56.286V71.417Z" fill="#253368"/>
<path fill-rule="evenodd" clip-rule="evenodd" d="M182.514 60.2372C182.514 62.2971 180.847 63.9672 178.792 63.9672C176.736 63.9672 175.07 62.2971 175.07 60.2372C175.07 58.1773 176.736 56.5072 178.792 56.5072C180.847 56.5072 182.514 58.1773 182.514 60.2372Z" fill="#A3B5D6"/>
<path fill-rule="evenodd" clip-rule="evenodd" d="M196.41 60.2372C196.41 62.2971 194.744 63.9672 192.688 63.9672C190.633 63.9672 188.967 62.2971 188.967 60.2372C188.967 58.1773 190.633 56.5072 192.688 56.5072C194.744 56.5072 196.41 58.1773 196.41 60.2372Z" fill="#E4EBF7"/>
<path fill-rule="evenodd" clip-rule="evenodd" d="M210.306 60.2372C210.306 62.2971 208.64 63.9672 206.585 63.9672C204.529 63.9672 202.863 62.2971 202.863 60.2372C202.863 58.1773 204.529 56.5072 206.585 56.5072C208.64 56.5072 210.306 58.1773 210.306 60.2372Z" fill="#E4EBF7"/>
<path fill-rule="evenodd" clip-rule="evenodd" d="M173.775 216.811C170.105 216.811 167.13 214.154 167.13 210.876V69.5526H386.542V210.876C386.542 214.154 383.566 216.811 379.896 216.811H173.775Z" fill="#E4EBF7"/>
<path d="M369.177 81.7136H242.127C240.665 81.7136 239.479 82.8993 239.479 84.3618V202.886C239.479 204.349 240.665 205.535 242.127 205.535H369.177C370.64 205.535 371.825 204.349 371.825 202.886V84.3618C371.825 82.8993 370.64 81.7136 369.177 81.7136Z" fill="white"/>
<path d="M227.126 81.4925H183.895C182.432 81.4925 181.247 82.6781 181.247 84.1407V202.665C181.247 204.128 182.432 205.314 183.895 205.314H227.126C228.588 205.314 229.774 204.128 229.774 202.665V84.1407C229.774 82.6781 228.588 81.4925 227.126 81.4925Z" fill="white"/>
<path d="M217.598 130.136H193.339C192.508 130.136 191.834 130.81 191.834 131.641V135.361C191.834 136.192 192.508 136.865 193.339 136.865H217.598C218.429 136.865 219.103 136.192 219.103 135.361V131.641C219.103 130.81 218.429 130.136 217.598 130.136Z" fill="#E4EBF7"/>
<path d="M217.621 143.182H193.316C192.498 143.182 191.834 143.845 191.834 144.663V148.226C191.834 149.044 192.498 149.707 193.316 149.707H217.621C218.439 149.707 219.103 149.044 219.103 148.226V144.663C219.103 143.845 218.439 143.182 217.621 143.182Z" fill="#E4EBF7"/>
<path d="M217.621 156.006H193.316C192.498 156.006 191.834 156.669 191.834 157.488V161.05C191.834 161.868 192.498 162.531 193.316 162.531H217.621C218.439 162.531 219.103 161.868 219.103 161.05V157.488C219.103 156.669 218.439 156.006 217.621 156.006Z" fill="#A3B5D6"/>
<path d="M217.621 168.831H193.316C192.498 168.831 191.834 169.494 191.834 170.312V173.874C191.834 174.692 192.498 175.356 193.316 175.356H217.621C218.439 175.356 219.103 174.692 219.103 173.874V170.312C219.103 169.494 218.439 168.831 217.621 168.831Z" fill="#4E5C93"/>
<path d="M330.356 138.76H254.479C253.504 138.76 252.714 139.55 252.714 140.525V140.532C252.714 141.507 253.504 142.297 254.479 142.297H330.356C331.331 142.297 332.122 141.507 332.122 140.532V140.525C332.122 139.55 331.331 138.76 330.356 138.76Z" fill="#E4EBF7"/>
<path d="M330.356 156.891H254.479C253.504 156.891 252.714 157.681 252.714 158.656V158.663C252.714 159.638 253.504 160.428 254.479 160.428H330.356C331.331 160.428 332.122 159.638 332.122 158.663V158.656C332.122 157.681 331.331 156.891 330.356 156.891Z" fill="#E4EBF7"/>
<path d="M356.825 147.604H254.479C253.504 147.604 252.714 148.394 252.714 149.37V149.376C252.714 150.351 253.504 151.142 254.479 151.142H356.825C357.8 151.142 358.591 150.351 358.591 149.376V149.37C358.591 148.394 357.8 147.604 356.825 147.604Z" fill="#E4EBF7"/>
<path d="M295.944 168.388H258.01C255.085 168.388 252.714 170.76 252.714 173.685V188.298C252.714 191.223 255.085 193.595 258.01 193.595H295.944C298.87 193.595 301.241 191.223 301.241 188.298V173.685C301.241 170.76 298.87 168.388 295.944 168.388Z" fill="#4E5C93"/>
<path d="M355.06 93.6535H256.245C254.295 93.6535 252.714 95.2343 252.714 97.1844V129.922C252.714 131.872 254.295 133.453 256.245 133.453H355.06C357.01 133.453 358.591 131.872 358.591 129.922V97.1844C358.591 95.2343 357.01 93.6535 355.06 93.6535Z" fill="#CCD7EE"/>
<path d="M353.294 168.388H315.36C312.435 168.388 310.063 170.76 310.063 173.685V188.298C310.063 191.223 312.435 193.595 315.36 193.595H353.294C356.219 193.595 358.59 191.223 358.59 188.298V173.685C358.59 170.76 356.219 168.388 353.294 168.388Z" fill="#A3B5D6"/>
<path d="M205.467 116.567C212.194 116.567 217.648 111.052 217.648 104.248C217.648 97.4444 212.194 91.929 205.467 91.929C198.74 91.929 193.287 97.4444 193.287 104.248C193.287 111.052 198.74 116.567 205.467 116.567Z" fill="#E4EBF7"/>
<path d="M205.467 116.567C208.978 116.569 212.31 115 214.568 112.282C212.789 108.865 209.284 106.726 205.465 106.726C201.647 106.726 198.142 108.865 196.362 112.282C198.622 115.001 201.955 116.569 205.467 116.567Z" fill="#4E5C93"/>
<path d="M205.773 107.216C208.436 107.216 210.595 105.034 210.595 102.342C210.595 99.6503 208.436 97.4682 205.773 97.4682C203.11 97.4682 200.951 99.6503 200.951 102.342C200.951 105.034 203.11 107.216 205.773 107.216Z" fill="#4E5C93"/>
<path fill-rule="evenodd" clip-rule="evenodd" d="M105.521 324.371C105.521 329.103 101.685 332.939 96.9532 332.939C92.2215 332.939 88.385 329.103 88.385 324.371C88.385 319.639 92.2215 315.803 96.9532 315.803C101.685 315.803 105.521 319.639 105.521 324.371Z" fill="#253368"/>
<path fill-rule="evenodd" clip-rule="evenodd" d="M95.3455 401.482H98.662V326.929H95.3455V401.482Z" fill="#253368"/>
<path fill-rule="evenodd" clip-rule="evenodd" d="M95.3458 401.482L56.7183 407.916L54.2253 406.115L95.3458 394.004V401.482Z" fill="#253368"/>
<path fill-rule="evenodd" clip-rule="evenodd" d="M98.6621 401.482L137.29 407.916L139.782 406.115L98.6621 394.004V401.482Z" fill="#253368"/>
<path fill-rule="evenodd" clip-rule="evenodd" d="M94.3728 410.131H99.6352V399.329H94.3728V410.131Z" fill="#253368"/>
<path fill-rule="evenodd" clip-rule="evenodd" d="M60.3376 410.275C60.3376 412.742 58.3379 414.741 55.8717 414.741C53.405 414.741 51.4053 412.742 51.4053 410.275C51.4053 407.808 53.405 405.809 55.8717 405.809C58.3379 405.809 60.3376 407.808 60.3376 410.275Z" fill="#253368"/>
<path fill-rule="evenodd" clip-rule="evenodd" d="M101.47 410.275C101.47 412.742 99.4705 414.741 97.0038 414.741C94.5375 414.741 92.5378 412.742 92.5378 410.275C92.5378 407.808 94.5375 405.809 97.0038 405.809C99.4705 405.809 101.47 407.808 101.47 410.275Z" fill="#253368"/>
<path fill-rule="evenodd" clip-rule="evenodd" d="M142.994 410.275C142.994 412.742 140.994 414.741 138.527 414.741C136.061 414.741 134.061 412.742 134.061 410.275C134.061 407.808 136.061 405.809 138.527 405.809C140.994 405.809 142.994 407.808 142.994 410.275Z" fill="#253368"/>
<path fill-rule="evenodd" clip-rule="evenodd" d="M150.659 322.798H43.2473C43.2473 312.24 51.8053 303.682 62.3625 303.682H131.544C142.101 303.682 150.659 312.24 150.659 322.798Z" fill="#A3B5D6"/>
<path fill-rule="evenodd" clip-rule="evenodd" d="M130.969 252.111C130.969 252.111 130.163 265.525 117.904 264.577C105.403 263.612 106.747 250.072 106.747 250.072C106.747 250.072 106.14 241.656 107.011 230.339C107.693 221.495 108.74 209.945 109.715 204.329C110.765 198.267 116.344 194.267 122.086 194.71C130.813 195.384 133.772 202.424 133.58 208.542C133.392 214.491 133.11 224.281 132.757 230.833C132.08 243.433 130.969 252.111 130.969 252.111Z" fill="#ADC6FF"/>
<path fill-rule="evenodd" clip-rule="evenodd" d="M158.337 268.472C159.812 273.987 172.082 272.115 172.082 272.115L178.096 277.017C179.049 277.676 179.457 277.033 179.976 277.151C181.373 277.47 181.707 276.001 181.707 276.001C182.241 275.881 182.933 276.428 183.445 275.146C183.445 275.146 184.44 275.299 184.779 274.126C184.907 273.69 182.986 267.783 181.841 264.327C181.336 262.809 180.025 261.706 178.446 261.468L163.761 259.255C163.761 259.255 156.353 261.052 158.337 268.472Z" fill="#C99382"/>
<path d="M171.18 268.265C171.013 268.193 170.819 268.271 170.747 268.439C170.683 268.588 170.738 268.758 170.869 268.845L170.921 268.873L175.259 270.727L179.589 276.697C179.685 276.828 179.858 276.869 179.999 276.801L180.051 276.77C180.182 276.675 180.222 276.501 180.154 276.36L180.124 276.308L175.74 270.265C175.716 270.232 175.687 270.205 175.654 270.183L175.602 270.155L171.18 268.265Z" fill="#9B6160"/>
<path d="M174.13 266.443C173.971 266.353 173.769 266.41 173.68 266.569C173.6 266.71 173.636 266.885 173.756 266.985L173.805 267.019L177.787 269.265L181.317 275.446C181.397 275.587 181.566 275.646 181.713 275.594L181.767 275.569C181.908 275.489 181.967 275.32 181.915 275.172L181.89 275.118L178.315 268.858C178.295 268.824 178.27 268.793 178.239 268.768L178.191 268.734L174.13 266.443Z" fill="#9B6160"/>
<path d="M176.987 264.759C176.844 264.646 176.636 264.67 176.523 264.813C176.422 264.94 176.43 265.119 176.534 265.236L176.577 265.278L179.258 267.401L182.479 274.034C182.549 274.18 182.714 274.251 182.864 274.208L182.92 274.187C183.066 274.116 183.136 273.952 183.094 273.801L183.073 273.745L179.819 267.044C179.804 267.014 179.786 266.987 179.763 266.963L179.727 266.929L176.987 264.759Z" fill="#9B6160"/>
<path fill-rule="evenodd" clip-rule="evenodd" d="M119.395 242.749C119.395 242.749 107.04 240.147 104.531 250.414C101.945 261.002 113.68 264.047 113.68 264.047C113.68 264.047 121.992 265.987 132.226 268.421C138.472 269.907 145.404 271.41 150.592 271.779C156.21 272.178 157.482 269.301 158.736 264.168C160.225 258.071 160.222 255.401 155.021 253.311C150.062 251.319 143.091 249.525 137.751 247.889C127.571 244.772 119.395 242.749 119.395 242.749Z" fill="#ADC6FF"/>
<path fill-rule="evenodd" clip-rule="evenodd" d="M161.325 270.947L164.225 259.076L156.424 256.259L153.105 269.84L161.325 270.947Z" fill="#ADC6FF"/>
<path fill-rule="evenodd" clip-rule="evenodd" d="M169.872 292.668C145.333 286.285 119.903 279.938 99.5572 275.352C99.5572 275.352 84.2025 274.513 83.3905 288.545C82.5957 302.299 99.1833 306.384 99.1833 306.384L165.817 316.754C165.817 316.754 176.688 318.323 178.505 306.246C180.16 295.23 169.872 292.668 169.872 292.668Z" fill="#597EF7"/>
<path fill-rule="evenodd" clip-rule="evenodd" d="M165.548 357.675C161.192 356.8 157.159 360.218 157.314 364.665C157.491 369.78 157.695 376.692 157.814 384.137C157.937 391.8 158.054 398.15 158.601 398.956C161.014 402.51 165.836 403.832 170.79 407.352C174.711 410.138 175.388 411.462 180.385 412.399C187.468 413.727 184.166 410.719 176.302 401.203C169.295 392.726 169.766 388.75 169.766 388.75L171.07 364.809C171.256 361.388 168.903 358.349 165.548 357.675Z" fill="#C99382"/>
<path fill-rule="evenodd" clip-rule="evenodd" d="M175.59 398.953C180.708 404.648 186.572 409.149 186.43 411.853C186.287 414.558 184.158 417 175.347 413.87C169.318 411.727 171.044 410.432 165.289 406.683C162.414 404.81 161.367 405.012 158.717 402.833C157.198 400.877 157.882 391.379 157.882 391.379L167.967 402.445C167.967 402.445 165.345 397.291 167.5 396.174C169.655 395.056 171.638 394.296 172.909 395.213C174.18 396.129 175.59 398.953 175.59 398.953Z" fill="#7D4556"/>
<path fill-rule="evenodd" clip-rule="evenodd" d="M180.583 306.434C177.275 346.638 173.511 385.975 173.511 385.975L156.512 385.964L153.856 304.987C153.856 304.987 155.347 295.695 168.477 294.004C180.554 292.448 180.583 306.434 180.583 306.434Z" fill="#597EF7"/>
<path fill-rule="evenodd" clip-rule="evenodd" d="M58.6644 293.53C60.1945 277.313 60.6001 268.976 62.4159 265.93C101.451 267.047 111.175 266.533 111.175 266.533C111.175 266.533 111.573 272.269 113.371 289.927C113.371 289.927 101.353 311.854 85.8447 311.854C71.8629 311.854 58.6644 293.53 58.6644 293.53Z" fill="#597EF7"/>
<path fill-rule="evenodd" clip-rule="evenodd" d="M62.416 265.93L63.1542 258.575L110.952 259.149L111.175 266.515C111.175 266.515 85.8784 267.491 62.416 265.93Z" fill="#597EF7"/>
<path fill-rule="evenodd" clip-rule="evenodd" d="M83.9045 168.567C83.9045 168.567 77.2655 164.493 79.9239 157.256C77.2319 150.787 81.0159 147.068 81.0159 147.068C81.0159 147.068 81.5643 138.783 87.074 138.592C90.9548 130.262 100.445 134.082 100.445 134.082C100.445 134.082 106.875 129.342 115.365 136.707C121.817 137.264 122.003 134.053 123.967 136.392C125.932 138.73 126.598 144.009 123.724 145.929C128.4 148.231 123.663 155.616 123.663 155.616C123.663 155.616 125.005 160.097 119.328 163.131C113.649 166.165 111.026 176.524 101.7 179.355C92.7255 182.079 83.5229 178.783 83.9045 168.567Z" fill="#7D4556"/>
<path fill-rule="evenodd" clip-rule="evenodd" d="M86.6121 184.295L89.3099 170.118L108.11 173.453L107.647 185.961C107.441 191.545 102.677 195.86 97.107 195.507C97.0006 195.5 96.8952 195.493 96.7878 195.486C91.0921 195.127 85.918 189.967 86.6121 184.295Z" fill="#C99382"/>
<path fill-rule="evenodd" clip-rule="evenodd" d="M94.3763 148.473C94.3763 148.473 95.3944 153.561 91.4656 154.722C92.0246 161.27 89.206 160.651 89.206 160.651C89.206 160.651 84.7787 154.777 81.5833 159.783C78.5471 164.539 83.54 171.709 88.2981 170.697C95.9754 183.486 111.751 184.391 117.12 176.189C120.381 171.205 119.35 163.858 119.811 160.423C120.946 151.98 119.431 149.391 119.431 149.391C119.431 149.391 116.188 150.024 112.703 147.309C108.86 150.056 103.476 147.178 103.476 147.178C103.476 147.178 99.7508 151.772 94.3763 148.473Z" fill="#C99382"/>
<path d="M85.6013 160.827C84.5157 160.595 83.7673 160.865 83.3557 161.475C83.1715 161.748 83.0951 162.019 83.078 162.217C83.0609 162.415 83.2074 162.59 83.4052 162.607C83.603 162.624 83.7773 162.477 83.7944 162.279C83.8019 162.192 83.8466 162.034 83.9516 161.878C84.1928 161.52 84.6424 161.358 85.451 161.531C86.2142 161.694 86.8461 162.284 87.2115 163.072C87.3644 163.401 87.452 163.734 87.462 163.998C87.4694 164.19 87.4358 164.288 87.4289 164.292C86.6878 164.699 86.1085 165.287 85.9159 165.936C85.6689 166.769 86.0684 167.583 87.1173 168.26C87.2842 168.368 87.5067 168.32 87.6143 168.153C87.722 167.986 87.674 167.763 87.5071 167.656C86.7055 167.138 86.4587 166.635 86.6052 166.141C86.735 165.703 87.1842 165.248 87.7744 164.924C88.9685 164.269 87.5661 161.247 85.6013 160.827Z" fill="#9B6160"/>
<path d="M86.6606 163.473C86.3285 163.433 85.9847 163.42 85.657 163.453C84.7664 163.543 84.1665 163.958 84.1699 164.791C84.1708 164.99 84.3324 165.15 84.531 165.149C84.7295 165.148 84.8898 164.987 84.889 164.788C84.8874 164.416 85.1607 164.227 85.7287 164.17C85.9966 164.143 86.2905 164.153 86.5744 164.188L86.7049 164.205C86.7409 164.211 86.7689 164.216 86.7879 164.219C86.9828 164.257 87.1715 164.129 87.2092 163.934C87.2469 163.739 87.1195 163.55 86.9246 163.512L86.7895 163.49C86.7515 163.485 86.7083 163.479 86.6606 163.473Z" fill="#9B6160"/>
<path fill-rule="evenodd" clip-rule="evenodd" d="M106.842 160.329C106.543 163.785 103.505 166.344 100.053 166.047C96.6012 165.748 94.0453 162.704 94.3434 159.249C94.6406 155.793 97.6807 153.233 101.132 153.531C104.584 153.83 107.14 156.874 106.842 160.329Z" fill="white"/>
<path d="M101.17 153.09C104.865 153.41 107.602 156.668 107.283 160.367C106.962 164.067 103.71 166.806 100.015 166.488C96.3202 166.168 93.5841 162.91 93.9033 159.21C94.2162 155.572 97.3697 152.861 100.989 153.077L101.17 153.09ZM94.7839 159.286C94.5067 162.499 96.8827 165.328 100.091 165.606C103.299 165.882 106.124 163.504 106.402 160.291C106.679 157.079 104.303 154.25 101.094 153.972C97.8859 153.695 95.0601 156.074 94.7839 159.286Z" fill="#7D4556"/>
<path fill-rule="evenodd" clip-rule="evenodd" d="M122.05 161.055C121.75 164.51 118.712 167.069 115.26 166.772C111.809 166.473 109.252 163.429 109.551 159.974C109.848 156.518 112.888 153.958 116.34 154.256C119.792 154.555 122.348 157.599 122.05 161.055Z" fill="white"/>
<path d="M116.377 153.815C120.073 154.135 122.809 157.393 122.49 161.093C122.17 164.792 118.917 167.531 115.222 167.213C111.527 166.893 108.79 163.635 109.111 159.935C109.423 156.297 112.577 153.586 116.196 153.802L116.377 153.815ZM109.991 160.012C109.713 163.224 112.09 166.053 115.298 166.331C118.507 166.608 121.331 164.229 121.609 161.016C121.886 157.804 119.51 154.975 116.301 154.697C113.093 154.42 110.267 156.8 109.991 160.012Z" fill="#7D4556"/>
<path d="M108.385 159.303C108.212 159.401 108.151 159.621 108.249 159.794L108.34 159.958C108.413 160.093 108.495 160.246 108.584 160.416C108.836 160.901 109.088 161.417 109.323 161.942C109.535 162.416 109.722 162.875 109.879 163.309C110.407 164.772 110.529 165.83 110.197 166.212C109.826 166.641 109.34 166.894 108.758 166.999C108.166 167.106 107.518 167.053 106.889 166.899C106.652 166.841 106.476 166.784 106.384 166.748C106.199 166.675 105.991 166.767 105.919 166.952C105.846 167.137 105.938 167.346 106.123 167.418L106.246 167.463C106.365 167.503 106.525 167.551 106.718 167.598C107.437 167.775 108.18 167.835 108.886 167.708C109.621 167.575 110.254 167.245 110.74 166.684C111.317 166.019 111.174 164.778 110.555 163.064C110.392 162.612 110.198 162.137 109.979 161.648C109.738 161.109 109.48 160.58 109.221 160.083L109.049 159.758L108.875 159.439C108.777 159.266 108.557 159.205 108.385 159.303Z" fill="#9B6160"/>
<path fill-rule="evenodd" clip-rule="evenodd" d="M101.758 169.028C101.758 169.028 107.484 170.189 111.671 169.885C111.671 169.885 110.158 173.921 106.07 173.067C102.44 172.309 101.758 169.028 101.758 169.028Z" fill="white"/>
<path d="M101.833 168.657L102.585 168.797C103.182 168.903 103.84 169.009 104.54 169.107C106.037 169.318 107.513 169.468 108.89 169.528C109.896 169.573 110.82 169.568 111.644 169.508C111.919 169.488 112.122 169.76 112.025 170.018L111.976 170.138C111.927 170.253 111.855 170.403 111.759 170.581C111.538 170.991 111.263 171.4 110.93 171.784C109.714 173.183 108.07 173.871 105.993 173.437C104.498 173.125 103.355 172.39 102.527 171.363C102.133 170.873 101.837 170.35 101.623 169.826C101.494 169.508 101.42 169.257 101.389 169.105C101.333 168.839 101.568 168.603 101.833 168.657ZM102.453 169.542L102.314 169.516L102.323 169.54C102.51 170 102.77 170.459 103.115 170.888C103.837 171.783 104.829 172.422 106.147 172.697C107.934 173.07 109.312 172.493 110.36 171.287L110.53 171.081C110.695 170.873 110.842 170.657 110.971 170.439L111.052 170.297L111.039 170.298C110.362 170.324 109.632 170.318 108.857 170.284C107.453 170.222 105.954 170.071 104.435 169.856C103.726 169.756 103.059 169.649 102.453 169.542Z" fill="#7D4556"/>
<path d="M111.921 152.19C111.74 152.085 111.509 152.147 111.404 152.328C111.3 152.508 111.361 152.74 111.541 152.845C113.48 153.971 115.955 154.427 118.549 153.948C118.754 153.91 118.89 153.713 118.852 153.508C118.814 153.302 118.617 153.166 118.412 153.204C115.999 153.65 113.706 153.228 111.921 152.19Z" fill="#7D4556"/>
<path d="M108.753 157.946C108.042 157.853 107.292 157.854 106.586 157.911L106.314 157.936L106.196 157.95L106.313 158.827L106.564 158.801C106.593 158.798 106.624 158.795 106.657 158.793C107.306 158.741 107.998 158.74 108.639 158.823C109.023 158.873 109.366 158.952 109.656 159.06L109.797 159.116L110.147 158.304C109.746 158.13 109.277 158.014 108.753 157.946Z" fill="#7D4556"/>
<path d="M115.927 159.013C114.851 158.92 114.064 159.388 113.564 160.199C113.301 160.627 113.168 161.048 113.119 161.347C113.079 161.588 113.243 161.816 113.484 161.855C113.724 161.895 113.952 161.732 113.991 161.49L114.006 161.419C114.017 161.373 114.033 161.314 114.055 161.243C114.118 161.044 114.204 160.846 114.316 160.664C114.652 160.12 115.134 159.833 115.851 159.895C116.505 159.951 116.882 160.283 117.084 160.843C117.192 161.142 117.234 161.462 117.235 161.739L117.23 161.903C117.209 162.146 117.389 162.361 117.633 162.382C117.856 162.401 118.054 162.251 118.102 162.039L118.113 161.959C118.113 161.951 118.114 161.939 118.115 161.915C118.134 161.505 118.087 161.019 117.915 160.542C117.603 159.677 116.95 159.101 115.927 159.013Z" fill="#7D4556"/>
<path d="M100.892 157.713C99.8163 157.619 99.0293 158.088 98.5293 158.899C98.2656 159.326 98.1327 159.748 98.0836 160.047C98.044 160.288 98.2072 160.516 98.448 160.555C98.667 160.591 98.8748 160.459 98.9405 160.254L98.9833 160.069C98.9929 160.032 99.005 159.99 99.0198 159.943C99.0824 159.744 99.1689 159.546 99.2813 159.364C99.617 158.819 100.099 158.532 100.816 158.594C101.47 158.651 101.847 158.983 102.049 159.543C102.157 159.843 102.2 160.163 102.201 160.439L102.196 160.603C102.175 160.846 102.355 161.061 102.598 161.082C102.821 161.101 103.02 160.951 103.068 160.738L103.079 160.643L103.081 160.615C103.1 160.205 103.053 159.719 102.88 159.242C102.568 158.377 101.915 157.801 100.892 157.713Z" fill="#7D4556"/>
<path d="M94.3433 159.249L88.1673 158.714" stroke="#7D4556" stroke-width="1.14866"/>
<path d="M105.174 151.575C105.096 151.381 104.875 151.287 104.682 151.366C103.99 151.645 103.17 151.842 102.249 151.963C100.852 152.147 99.355 152.147 97.9526 152.037L97.6627 152.012L97.2133 151.964C97.0065 151.937 96.8168 152.083 96.7897 152.29C96.7626 152.497 96.9083 152.687 97.1152 152.714L97.3255 152.739L97.5927 152.765C97.6875 152.774 97.7878 152.783 97.8934 152.791C99.3439 152.905 100.891 152.905 102.347 152.713C103.327 152.584 104.208 152.373 104.965 152.067C105.158 151.989 105.252 151.769 105.174 151.575Z" fill="#7D4556"/>
<path d="M105.76 176.971C105.562 176.961 105.394 177.115 105.385 177.314L105.373 177.501C105.365 177.603 105.354 177.73 105.338 177.876C105.293 178.301 105.227 178.726 105.137 179.119C104.949 179.938 104.68 180.498 104.383 180.661C104.208 180.757 104.145 180.975 104.24 181.15C104.335 181.324 104.554 181.388 104.728 181.293C105.266 180.998 105.606 180.289 105.838 179.28C105.935 178.856 106.005 178.404 106.053 177.953L106.082 177.653L106.103 177.347C106.112 177.148 105.959 176.98 105.76 176.971Z" fill="#9B6160"/>
<path d="M107.014 178.205C106.815 178.203 106.653 178.362 106.651 178.561L106.643 178.852C106.64 178.915 106.636 178.985 106.632 179.061C106.611 179.438 106.575 179.814 106.522 180.163C106.469 180.509 106.402 180.807 106.322 181.042C106.257 181.23 106.357 181.435 106.545 181.5C106.732 181.564 106.937 181.464 107.002 181.276C107.098 180.995 107.174 180.656 107.233 180.272C107.289 179.898 107.327 179.499 107.35 179.102L107.365 178.786C107.368 178.696 107.37 178.622 107.37 178.568C107.372 178.369 107.213 178.207 107.014 178.205Z" fill="#9B6160"/>
<path d="M104.099 178.46C103.91 178.401 103.709 178.508 103.65 178.698L103.62 178.791C103.601 178.848 103.576 178.92 103.546 179.004C103.461 179.237 103.365 179.469 103.26 179.684C103.067 180.082 102.867 180.367 102.709 180.476L102.663 180.504C102.485 180.591 102.411 180.807 102.498 180.985C102.585 181.164 102.8 181.238 102.978 181.151C103.333 180.977 103.628 180.574 103.907 179.998C104.023 179.759 104.128 179.505 104.221 179.252L104.303 179.016C104.318 178.973 104.329 178.937 104.338 178.909C104.396 178.719 104.289 178.518 104.099 178.46Z" fill="#9B6160"/>
<path d="M108.106 177.933C107.929 177.959 107.801 178.109 107.798 178.283L107.802 178.341L108.115 180.493C108.144 180.69 108.326 180.826 108.523 180.797C108.7 180.772 108.828 180.621 108.831 180.448L108.827 180.389L108.513 178.237C108.488 178.06 108.337 177.932 108.164 177.929L108.106 177.933Z" fill="#9B6160"/>
<path d="M95.7652 177.773C95.5991 177.664 95.3763 177.711 95.2674 177.877C95.1586 178.043 95.205 178.267 95.371 178.376C95.9304 178.743 96.5072 179.076 97.0999 179.378C100.71 181.214 104.479 181.735 107.717 181.513L108.019 181.49C108.294 181.467 108.489 181.444 108.595 181.428C108.791 181.399 108.926 181.215 108.897 181.018C108.867 180.822 108.684 180.687 108.488 180.716L108.323 180.738C108.253 180.746 108.166 180.755 108.065 180.764L107.959 180.773C104.777 181.039 101.012 180.56 97.4256 178.736C96.8562 178.446 96.3023 178.126 95.7652 177.773Z" fill="#9B6160"/>
<path d="M103.143 166.516C103.087 166.325 102.887 166.216 102.697 166.272L102.531 166.325C102.403 166.367 102.261 166.417 102.108 166.474C101.671 166.638 101.234 166.83 100.824 167.049C99.4514 167.783 98.6634 168.653 98.8545 169.705C98.89 169.9 99.0772 170.03 99.2726 169.995C99.4679 169.959 99.5975 169.772 99.5619 169.576C99.4465 168.94 100.041 168.284 101.162 167.684C101.542 167.481 101.951 167.302 102.36 167.148L102.556 167.077C102.707 167.023 102.825 166.985 102.9 166.963C103.091 166.907 103.2 166.707 103.143 166.516Z" fill="#9B6160"/>
<path fill-rule="evenodd" clip-rule="evenodd" d="M85.63 184.966L83.6224 188.698C83.6224 188.698 69.6934 190.371 62.8923 194.473C56.7422 198.182 57.5169 237.338 58.4631 250.516C55.1498 265.988 67.5133 264.74 67.5133 264.74L111.634 268.384C111.634 268.384 118.092 264.712 114.881 253.809C115.705 244.943 130.082 202.423 124.528 196.862C120.21 192.537 109.785 191.692 109.785 191.692L109.086 187.357C109.086 187.357 102.394 186.592 85.63 184.966Z" fill="#ADC6FF"/>
<path d="M122.404 213.793C122.202 213.773 122.023 213.921 122.003 214.123C121.624 218.029 120.883 222.692 119.841 227.952C119.254 230.915 118.58 234.021 117.836 237.226C116.959 241.008 116.024 244.755 115.084 248.33L114.531 250.413C114.373 250.999 114.222 251.558 114.076 252.09L113.698 253.462L113.378 254.599C113.321 254.794 113.434 254.998 113.629 255.054C113.825 255.11 114.028 254.998 114.084 254.802L114.469 253.434L114.786 252.284C115.004 251.486 115.237 250.624 115.481 249.705C116.528 245.769 117.575 241.603 118.553 237.393C119.298 234.181 119.974 231.067 120.562 228.095L120.799 226.887C121.721 222.097 122.382 217.825 122.735 214.195C122.754 213.992 122.607 213.812 122.404 213.793Z" fill="#597EF7"/>
<path d="M87.0547 190.758C86.8583 190.706 86.6572 190.824 86.6055 191.02C86.5537 191.217 86.671 191.418 86.8673 191.47C93.7549 193.287 100.517 193.752 106.21 193.443L106.682 193.416C106.973 193.398 107.237 193.379 107.471 193.359L107.937 193.316C107.954 193.314 107.968 193.313 107.98 193.312C108.181 193.289 108.327 193.106 108.304 192.904C108.281 192.702 108.099 192.557 107.897 192.58L107.576 192.611L107.044 192.654C106.916 192.663 106.78 192.672 106.637 192.681C100.919 193.037 94.0478 192.603 87.0547 190.758Z" fill="#597EF7"/>
<path fill-rule="evenodd" clip-rule="evenodd" d="M130.767 365.535C126.033 364.752 121.806 368.59 122.134 373.383C122.513 378.898 122.987 386.351 123.387 394.384C123.801 402.65 124.159 409.5 124.78 410.351C127.514 414.098 132.768 415.348 138.245 418.966C142.579 421.83 143.358 423.234 148.786 424.062C156.481 425.235 152.806 422.11 143.969 412.127C136.096 403.233 136.458 398.924 136.458 398.924L136.989 373.034C137.063 369.333 134.414 366.139 130.767 365.535Z" fill="#C99382"/>
<path fill-rule="evenodd" clip-rule="evenodd" d="M143.119 409.723C148.852 415.683 155.347 420.326 155.291 423.251C155.237 426.175 153.028 428.889 143.403 425.834C136.816 423.742 138.631 422.281 132.282 418.445C129.112 416.529 127.988 416.785 125.048 414.531C123.337 412.476 123.726 402.198 123.726 402.198L135.018 413.772C135.018 413.772 131.998 408.306 134.284 407.021C136.569 405.736 138.683 404.842 140.088 405.784C141.493 406.725 143.119 409.723 143.119 409.723Z" fill="#7D4556"/>
<path fill-rule="evenodd" clip-rule="evenodd" d="M144.634 309.105C142.572 352.625 139.983 395.226 139.983 395.226L121.634 395.854L115.732 308.547C115.732 308.547 116.817 295.501 131.102 296.143C143.991 296.722 144.634 309.105 144.634 309.105Z" fill="#597EF7"/>
<path fill-rule="evenodd" clip-rule="evenodd" d="M136.933 294.852C117.094 287.487 91.7596 282.131 73.4071 278.395C73.4071 278.395 59.6391 280.234 58.7082 293.782C57.7964 307.061 72.7551 310.44 72.7551 310.44L132.926 318.197C132.926 318.197 142.745 319.343 144.557 307.645C146.211 296.976 136.933 294.852 136.933 294.852Z" fill="#597EF7"/>
<path d="M61.9035 267.944C61.705 267.944 61.544 268.106 61.544 268.304C61.544 268.483 61.6744 268.632 61.8452 268.66L61.9035 268.664H110.852C111.051 268.664 111.212 268.503 111.212 268.304C111.212 268.125 111.081 267.977 110.91 267.949L110.852 267.944H61.9035Z" fill="#253368"/>
<path d="M62.4442 273.53C62.2456 273.53 62.0847 273.691 62.0847 273.89C62.0847 274.069 62.215 274.217 62.3859 274.245L62.4442 274.25H111.572C111.771 274.25 111.932 274.089 111.932 273.89C111.932 273.711 111.801 273.563 111.63 273.535L111.572 273.53H62.4442Z" fill="#253368"/>
<path d="M96.1679 267.855C95.9894 267.863 95.8475 268.001 95.8278 268.173L95.8259 268.232L96.0962 273.908C96.1057 274.106 96.2741 274.259 96.4725 274.25C96.651 274.241 96.7928 274.104 96.8125 273.932L96.8145 273.873L96.5441 268.197C96.5346 267.999 96.3662 267.845 96.1679 267.855Z" fill="#253368"/>
<path fill-rule="evenodd" clip-rule="evenodd" d="M139.739 294.674L84.4337 282.664L140.685 269.042L185.975 283.571L139.739 294.674Z" fill="#CCD7EE"/>
<path fill-rule="evenodd" clip-rule="evenodd" d="M142.062 290.898L101.896 282.176L141.799 272.152L175.643 282.834L142.062 290.898Z" fill="#4E5C93"/>
<path fill-rule="evenodd" clip-rule="evenodd" d="M84.3042 285.55L84.4211 282.683L140.89 294.48L139.753 297.484L84.3042 285.55Z" fill="#253368"/>
<path d="M149.092 274.982L116.535 284.881C116.408 284.92 116.336 285.054 116.375 285.181C116.409 285.292 116.515 285.36 116.626 285.35L116.674 285.341L149.232 275.441C149.358 275.402 149.43 275.268 149.391 275.142C149.358 275.031 149.251 274.962 149.14 274.972L149.092 274.982Z" fill="#CCD7EE"/>
<path d="M144.961 273.04L108.594 283.435C108.466 283.471 108.392 283.604 108.429 283.731C108.461 283.843 108.566 283.913 108.677 283.905L108.725 283.896L145.093 273.501C145.22 273.465 145.294 273.332 145.257 273.205C145.226 273.093 145.12 273.023 145.009 273.031L144.961 273.04Z" fill="#CCD7EE"/>
<path d="M149.407 277.916L122.042 286.654C121.916 286.695 121.846 286.83 121.887 286.956C121.922 287.067 122.029 287.134 122.14 287.122L122.188 287.112L149.553 278.374C149.679 278.333 149.749 278.198 149.709 278.072C149.673 277.962 149.566 277.894 149.455 277.906L149.407 277.916Z" fill="#CCD7EE"/>
<path d="M156.705 279.066L129.339 287.804C129.213 287.844 129.143 287.979 129.184 288.105C129.219 288.216 129.327 288.283 129.437 288.271L129.485 288.261L156.85 279.523C156.976 279.483 157.046 279.348 157.006 279.221C156.971 279.111 156.863 279.044 156.752 279.056L156.705 279.066Z" fill="#CCD7EE"/>
<path d="M163.416 280.605L136.051 289.343C135.925 289.383 135.855 289.518 135.896 289.645C135.931 289.755 136.038 289.822 136.149 289.81L136.197 289.8L163.562 281.062C163.688 281.022 163.758 280.887 163.718 280.761C163.682 280.65 163.575 280.583 163.464 280.595L163.416 280.605Z" fill="#CCD7EE"/>
<path d="M108.624 280.793C108.494 280.769 108.369 280.856 108.346 280.986C108.325 281.1 108.389 281.21 108.492 281.252L108.539 281.265L142.979 287.516C143.11 287.54 143.234 287.453 143.258 287.323C143.279 287.209 143.215 287.099 143.112 287.057L143.065 287.044L108.624 280.793Z" fill="#CCD7EE"/>
<path d="M116.471 278.513C116.341 278.489 116.216 278.576 116.193 278.706C116.172 278.82 116.235 278.93 116.339 278.972L116.386 278.985L150.827 285.236C150.957 285.26 151.082 285.173 151.106 285.043C151.126 284.929 151.063 284.819 150.959 284.777L150.913 284.764L116.471 278.513Z" fill="#CCD7EE"/>
<path d="M126.111 277.242C125.98 277.218 125.856 277.305 125.832 277.435C125.811 277.549 125.875 277.659 125.978 277.701L126.025 277.714L160.466 283.965C160.596 283.989 160.721 283.902 160.744 283.772C160.765 283.658 160.701 283.548 160.598 283.506L160.551 283.493L126.111 277.242Z" fill="#CCD7EE"/>
<path d="M132.832 272.802C132.701 272.778 132.577 272.865 132.553 272.995C132.532 273.109 132.596 273.219 132.7 273.261L132.746 273.274L167.188 279.525C167.318 279.549 167.443 279.462 167.466 279.332C167.487 279.218 167.423 279.108 167.32 279.066L167.273 279.053L132.832 272.802Z" fill="#CCD7EE"/>
<path fill-rule="evenodd" clip-rule="evenodd" d="M139.798 297.489L142.293 297.849L186.085 286.754L207.594 214.911L160.726 221.546L139.798 297.489Z" fill="#253368"/>
<path fill-rule="evenodd" clip-rule="evenodd" d="M142.382 297.858L188.562 286.179C188.984 286.073 189.319 285.752 189.445 285.334L210.193 216.296C210.455 215.429 209.728 214.583 208.833 214.711L164.372 221.067C163.886 221.137 163.485 221.49 163.353 221.965L142.382 297.858Z" fill="#4E5C93"/>
<path fill-rule="evenodd" clip-rule="evenodd" d="M75.4894 250.908C75.4894 250.908 73.9785 264.261 61.7857 262.669C49.3532 261.046 51.4087 247.594 51.4087 247.594C51.4087 247.594 51.2438 239.16 52.7096 227.904C53.8553 219.108 55.5081 207.63 56.7765 202.071C58.1455 196.073 63.9265 192.374 69.6375 193.119C78.3157 194.252 80.9023 201.438 80.3875 207.538C79.887 213.469 79.0903 223.23 78.3943 229.755C77.055 242.301 75.4894 250.908 75.4894 250.908Z" fill="#ADC6FF"/>
<path fill-rule="evenodd" clip-rule="evenodd" d="M110.757 268.067C112.362 274.071 125.716 272.033 125.716 272.033L132.261 277.368C133.298 278.085 133.744 277.386 134.307 277.514C135.828 277.861 136.191 276.262 136.191 276.262C136.773 276.132 137.526 276.727 138.083 275.332C138.083 275.332 139.165 275.498 139.535 274.221C139.672 273.746 137.583 267.318 136.336 263.557C135.788 261.905 134.361 260.705 132.642 260.445L116.66 258.036C116.66 258.036 108.597 259.99 110.757 268.067Z" fill="#C99382"/>
<path d="M124.735 267.841C124.552 267.763 124.341 267.848 124.263 268.031C124.193 268.195 124.254 268.383 124.4 268.476L124.452 268.503L129.173 270.522L133.886 277.019C133.989 277.162 134.179 277.206 134.332 277.132L134.388 277.099C134.531 276.995 134.575 276.806 134.501 276.652L134.467 276.596L129.695 270.019C129.67 269.984 129.638 269.954 129.602 269.93L129.545 269.899L124.735 267.841Z" fill="#9B6160"/>
<path d="M127.944 265.86C127.771 265.763 127.552 265.824 127.455 265.997C127.368 266.151 127.407 266.342 127.538 266.451L127.591 266.488L131.925 268.932L135.766 275.658C135.853 275.812 136.037 275.876 136.197 275.819L136.256 275.792C136.41 275.704 136.474 275.521 136.417 275.36L136.39 275.301L132.5 268.488C132.478 268.451 132.45 268.417 132.417 268.39L132.364 268.353L127.944 265.86Z" fill="#9B6160"/>
<path d="M131.053 264.027C130.898 263.903 130.671 263.93 130.548 264.086C130.439 264.224 130.448 264.419 130.56 264.547L130.607 264.591L133.526 266.901L137.031 274.121C137.109 274.282 137.291 274.359 137.457 274.309L137.511 274.288C137.672 274.209 137.748 274.027 137.699 273.861L137.678 273.807L134.136 266.513C134.12 266.481 134.1 266.451 134.075 266.425L134.036 266.388L131.053 264.027Z" fill="#9B6160"/>
<path fill-rule="evenodd" clip-rule="evenodd" d="M68.3741 240.072C68.3741 240.072 54.9292 237.241 52.1979 248.414C49.3812 259.937 62.155 263.252 62.155 263.252C62.155 263.252 71.2004 265.363 82.3367 268.012C89.1368 269.629 96.6809 271.265 102.328 271.666C108.442 272.101 109.825 268.97 111.19 263.383C112.812 256.749 112.808 253.841 107.147 251.568C101.751 249.399 94.1633 247.447 88.3526 245.667C77.2728 242.274 68.3741 240.072 68.3741 240.072Z" fill="#ADC6FF"/>
<path fill-rule="evenodd" clip-rule="evenodd" d="M114.007 270.762L117.165 257.842L108.674 254.776L105.061 269.556L114.007 270.762Z" fill="#ADC6FF"/>
<path d="M80.2986 214.875C80.0967 214.853 79.9155 214.999 79.894 215.201L79.786 216.135C79.5387 218.155 79.0549 221.553 78.358 226.224L75.9313 242.264C75.9053 242.448 76.0193 242.622 76.1975 242.671C79.4944 243.582 82.8626 244.552 86.2519 245.577L88.5691 246.279L96.2435 248.524L97.4926 248.894C101.351 250.046 104.122 250.965 106.471 251.909C109.232 253.018 110.574 254.257 111.026 256.039C111.051 256.138 111.115 256.221 111.202 256.27L111.257 256.295L116.19 258.075L113.19 270.352L107.832 269.631C107.741 269.618 107.65 269.641 107.575 269.692L107.523 269.735C106.283 270.977 104.512 271.492 101.814 271.3C97.0557 270.961 90.9425 269.798 82.3883 267.774L75.2854 266.089L61.699 262.894C61.5013 262.847 61.3036 262.971 61.2575 263.169C61.2114 263.367 61.3344 263.564 61.5322 263.611L67.4459 264.997C70.3518 265.68 73.3635 266.39 76.4252 267.115L82.723 268.61C91.0515 270.569 97.0471 271.699 101.762 272.034C104.475 272.227 106.385 271.733 107.772 270.51L107.911 270.384L113.419 271.126C113.585 271.149 113.742 271.057 113.806 270.908L113.825 270.849L116.982 257.929C117.022 257.767 116.947 257.601 116.806 257.521L116.75 257.496L111.686 255.667L111.643 255.524C111.065 253.714 109.627 252.426 106.988 251.325L106.745 251.225L106.246 251.028C104.143 250.206 101.696 249.393 98.4687 248.418L95.6643 247.589C94.0612 247.124 90.4258 246.065 88.6087 245.523L87.9208 245.315C84.5204 244.273 81.1343 243.285 77.8126 242.356L76.7063 242.048L79.0329 226.683C79.8836 220.991 80.4272 217.134 80.6251 215.28C80.6467 215.078 80.5005 214.896 80.2986 214.875Z" fill="#597EF7"/>
<path fill-rule="evenodd" clip-rule="evenodd" d="M256.687 295.729C273.387 287.876 283.34 308.471 274.941 319.939C264.692 333.932 259.442 350.034 256.519 354.885C254.053 358.977 247.297 368.954 239.162 364.356C231.675 360.124 235.756 343.513 235.756 343.513C235.756 343.513 236.086 305.417 256.687 295.729Z" fill="#5B8C00"/>
<path fill-rule="evenodd" clip-rule="evenodd" d="M206.458 361.158C200.781 353.543 198.708 342.615 205.045 339.813C211.12 337.126 221.184 343.741 225.846 356.472C230.507 369.203 233.197 378.357 228.637 379.948C221.156 382.559 213.957 371.216 206.458 361.158Z" fill="#5B8C00"/>
<path fill-rule="evenodd" clip-rule="evenodd" d="M266.144 361.736C259.723 369.217 250.456 384.267 244.651 378.996C241.133 375.802 245.836 360.674 258.711 352.443C269.662 345.442 272.565 354.255 266.144 361.736Z" fill="#7CB305"/>
<path fill-rule="evenodd" clip-rule="evenodd" d="M204.698 309.82C207.14 308.187 210.212 307.814 213.015 308.706C216.927 309.952 222.863 313.661 228.738 324.306C236.408 338.205 240.402 353.442 239.612 363.094C239.096 369.406 231.275 372.127 226.899 367.525C224.89 365.411 222.763 362.153 220.683 357.21C212.311 337.32 204.484 324.856 203.55 323.604C201.06 320.265 199.279 313.445 204.698 309.82Z" fill="#7CB305"/>
<path fill-rule="evenodd" clip-rule="evenodd" d="M210.313 317.754C210.396 318.736 209.663 319.599 208.675 319.681C207.687 319.764 206.819 319.034 206.736 318.052C206.653 317.07 207.387 316.207 208.375 316.125C209.363 316.042 210.23 316.772 210.313 317.754Z" fill="white"/>
<path fill-rule="evenodd" clip-rule="evenodd" d="M225.559 325.372C225.642 326.354 224.908 327.217 223.92 327.3C222.932 327.382 222.064 326.653 221.981 325.671C221.899 324.689 222.632 323.826 223.62 323.743C224.608 323.661 225.476 324.39 225.559 325.372Z" fill="white"/>
<path fill-rule="evenodd" clip-rule="evenodd" d="M223.003 345.657C223.098 346.782 222.258 347.77 221.127 347.865C219.996 347.959 219.002 347.124 218.907 345.999C218.812 344.874 219.652 343.886 220.783 343.792C221.915 343.697 222.908 344.533 223.003 345.657Z" fill="white"/>
<path fill-rule="evenodd" clip-rule="evenodd" d="M269.829 315.342C269.829 316.939 268.528 318.232 266.923 318.232C265.317 318.232 264.016 316.939 264.016 315.342C264.016 313.746 265.317 312.452 266.923 312.452C268.528 312.452 269.829 313.746 269.829 315.342Z" fill="white"/>
<path fill-rule="evenodd" clip-rule="evenodd" d="M246.428 324.167C246.428 325.763 245.127 327.057 243.522 327.057C241.916 327.057 240.615 325.763 240.615 324.167C240.615 322.571 241.916 321.278 243.522 321.278C245.127 321.278 246.428 322.571 246.428 324.167Z" fill="white"/>
<path fill-rule="evenodd" clip-rule="evenodd" d="M254.007 343.785C254.007 344.452 253.463 344.993 252.792 344.993C252.121 344.993 251.577 344.452 251.577 343.785C251.577 343.117 252.121 342.577 252.792 342.577C253.463 342.577 254.007 343.117 254.007 343.785Z" fill="white"/>
<path fill-rule="evenodd" clip-rule="evenodd" d="M262.76 359.232C262.76 360.218 261.957 361.017 260.966 361.017C259.974 361.017 259.171 360.218 259.171 359.232C259.171 358.247 259.974 357.448 260.966 357.448C261.957 357.448 262.76 358.247 262.76 359.232Z" fill="white"/>
<path d="M220.838 363.19C221.005 363.032 221.27 363.038 221.429 363.204L221.506 363.286L221.564 363.35C221.669 363.467 221.791 363.607 221.928 363.769C222.317 364.231 222.75 364.782 223.215 365.422C224.541 367.247 225.865 369.424 227.1 371.95C230.625 379.159 232.74 387.721 232.74 397.606C232.74 397.835 232.552 398.022 232.321 398.022C232.09 398.022 231.903 397.835 231.903 397.606C231.903 387.851 229.819 379.413 226.347 372.314C225.134 369.832 223.835 367.696 222.536 365.909C222.11 365.322 221.713 364.813 221.354 364.384L221.287 364.304C221.185 364.183 221.092 364.076 221.009 363.982L220.904 363.866C220.865 363.823 220.838 363.794 220.824 363.779C220.664 363.612 220.67 363.349 220.838 363.19Z" fill="#253368"/>
<path d="M252.457 366.103C252.595 365.918 252.857 365.881 253.043 366.018C253.228 366.156 253.266 366.416 253.128 366.6C251.603 368.63 250.197 370.812 248.903 373.126C246.168 378.016 244.054 383.259 242.484 388.502C241.935 390.338 241.493 392.041 241.15 393.569L241.08 393.883C240.998 394.257 240.927 394.597 240.867 394.903L240.828 395.103L240.758 395.48C240.72 395.707 240.504 395.86 240.276 395.821C240.048 395.783 239.894 395.569 239.933 395.342L239.956 395.208C239.976 395.1 240 394.973 240.029 394.827L240.098 394.48C240.165 394.15 240.243 393.785 240.333 393.388L240.409 393.054C240.745 391.595 241.167 389.987 241.682 388.265C243.268 382.967 245.404 377.669 248.171 372.721C249.483 370.377 250.909 368.163 252.457 366.103Z" fill="#253368"/>
<path d="M259.771 314.19C259.931 314.343 259.942 314.592 259.802 314.758L259.783 314.779C259.775 314.787 259.757 314.806 259.73 314.835L259.628 314.946L259.568 315.012C259.388 315.212 259.178 315.452 258.942 315.733C258.264 316.539 257.508 317.509 256.693 318.644C254.361 321.89 252.027 325.8 249.848 330.378C246.22 337.999 243.394 346.692 241.681 356.464C239.602 368.33 239.257 381.293 240.96 395.361C240.987 395.59 240.823 395.797 240.594 395.824C240.364 395.852 240.156 395.689 240.128 395.461C238.416 381.311 238.763 368.267 240.857 356.321C242.582 346.473 245.431 337.709 249.091 330.022C251.292 325.398 253.651 321.446 256.012 318.16L256.195 317.907C256.923 316.905 257.603 316.033 258.222 315.292L258.3 315.2C258.522 314.935 258.722 314.705 258.897 314.509L258.945 314.457C258.999 314.396 259.048 314.342 259.092 314.296L259.179 314.203C259.339 314.037 259.604 314.031 259.771 314.19Z" fill="#253368"/>
<path d="M223.544 338.865C223.742 338.746 223.999 338.809 224.119 339.005L224.161 339.075C224.194 339.132 224.234 339.199 224.279 339.277L224.344 339.391C224.457 339.587 224.583 339.812 224.722 340.067L224.837 340.279C225.262 341.066 225.729 341.978 226.227 343.011L226.295 343.152C227.92 346.536 229.544 350.493 231.059 354.99C235.301 367.58 237.882 381.871 237.979 397.603C237.98 397.833 237.794 398.02 237.563 398.022C237.332 398.023 237.143 397.838 237.142 397.608C237.046 381.968 234.48 367.764 230.265 355.254C228.788 350.872 227.209 347.008 225.628 343.694L225.54 343.511C224.999 342.385 224.496 341.403 224.043 340.568L223.906 340.318C223.775 340.08 223.657 339.871 223.553 339.691L223.504 339.607L223.403 339.436C223.283 339.24 223.346 338.984 223.544 338.865Z" fill="#253368"/>
<path fill-rule="evenodd" clip-rule="evenodd" d="M255.755 418.245H219.578C217.623 418.245 216.023 416.654 216.023 414.71V388.471C216.023 386.527 217.623 384.936 219.578 384.936H255.755C257.71 384.936 259.31 386.527 259.31 388.471V414.71C259.31 416.654 257.71 418.245 255.755 418.245Z" fill="#253368"/>
</g>
<defs>
<clipPath id="clip0_285_16334">
<rect width="400" height="450" fill="white"/>
</clipPath>
</defs>
</svg>
