<svg width="94" height="66" viewBox="0 0 94 66" fill="none" xmlns="http://www.w3.org/2000/svg">
<g clip-path="url(#clip0_274_65880)">
<path fill-rule="evenodd" clip-rule="evenodd" d="M62.5086 29.3456C61.5328 29.3147 60.7668 28.5014 60.7978 27.5291L60.975 21.9595C61.0059 20.987 61.8221 20.2237 62.7979 20.2546C63.7738 20.2854 64.5398 21.0987 64.5088 22.0711L64.3315 27.6407C64.3006 28.6131 63.4844 29.3764 62.5086 29.3456Z" fill="#E4EBF7"/>
<path fill-rule="evenodd" clip-rule="evenodd" d="M59.3057 51.6928C58.6692 51.753 58.223 52.3455 58.3441 52.9709C58.5514 54.0402 58.8489 55.6882 59.0394 57.2332C59.2102 58.618 59.051 59.5822 59.3438 59.9297C59.6595 60.3043 60.2694 59.9453 60.8013 60.4205C61.3333 60.8957 61.7179 61.2616 63.0811 60.9023C64.6754 60.482 63.2316 60.1137 62.453 59.4662C61.0785 58.323 60.8934 57.7614 60.7827 56.8781C60.5557 55.069 60.5001 53.6689 60.491 52.754C60.4846 52.123 59.9362 51.6333 59.3057 51.6928Z" fill="#FFC999"/>
<path fill-rule="evenodd" clip-rule="evenodd" d="M59.1387 58.5838C59.1387 58.5838 59.379 58.8725 60.1924 59.4669C60.8341 59.9357 61.2501 60.2185 61.5809 60.0573C62.1848 59.7631 62.6531 59.6069 62.6531 59.6069C62.6531 59.6069 63.2398 59.8719 63.686 60.1803C64.132 60.4886 64.1055 61.0307 63.1624 61.2247C62.2193 61.4186 61.6703 61.3887 60.7364 60.7449C59.8024 60.1008 59.4244 60.4036 59.2658 60.0171C59.0181 59.4129 59.1387 58.5838 59.1387 58.5838Z" fill="#253368"/>
<path fill-rule="evenodd" clip-rule="evenodd" d="M56.1525 45.3425L54.1789 38.6288C53.7886 37.2351 54.7228 35.8189 56.1613 35.623C57.4065 35.4533 58.5712 36.2716 58.8293 37.4972L60.2799 44.3842C60.2799 44.3842 60.801 46.3236 58.7375 46.7831C56.7308 47.2302 56.1525 45.3425 56.1525 45.3425Z" fill="#253368"/>
<path fill-rule="evenodd" clip-rule="evenodd" d="M56.1121 44.3077L58.3078 56.5599C58.3602 56.8527 58.6188 57.064 58.9173 57.0582L61.0244 57.016C61.3792 57.0089 61.6524 56.7012 61.6159 56.3492L60.3474 44.1282C60.3474 44.1282 60.2101 42.0427 57.9764 42.2772C55.8928 42.4958 56.1121 44.3077 56.1121 44.3077Z" fill="#253368"/>
<path fill-rule="evenodd" clip-rule="evenodd" d="M58.2915 57.1489L61.7458 57.08C61.819 57.0785 61.8757 57.016 61.8697 56.9433L61.7486 55.4689C61.7431 55.4023 61.6867 55.3515 61.6196 55.3529L57.9486 55.4262C57.8682 55.4277 57.8095 55.5025 57.8275 55.5807L58.1653 57.0508C58.1786 57.1092 58.2312 57.1502 58.2915 57.1489Z" fill="#4E5C93"/>
<path fill-rule="evenodd" clip-rule="evenodd" d="M58.0144 50.0518C57.4533 49.7467 56.7506 49.9888 56.4999 50.5748C56.0712 51.5766 55.3923 53.1083 54.6824 54.495C54.0463 55.7378 53.3728 56.4481 53.4203 56.8993C53.4717 57.3858 54.1787 57.4284 54.3527 58.1189C54.5268 58.8094 54.6399 59.3271 55.9715 59.7894C57.5288 60.3301 56.5391 59.2198 56.2575 58.2492C55.7604 56.5351 55.9222 55.9664 56.3265 55.1727C57.1545 53.5469 57.8947 52.3555 58.4009 51.5923C58.7501 51.0657 58.5705 50.354 58.0144 50.0518Z" fill="#FFC999"/>
<path fill-rule="evenodd" clip-rule="evenodd" d="M54.0064 55.6693C54.0064 55.6693 54.0433 56.0425 54.3837 56.9887C54.6522 57.7351 54.8383 58.2014 55.203 58.2523C55.8686 58.3451 56.3444 58.4768 56.3444 58.4768C56.3444 58.4768 56.6818 59.0237 56.8784 59.528C57.0749 60.0323 56.7485 60.4667 55.858 60.1016C54.9674 59.7363 54.5292 59.4057 54.1168 58.351C53.7045 57.2966 53.2211 57.3367 53.3069 56.9279C53.4409 56.289 54.0064 55.6693 54.0064 55.6693Z" fill="#253368"/>
<path fill-rule="evenodd" clip-rule="evenodd" d="M62.7086 43.7545L61.7557 36.8234C61.5403 35.3925 60.1068 34.4805 58.7136 34.8876C57.5076 35.24 56.7803 36.4613 57.0473 37.6849L58.5487 44.561C58.5487 44.561 58.8686 46.5432 60.9403 46.1222C62.9552 45.7127 62.7086 43.7545 62.7086 43.7545Z" fill="#253368"/>
<path fill-rule="evenodd" clip-rule="evenodd" d="M62.5934 44.78L57.2205 54.9723C57.092 55.216 56.7882 55.3277 56.5042 55.2357L54.4999 54.5867C54.1623 54.4773 53.9833 54.126 54.1123 53.8255L58.5901 43.3916C58.5901 43.3916 59.2783 41.5881 61.3524 42.4439C63.2872 43.2422 62.5934 44.78 62.5934 44.78Z" fill="#253368"/>
<path fill-rule="evenodd" clip-rule="evenodd" d="M56.9765 55.59L53.7781 54.2877C53.7104 54.2601 53.6801 54.1812 53.7119 54.1156L54.3571 52.7833C54.3862 52.7232 54.4572 52.6961 54.5192 52.7213L57.9181 54.1054C57.9927 54.1357 58.0202 54.2265 57.9753 54.293L57.1297 55.5436C57.0961 55.5933 57.032 55.6128 56.9765 55.59Z" fill="#4E5C93"/>
<path fill-rule="evenodd" clip-rule="evenodd" d="M59.6806 41.0629L62.7154 38.1895C62.9738 37.9963 63.1095 37.6806 63.0719 37.3608L63.3248 33.7852L54.6536 33.922L54.6094 37.707C54.6067 37.9424 54.6961 38.1687 54.8581 38.3399C55.3552 38.865 56.6012 39.9087 58.7687 41.0325C59.0628 41.1849 59.4235 41.2714 59.6806 41.0629Z" fill="#253368"/>
<path d="M63.1138 34.8353C63.1407 34.8347 63.1629 34.856 63.1635 34.8827C63.164 34.9068 63.1467 34.9272 63.1237 34.9314L63.1158 34.9322L55.2606 35.0928C55.2337 35.0934 55.2115 35.0721 55.2109 35.0454C55.2105 35.0213 55.2277 35.0009 55.2507 34.9967L55.2586 34.9959L63.1138 34.8353Z" fill="#253368"/>
<path d="M58.5906 33.8599C58.6148 33.8594 58.6352 33.8765 58.6394 33.8995L58.6402 33.9073L58.6622 34.9747C58.6627 35.0015 58.6414 35.0236 58.6146 35.0242C58.5904 35.0247 58.57 35.0075 58.5657 34.9846L58.5649 34.9767L58.543 33.9093C58.5424 33.8826 58.5638 33.8604 58.5906 33.8599Z" fill="#253368"/>
<path fill-rule="evenodd" clip-rule="evenodd" d="M56.0705 14.5298C56.0705 14.5298 55.6002 11.94 58.8969 11.9175C60.7408 12.0282 60.8367 15.0695 60.8367 15.0695C60.8367 15.0695 60.9939 15.7017 60.7833 16.3693C60.5474 17.117 59.8582 17.395 58.9395 17.5196C57.2227 17.5369 56.4892 16.6289 56.4892 16.6289C56.4892 16.6289 55.3129 16.7705 55.3444 15.2861C55.3829 13.909 56.0705 14.5298 56.0705 14.5298Z" fill="#FFC999"/>
<path fill-rule="evenodd" clip-rule="evenodd" d="M56.2594 12.7197C56.3037 13.3901 55.7941 13.9693 55.1212 14.0133C54.4484 14.0573 53.8673 13.5496 53.823 12.8792C53.7787 12.2088 54.2884 11.6296 54.9612 11.5855C55.6339 11.5415 56.2152 12.0492 56.2594 12.7197Z" fill="#253368"/>
<path fill-rule="evenodd" clip-rule="evenodd" d="M60.8253 15.1647C60.8253 15.1647 61.1799 14.4473 61.3657 13.6074C61.5516 12.7676 59.8688 11.2223 59.6466 11.1034C59.4244 10.9844 59.3089 10.8584 57.8765 11.4862C53.5318 11.9451 54.8275 15.8546 54.8275 15.8546C54.8275 15.8546 54.3442 16.2536 54.7027 17.218C55.1144 18.1789 56.4802 18.1239 56.4802 18.1239L56.4263 16.5821C56.4263 16.5821 55.9676 16.6468 55.5857 16.1378C55.2039 15.6288 55.461 14.963 55.6709 14.8959C55.8516 14.7414 56.3314 14.7814 56.3689 15.3495C56.3878 15.6355 56.8919 14.9587 57.0338 13.8557C58.5353 13.4637 58.8467 12.384 58.8467 12.384C58.8467 12.384 58.9667 13.3907 58.7546 13.8318C59.5393 13.5401 59.9382 13.0868 59.7749 12.6436C60.7083 12.9829 60.8253 15.1647 60.8253 15.1647Z" fill="#253368"/>
<path fill-rule="evenodd" clip-rule="evenodd" d="M56.4917 18.3133L56.379 16.0164L59.3856 15.889C59.3856 15.889 59.4774 17.4563 59.5787 18.0879C61.6036 19.0309 57.2378 20.1251 56.1366 18.9846C55.7967 18.6324 56.4917 18.3133 56.4917 18.3133Z" fill="#FFC999"/>
<path fill-rule="evenodd" clip-rule="evenodd" d="M59.0727 14.7843C59.0547 15.3694 58.628 15.8313 58.1194 15.8159C57.611 15.8004 57.2133 15.3135 57.231 14.7284C57.2491 14.1432 57.6757 13.6812 58.1844 13.6968C58.6929 13.7122 59.0906 14.1991 59.0727 14.7843Z" fill="white"/>
<path d="M58.1833 13.6336C57.6376 13.6169 57.1837 14.1081 57.1647 14.7264C57.1459 15.3446 57.569 15.8625 58.1145 15.879C58.6603 15.8956 59.1141 15.4044 59.1331 14.7862C59.152 14.168 58.729 13.6502 58.1833 13.6336ZM58.1794 13.7599C58.6508 13.7742 59.0232 14.2302 59.0064 14.7823C58.9894 15.3345 58.5898 15.767 58.1184 15.7527C57.6472 15.7384 57.2747 15.2824 57.2914 14.7303C57.3082 14.1868 57.6955 13.7593 58.157 13.7596L58.1794 13.7599Z" fill="#4E5C93"/>
<path fill-rule="evenodd" clip-rule="evenodd" d="M61.1116 14.5723C61.0937 15.1575 60.6933 15.6202 60.2171 15.6057C59.741 15.5913 59.3696 15.1052 59.3873 14.52C59.4053 13.9348 59.8058 13.4721 60.2819 13.4866C60.7581 13.501 61.1296 13.9871 61.1116 14.5723Z" fill="white"/>
<path d="M60.2809 13.4234C59.7665 13.4077 59.34 13.9005 59.321 14.5181C59.3022 15.1356 59.6978 15.6533 60.2122 15.6689C60.7266 15.6846 61.1531 15.1918 61.172 14.5742C61.191 13.9568 60.7953 13.439 60.2809 13.4234ZM60.277 13.5498C60.7149 13.563 61.0622 14.0175 61.0452 14.5704C61.0283 15.1233 60.6539 15.5559 60.2161 15.5425C59.7782 15.5293 59.431 15.0749 59.4477 14.5219C59.4645 13.9779 59.8272 13.5504 60.2559 13.5495L60.277 13.5498Z" fill="#4E5C93"/>
<path d="M59.2434 14.9127C59.2594 14.8957 59.2849 14.8931 59.3038 14.9053L59.3106 14.9106L59.6666 15.2439C59.684 15.2602 59.6863 15.2863 59.6733 15.3052L59.6677 15.312L59.3268 15.6517C59.3082 15.6702 59.2781 15.6702 59.2595 15.6517C59.243 15.6352 59.2411 15.6097 59.254 15.5912L59.2595 15.5847L59.5658 15.2795L59.2455 14.9797C59.2284 14.9638 59.2258 14.9383 59.2381 14.9194L59.2434 14.9127Z" fill="#DD936F"/>
<path d="M58.5717 15.8725C58.5788 15.8384 58.6124 15.8164 58.6467 15.8236L58.681 15.8302L58.6937 15.8325C58.7314 15.8394 58.7729 15.8462 58.817 15.8526C58.9089 15.8659 58.9993 15.8754 59.0834 15.8795C59.2071 15.8855 59.3085 15.8792 59.3776 15.859C59.4112 15.8492 59.4465 15.8685 59.4563 15.902C59.4661 15.9355 59.4468 15.9706 59.4132 15.9803C59.3276 16.0052 59.2138 16.0123 59.0773 16.0057C58.9886 16.0014 58.8944 15.9915 58.7988 15.9777C58.7759 15.9744 58.7538 15.9709 58.7324 15.9675L58.6459 15.9522C58.6349 15.9502 58.6265 15.9485 58.6208 15.9473C58.5865 15.9402 58.5645 15.9067 58.5717 15.8725Z" fill="#F5222D"/>
<path fill-rule="evenodd" clip-rule="evenodd" d="M59.0703 14.5071C59.0703 14.5071 59.2237 14.3899 59.3733 14.4873L59.0703 14.5071Z" fill="white"/>
<path d="M59.0703 14.5071C59.0703 14.5071 59.2237 14.3899 59.3733 14.4873" stroke="#4E5C93" stroke-width="0.224711" stroke-linecap="round" stroke-linejoin="round"/>
<path d="M57.9189 17.3653C58.0459 17.387 58.1905 17.4016 58.3494 17.4097C58.6104 17.423 58.8903 17.4185 59.1601 17.4029L59.2534 17.3969L59.3634 17.3883C59.3896 17.3859 59.4128 17.405 59.4152 17.4311C59.4177 17.4572 59.3984 17.4803 59.3723 17.4827L59.3292 17.4863L59.2601 17.4915C59.2306 17.4935 59.199 17.4956 59.1656 17.4975C58.8927 17.5133 58.6095 17.5179 58.3445 17.5044C58.1821 17.4961 58.0339 17.4811 57.9028 17.4587C57.8769 17.4543 57.8595 17.4298 57.864 17.404C57.868 17.3808 57.8883 17.3644 57.9112 17.3646L57.9189 17.3653Z" fill="#DD936F"/>
<path fill-rule="evenodd" clip-rule="evenodd" d="M58.5439 14.6681C58.5534 14.8119 58.4972 14.9328 58.4186 14.9378C58.3398 14.943 58.2683 14.8306 58.2589 14.6868C58.2494 14.543 58.3054 14.4223 58.3842 14.4171C58.4628 14.4119 58.5345 14.5243 58.5439 14.6681Z" fill="#253368"/>
<path fill-rule="evenodd" clip-rule="evenodd" d="M60.3955 14.5705C60.4049 14.7143 60.3489 14.8351 60.2702 14.8402C60.1915 14.8454 60.1199 14.733 60.1104 14.5892C60.101 14.4453 60.1571 14.3246 60.2358 14.3194C60.3145 14.3143 60.386 14.4266 60.3955 14.5705Z" fill="#253368"/>
<path d="M57.2337 14.7283L56.4062 14.8005" stroke="#4E5C93" stroke-width="0.224711" stroke-linecap="round" stroke-linejoin="round"/>
<path fill-rule="evenodd" clip-rule="evenodd" d="M60.1244 18.6999L59.9811 18.6944C60.073 19.5538 56.8243 19.6268 56.3389 18.6232C56.3266 18.5977 56.3168 18.5737 56.3088 18.5508L55.9135 18.5354L55.5039 33.4773C55.5039 33.4773 58.3139 34.7268 61.0445 33.7569C62.419 21.8443 60.1244 18.6999 60.1244 18.6999Z" fill="#597EF7"/>
<path d="M56.6608 19.7753C56.6721 19.751 56.7011 19.7405 56.7254 19.7518L56.74 19.7583L56.7558 19.7651C56.7814 19.776 56.8115 19.7881 56.8459 19.8012C56.9443 19.8388 57.0569 19.8764 57.1816 19.9115C57.9443 20.1263 58.7495 20.1496 59.5016 19.8582C59.5514 19.8389 59.6008 19.8183 59.6496 19.7963C59.6741 19.7853 59.7029 19.7961 59.714 19.8205C59.725 19.8449 59.7141 19.8736 59.6897 19.8847C59.6392 19.9074 59.5883 19.9287 59.5369 19.9486C58.7621 20.2487 57.9365 20.2248 57.1551 20.0048C57.0275 19.9689 56.9122 19.9303 56.8111 19.8918L56.7706 19.876C56.7578 19.8709 56.7457 19.866 56.7343 19.8612L56.6844 19.8397C56.66 19.8284 56.6495 19.7995 56.6608 19.7753Z" fill="#597EF7"/>
<path fill-rule="evenodd" clip-rule="evenodd" d="M59.5512 18.3043C59.5512 18.3043 60.3485 20.2116 60.4152 27.637C60.4682 33.551 60.1811 43.8732 60.1811 43.8732C60.1811 43.8732 62.764 43.6803 63.288 42.6989C63.8283 41.6871 63.843 34.1871 63.8086 30.4051C63.7464 23.5173 63.9744 21.9592 63.4157 20.4179C62.7717 20.047 61.7525 19.5016 60.7568 18.9604C60.5149 18.829 60.0946 18.4755 59.9409 18.3908C59.5231 18.1608 59.5512 18.3043 59.5512 18.3043Z" fill="#E4EBF7"/>
<path d="M63.2777 21.8459C63.3124 21.8412 63.3443 21.8656 63.3489 21.9002L63.3615 21.998L63.3878 22.2142C63.3967 22.2893 63.4061 22.3703 63.4158 22.4569L63.4346 22.6265C63.4784 23.0282 63.5219 23.4719 63.5628 23.9503C63.7155 25.7357 63.7977 27.5707 63.772 29.3337C63.7715 29.3686 63.7427 29.3965 63.7077 29.396C63.6726 29.3955 63.6447 29.3668 63.6452 29.3319C63.6697 27.6438 63.5952 25.8889 63.4544 24.175L63.4364 23.961C63.3927 23.4496 63.346 22.9779 63.2992 22.555L63.2727 22.3217C63.2653 22.2581 63.2582 22.1981 63.2514 22.142L63.2232 21.9168C63.2186 21.8822 63.243 21.8505 63.2777 21.8459Z" fill="#A3B5D6"/>
<path fill-rule="evenodd" clip-rule="evenodd" d="M52.5798 19.7092C53.5984 19.2504 54.7077 19.0793 55.3538 18.7339C55.7676 18.5125 56.1028 18.2098 56.4266 18.1109C58.3522 27.4138 57.5707 38.9774 57.075 44.3003C54.6345 44.5609 52.2539 42.6989 52.2539 42.6989C52.2539 42.6989 52.4295 34.1718 52.7727 29.3326C53.0581 25.3074 52.3192 19.8265 52.5798 19.7092Z" fill="#E4EBF7"/>
<path d="M56.3641 18.0255C56.3933 18.0063 56.4327 18.0144 56.4519 18.0436C56.4694 18.0701 56.4642 18.1049 56.4412 18.1254L56.4337 18.1311L55.4451 18.7783L55.4426 18.8264L55.4416 18.8474C55.4266 19.196 55.4372 19.6723 55.493 20.2628C55.5717 21.0966 55.7285 22.0117 55.9809 22.9957L56.0083 23.1014C56.0549 23.2792 56.1008 23.4526 56.1503 23.638L56.5082 24.9697C56.6806 25.6149 56.7926 26.0578 56.8915 26.4968C57.0968 27.408 57.2324 28.2657 57.3366 29.3601C57.3399 29.3949 57.3143 29.4257 57.2794 29.429C57.2446 29.4323 57.2136 29.4068 57.2103 29.3721C57.1099 28.3169 56.9802 27.484 56.7867 26.6093L56.7485 26.4398C56.6676 26.0862 56.5761 25.7214 56.4493 25.2417L56.3215 24.7631L56.0612 23.796C55.9986 23.5619 55.9426 23.3509 55.8856 23.1334C55.6153 22.1024 55.4488 21.1449 55.3667 20.2746C55.3104 19.6783 55.2996 19.1962 55.3149 18.8419L55.319 18.7645C55.3198 18.7512 55.3205 18.7422 55.3209 18.7375C55.3222 18.7214 55.3297 18.7065 55.3416 18.6958L55.3492 18.6899L56.3641 18.0255Z" fill="#A3B5D6"/>
<path d="M59.5371 18.1535C59.5541 18.1267 59.588 18.1169 59.6163 18.1293L59.6246 18.1337L60.8612 18.9098C60.8763 18.9192 60.8866 18.9345 60.8898 18.9519L60.8964 18.991L60.9088 19.0727C60.9112 19.0897 60.9137 19.1077 60.9163 19.1266L60.9202 19.1558C60.9428 19.3264 60.9653 19.5349 60.9863 19.7827L60.9969 19.9125C61.1659 22.0534 61.1122 25.2161 60.6846 29.5353C60.6811 29.57 60.6501 29.5954 60.6152 29.592C60.5804 29.5886 60.5549 29.5576 60.5583 29.5229L60.584 29.2603C60.9958 24.9955 61.0373 21.8848 60.8599 19.7933L60.8509 19.6904C60.8327 19.4893 60.8136 19.3169 60.7945 19.1723L60.7797 19.0666L60.7712 19.0111L60.7696 19.0016L59.557 18.2407C59.53 18.2238 59.5202 18.19 59.5327 18.1618L59.5371 18.1535Z" fill="#A3B5D6"/>
<path d="M52.6578 32.4869L54.8351 32.8729C54.8634 32.8779 54.8845 32.9012 54.8871 32.9291L54.8873 32.9376L54.7091 37.4642C54.6926 37.885 54.3141 38.1968 53.8989 38.1376L53.8774 38.1342L52.3573 37.8714C52.3228 37.8655 52.2996 37.8328 52.3056 37.7984C52.3111 37.7669 52.3392 37.7449 52.3704 37.746L52.379 37.7469L53.8991 38.0097C54.2406 38.0688 54.5566 37.8203 54.5813 37.4787L54.5824 37.4592L54.7584 32.9876L52.6355 32.6113C52.6039 32.6057 52.582 32.5777 52.5833 32.5466L52.5842 32.538C52.5898 32.5065 52.618 32.4847 52.6492 32.486L52.6578 32.4869Z" fill="#A3B5D6"/>
<path d="M63.3683 32.6632C63.4019 32.6532 63.4372 32.6722 63.4473 32.7057C63.4565 32.7363 63.4412 32.7684 63.4128 32.7813L63.4047 32.7843L62.3231 33.1071L62.2127 37.8922C62.21 38.0086 62.3248 38.0902 62.433 38.0531L62.4446 38.0487L63.4974 37.6011C63.5296 37.5874 63.5668 37.6024 63.5806 37.6345C63.5932 37.6639 63.5816 37.6975 63.5548 37.7135L63.5471 37.7174L62.4943 38.165C62.3026 38.2464 62.091 38.1084 62.0859 37.904V37.8892L62.1974 33.0583C62.198 33.0339 62.2125 33.0124 62.2342 33.0024L62.2426 32.9992L63.3683 32.6632Z" fill="#A3B5D6"/>
<path fill-rule="evenodd" clip-rule="evenodd" d="M70.0835 28.7545L61.6342 28.8336C61.313 28.8365 61.0806 28.5287 61.1727 28.222L62.954 22.288C63.014 22.0883 63.1975 21.9508 63.4066 21.9489L71.8561 21.8697C72.1772 21.8667 72.4096 22.1746 72.3174 22.4814L70.536 28.4154C70.4762 28.6151 70.2926 28.7524 70.0835 28.7545Z" fill="#A3B5D6"/>
<path fill-rule="evenodd" clip-rule="evenodd" d="M70.4389 28.7545L61.9897 28.8336C61.6684 28.8365 61.4361 28.5287 61.5281 28.222L63.3096 22.288C63.3696 22.0883 63.553 21.9508 63.762 21.9489L72.2115 21.8697C72.5327 21.8667 72.765 22.1746 72.673 22.4814L70.8915 28.4154C70.8316 28.6151 70.6481 28.7524 70.4389 28.7545Z" fill="#253368"/>
<path fill-rule="evenodd" clip-rule="evenodd" d="M71.1693 26.1598C71.1693 26.1598 72.258 25.6984 72.513 25.8286C72.9083 26.0304 72.3191 26.7182 72.3191 26.7182C72.3191 26.7182 72.581 27.0853 72.1915 27.4002C72.1864 27.8498 71.8953 27.954 71.8953 27.954C71.8953 27.954 72.0087 28.3409 71.5881 28.4568C71.1674 28.5727 70.453 28.2157 70.7634 27.7452C70.577 27.3453 70.9325 27.1574 70.9325 27.1574C70.9325 27.1574 70.8223 26.8029 71.1722 26.6282C71.0033 26.422 71.0562 26.2091 71.1693 26.1598Z" fill="#F4B784"/>
<path d="M72.1309 26.4303C72.1566 26.4263 72.1806 26.4438 72.1847 26.4694C72.1883 26.4924 72.1745 26.5141 72.153 26.5212L72.1455 26.523L71.1794 26.6745C71.1537 26.6786 71.1296 26.6611 71.1256 26.6355C71.1219 26.6125 71.1358 26.5907 71.1573 26.5837L71.1647 26.5819L72.1309 26.4303Z" fill="#DD936F"/>
<path d="M70.9383 27.1107L71.7816 27.1914C71.8075 27.1939 71.8265 27.2168 71.824 27.2426C71.8217 27.2658 71.8029 27.2834 71.7803 27.2849L71.7726 27.2848L70.9293 27.204C70.9034 27.2016 70.8845 27.1787 70.8869 27.1529C70.8892 27.1297 70.908 27.1121 70.9306 27.1106L70.9383 27.1107Z" fill="#DD936F"/>
<path d="M70.7748 27.6992L71.5591 27.8504C71.5846 27.8553 71.6013 27.8799 71.5964 27.9053C71.5919 27.9282 71.5715 27.944 71.5489 27.9433L71.5413 27.9425L70.7569 27.7913C70.7314 27.7864 70.7147 27.7618 70.7196 27.7364C70.7241 27.7135 70.7445 27.6977 70.7671 27.6984L70.7748 27.6992Z" fill="#DD936F"/>
<path fill-rule="evenodd" clip-rule="evenodd" d="M51.088 29.2058C50.1449 28.9539 49.5852 27.988 49.8381 27.0483L51.5059 20.846C51.7586 19.9062 52.728 19.3486 53.6709 19.6004C54.6141 19.8523 55.1737 20.8182 54.921 21.7579L53.2531 27.9602C53.0003 28.8999 52.0311 29.4576 51.088 29.2058Z" fill="#E4EBF7"/>
<path fill-rule="evenodd" clip-rule="evenodd" d="M60.8169 29.4488C60.8169 29.4488 59.3449 29.2983 59.1152 28.4596C58.9071 27.6999 59.6425 27.4018 59.6425 27.4018C59.6425 27.4018 60.3264 26.99 61.2046 26.8575C61.7833 26.7702 62.9005 26.7155 62.9875 27.0121C63.1011 27.3989 61.8331 27.3876 61.8263 27.6807C61.8194 27.9817 62.0814 28.0033 62.6604 28.2478C63.0224 28.4007 63.4394 28.4094 63.7214 28.5972C64.2728 28.9644 63.0059 29.858 60.8169 29.4488Z" fill="#FFC999"/>
<path d="M61.8809 28.4535C61.897 28.4328 61.9268 28.4289 61.9476 28.4448L61.9638 28.4565L61.9703 28.4609C61.9901 28.4744 62.0137 28.4895 62.0411 28.5058C62.12 28.5527 62.2132 28.5997 62.3201 28.6436C62.6754 28.7896 63.0913 28.8671 63.5616 28.8397C63.5878 28.8382 63.6103 28.8581 63.6119 28.8842C63.6134 28.9104 63.5934 28.9328 63.5672 28.9343C63.0819 28.9626 62.6518 28.8824 62.2839 28.7313C62.1725 28.6855 62.0752 28.6364 61.9924 28.5872C61.9706 28.5742 61.9509 28.5619 61.9334 28.5504L61.9029 28.5296C61.897 28.5255 61.8926 28.5222 61.8897 28.52C61.8689 28.5041 61.8649 28.4743 61.8809 28.4535Z" fill="#DD936F"/>
<path d="M61.5985 28.9195C61.61 28.8959 61.6385 28.8861 61.6621 28.8976C61.6939 28.913 61.7262 28.9277 61.7588 28.9417C62.0058 29.0479 62.2702 29.1134 62.5391 29.1455C62.7094 29.1659 62.8618 29.1709 62.9861 29.1667L63.0166 29.1654C63.0356 29.1645 63.0485 29.1636 63.0549 29.1631C63.0811 29.1607 63.1042 29.18 63.1065 29.2061C63.1088 29.2321 63.0895 29.2552 63.0634 29.2575L63.0326 29.2595L63.0212 29.2601C62.6391 29.2784 62.1718 29.2226 61.7211 29.0288C61.6872 29.0141 61.6536 28.9988 61.6205 28.9828C61.5969 28.9714 61.5871 28.943 61.5985 28.9195Z" fill="#DD936F"/>
<path d="M61.1283 29.1817C61.1422 29.1594 61.1715 29.1526 61.1938 29.1665L61.2052 29.1731C61.2212 29.1821 61.2468 29.1951 61.2823 29.211C61.3595 29.2458 61.454 29.2806 61.5664 29.3133C61.7964 29.3801 62.0696 29.4285 62.3877 29.4505C62.4139 29.4523 62.4337 29.475 62.4319 29.5011C62.43 29.5272 62.4073 29.5469 62.3811 29.5451C62.0562 29.5226 61.7763 29.473 61.5397 29.4043C61.4231 29.3704 61.3244 29.334 61.2431 29.2974L61.2126 29.2833C61.1798 29.2677 61.1568 29.2552 61.1435 29.2469C61.1212 29.2331 61.1144 29.2039 61.1283 29.1817Z" fill="#DD936F"/>
<path fill-rule="evenodd" clip-rule="evenodd" d="M60.0485 26.4688L59.9601 29.485L51.7083 29.4976C50.7324 29.4693 49.9644 28.6579 49.993 27.6854C50.0214 26.713 50.8357 25.9477 51.8117 25.9761L60.0485 26.4688Z" fill="#E4EBF7"/>
<path d="M52.3591 25.7956L60.0978 26.407C60.1286 26.4095 60.1528 26.4337 60.1558 26.4636L60.1561 26.4719L60.0676 29.4882C60.0667 29.5195 60.0431 29.545 60.0127 29.549L60.0043 29.5496L51.708 29.5608C51.673 29.5609 51.6445 29.5326 51.6445 29.4977C51.6445 29.4657 51.6683 29.4393 51.6993 29.435L51.7079 29.4344L59.9425 29.4232L60.0275 26.5283L52.3491 25.9216C52.317 25.919 52.2925 25.8932 52.2907 25.8622L52.2908 25.8536C52.2934 25.8217 52.3193 25.7972 52.3505 25.7955L52.3591 25.7956Z" fill="#A3B5D6"/>
<path d="M58.7692 26.6006C58.8013 26.6015 58.8272 26.6261 58.8305 26.657L58.8308 26.6656L58.7557 29.2268C58.7547 29.2617 58.7255 29.2892 58.6904 29.2882C58.6584 29.2872 58.6325 29.2627 58.6292 29.2317L58.6289 29.2231L58.704 26.6619C58.705 26.627 58.7342 26.5996 58.7692 26.6006Z" fill="#A3B5D6"/>
<path fill-rule="evenodd" clip-rule="evenodd" d="M7.07874 15.6595C7.07874 15.6595 5.81805 16.494 5.91754 17.1975C6.00771 17.8345 6.83616 17.8296 6.83616 17.8296C6.83616 17.8296 7.4834 17.7521 8.15746 17.479C8.59914 17.3 9.48957 17.0851 9.45864 16.8344C9.41852 16.5076 8.54399 16.8758 8.37408 16.7069C8.02965 16.3646 9.34462 15.6403 9.49478 15.4085C9.78816 14.9552 8.58324 14.6469 7.07874 15.6595Z" fill="#B78376"/>
<path d="M9.37624 15.1931C9.36767 15.1689 9.34106 15.1562 9.31681 15.1647C9.08798 15.2455 8.86357 15.3681 8.64754 15.5213C8.5058 15.6218 8.3761 15.7294 8.26106 15.837C8.22075 15.8747 8.18512 15.9098 8.15451 15.9413L8.12034 15.9773C8.11888 15.9789 8.11759 15.9803 8.11647 15.9816C8.09928 16.0007 8.10086 16.0302 8.12 16.0474C8.13914 16.0646 8.1686 16.063 8.18578 16.0438L8.213 16.0148L8.22134 16.0062C8.25094 15.9757 8.28551 15.9417 8.3247 15.905C8.43683 15.8001 8.56334 15.6952 8.70142 15.5973C8.91087 15.4488 9.12787 15.3302 9.34783 15.2526C9.37208 15.244 9.3848 15.2174 9.37624 15.1931Z" fill="#9B6160"/>
<path d="M9.04485 15.019C9.03736 14.9944 9.01135 14.9805 8.98673 14.988L8.96853 14.994L8.95945 14.9971C8.93798 15.0047 8.91304 15.014 8.88486 15.0254C8.80479 15.0576 8.71453 15.0993 8.6159 15.1513C8.33484 15.2996 8.04253 15.5014 7.75379 15.7649C7.73479 15.7822 7.73344 15.8117 7.75078 15.8307C7.76811 15.8497 7.79757 15.851 7.81658 15.8337C8.09928 15.5758 8.38508 15.3784 8.65937 15.2337C8.75512 15.1832 8.8425 15.1429 8.91967 15.1118C8.93309 15.1064 8.94571 15.1015 8.95749 15.097L9.00509 15.08C9.00903 15.0786 9.01195 15.0777 9.01384 15.0771C9.03845 15.0697 9.05233 15.0436 9.04485 15.019Z" fill="#9B6160"/>
<path d="M8.32663 15.0852C8.31462 15.0624 8.28644 15.0537 8.26369 15.0657C7.98883 15.2109 7.76215 15.3562 7.58063 15.4948C7.52595 15.5365 7.47873 15.5752 7.43872 15.6101L7.41932 15.6273C7.39266 15.6512 7.37502 15.6683 7.366 15.6777C7.34819 15.6962 7.34881 15.7257 7.36737 15.7435C7.38594 15.7613 7.41542 15.7607 7.43323 15.7422L7.44168 15.7337C7.45049 15.725 7.46372 15.7126 7.48151 15.6966C7.52357 15.6589 7.57533 15.616 7.63716 15.5688C7.8146 15.4333 8.03692 15.2908 8.30719 15.1481C8.32994 15.1361 8.33864 15.1079 8.32663 15.0852Z" fill="#9B6160"/>
<path fill-rule="evenodd" clip-rule="evenodd" d="M2.66481 22.9237C2.66481 22.9237 1.30786 24.0828 0.302296 22.9805C-0.734819 21.8438 0.515308 20.6717 0.515308 20.6717C0.515308 20.6717 1.41542 19.8686 2.52036 18.874C3.19504 18.2668 3.95331 17.6113 4.5721 17.2142C5.24219 16.7842 5.59444 17.0547 6.09722 17.6059C6.69428 18.2603 6.87462 18.5917 6.3706 19.2027C5.89017 19.7852 5.14643 20.4796 4.59459 21.0437C3.54232 22.1194 2.66481 22.9237 2.66481 22.9237Z" fill="#ADC6FF"/>
<path fill-rule="evenodd" clip-rule="evenodd" d="M5.96231 16.5905L7.125 17.865L6.3476 18.7425L5.01748 17.2843L5.96231 16.5905Z" fill="#ADC6FF"/>
<path fill-rule="evenodd" clip-rule="evenodd" d="M8.52298 21.0242L8.77537 19.1842L11.2266 19.4036L11.121 21.2684C11.0837 21.9904 10.4585 22.5396 9.73771 22.4835C9.72393 22.4823 9.71026 22.4812 9.69635 22.4802C8.95932 22.4231 8.42238 21.7567 8.52298 21.0242Z" fill="#C99382"/>
<path fill-rule="evenodd" clip-rule="evenodd" d="M7.93331 17.2453C7.93331 17.2453 7.37079 16.4771 6.94749 17.1187C6.54519 17.7282 7.17852 18.6653 7.79681 18.5433C8.11354 17.967 7.93331 17.2453 7.93331 17.2453Z" fill="#C99382"/>
<path fill-rule="evenodd" clip-rule="evenodd" d="M12.2935 17.6332C12.2935 17.6332 12.9828 16.9763 13.2863 17.6825C13.5746 18.3535 12.786 19.1641 12.1989 18.9349C11.9888 18.3119 12.2935 17.6332 12.2935 17.6332Z" fill="#C99382"/>
<path fill-rule="evenodd" clip-rule="evenodd" d="M7.65787 17.3735C7.46113 19.5869 8.50855 20.2698 9.86488 20.3904C11.2211 20.511 12.2777 20.0386 12.5695 17.8102C12.8379 15.7603 11.7143 14.964 10.3581 14.8434C9.00177 14.7228 7.83076 15.4303 7.65787 17.3735Z" fill="#C99382"/>
<path fill-rule="evenodd" clip-rule="evenodd" d="M9.87037 17.8271C9.85162 18.2755 9.47291 18.6239 9.02441 18.6051C8.57603 18.5863 8.22763 18.2075 8.24651 17.7592C8.26526 17.3108 8.64397 16.9625 9.09235 16.9812C9.54085 17 9.88913 17.3787 9.87037 17.8271Z" fill="white"/>
<path d="M9.09609 16.924C9.57618 16.9442 9.94899 17.3495 9.92891 17.8295C9.90883 18.3095 9.50341 18.6824 9.02335 18.6623C8.54335 18.6422 8.17042 18.2367 8.19063 17.7567C8.21038 17.2847 8.60288 16.9163 9.07251 16.9233L9.09609 16.924ZM9.09127 17.0384C8.67448 17.021 8.32248 17.3448 8.30505 17.7616C8.2875 18.1783 8.61133 18.5305 9.02813 18.5479C9.445 18.5653 9.79706 18.2415 9.8145 17.8247C9.83193 17.4079 9.50819 17.0559 9.09127 17.0384Z" fill="#7D4556"/>
<path d="M9.06726 17.4742C8.92979 17.4685 8.83141 17.5314 8.77103 17.6364C8.73764 17.6944 8.72216 17.7515 8.71736 17.792C8.71363 17.8234 8.73606 17.8519 8.76746 17.8556C8.79625 17.859 8.82258 17.8404 8.82964 17.8131L8.83266 17.7958C8.83385 17.7896 8.83568 17.7814 8.83827 17.7719C8.84556 17.745 8.85611 17.7181 8.87029 17.6935C8.91065 17.6233 8.97085 17.5848 9.06246 17.5886C9.14897 17.5923 9.20002 17.6345 9.22905 17.708C9.24512 17.7486 9.2517 17.7914 9.25257 17.8256L9.2526 17.8397C9.25125 17.8719 9.27578 17.8986 9.30738 17.8999C9.33634 17.9011 9.36118 17.8806 9.36615 17.8528L9.36709 17.8422C9.36819 17.7923 9.36052 17.7291 9.33555 17.6659C9.29094 17.553 9.2026 17.4799 9.06726 17.4742Z" fill="#7D4556"/>
<path d="M11.7766 16.892C11.5375 16.7245 11.1715 16.7002 10.6593 16.9018C10.6299 16.9134 10.6154 16.9467 10.627 16.9761C10.6386 17.0055 10.6719 17.02 10.7013 17.0084C11.1796 16.8201 11.5052 16.8417 11.7109 16.9857C11.7447 17.0095 11.7719 17.0346 11.7931 17.0595L11.8052 17.0745C11.8068 17.0767 11.8082 17.0786 11.8094 17.0804L11.8147 17.0885C11.8301 17.116 11.865 17.1258 11.8926 17.1104C11.9202 17.0949 11.93 17.06 11.9145 17.0324C11.8935 16.995 11.8493 16.9429 11.7766 16.892Z" fill="#7D4556"/>
<path d="M8.97628 16.5978C8.82584 16.5875 8.6906 16.6093 8.57528 16.6689C8.54719 16.6835 8.5362 16.718 8.55073 16.7461C8.56526 16.7742 8.59981 16.7852 8.6279 16.7707C8.7228 16.7216 8.83753 16.7031 8.96853 16.712C9.11097 16.7217 9.26522 16.7628 9.42109 16.8256C9.47186 16.846 9.52 16.8676 9.5646 16.8894L9.59738 16.9058C9.62925 16.9221 9.65189 16.9347 9.66359 16.9416C9.69081 16.9577 9.72592 16.9487 9.74202 16.9215C9.75811 16.8942 9.7491 16.8591 9.72188 16.843L9.70233 16.8319L9.6686 16.8138C9.66248 16.8106 9.65612 16.8073 9.64951 16.8039C9.59311 16.775 9.53068 16.7462 9.46384 16.7193C9.29771 16.6525 9.13237 16.6084 8.97628 16.5978Z" fill="#7D4556"/>
<path d="M10.4977 17.1546C10.4759 17.1409 10.4471 17.1475 10.4335 17.1693L10.4217 17.189C10.4153 17.2 10.4076 17.2138 10.3988 17.2303C10.3734 17.278 10.348 17.3312 10.3242 17.3887C10.2602 17.5438 10.22 17.7012 10.2155 17.8527C10.2124 17.957 10.2232 18.0502 10.2489 18.1793L10.2755 18.3108C10.3006 18.4398 10.3008 18.4748 10.2833 18.5181C10.2579 18.5811 10.1724 18.6159 9.98414 18.6196C9.95842 18.6201 9.93799 18.6414 9.9385 18.6671C9.93901 18.6928 9.96028 18.7133 9.986 18.7128C10.2076 18.7083 10.3265 18.6599 10.3697 18.5529L10.3757 18.5371C10.3969 18.4779 10.3946 18.4321 10.3648 18.2819L10.3468 18.1935C10.3177 18.0533 10.3055 17.9595 10.3086 17.8554C10.3128 17.7167 10.3503 17.5698 10.4104 17.4242C10.4328 17.3697 10.457 17.3193 10.481 17.2742L10.4925 17.2531C10.5012 17.2373 10.5081 17.2257 10.5124 17.2187C10.5261 17.1969 10.5195 17.1682 10.4977 17.1546Z" fill="#9B6160"/>
<path d="M9.46305 18.781C9.43759 18.772 9.4096 18.7853 9.40053 18.8107C9.39146 18.8362 9.40475 18.8642 9.43021 18.8732C9.81121 19.009 10.2121 19.0349 10.5694 18.9982L10.6119 18.9935L10.6699 18.9854C10.6735 18.9849 10.6763 18.9844 10.6784 18.984C10.705 18.9792 10.7227 18.9538 10.718 18.9272C10.7132 18.9006 10.6878 18.8829 10.6612 18.8877L10.6442 18.8904L10.6353 18.8917C10.6135 18.8948 10.5881 18.898 10.5594 18.9009C10.2153 18.9362 9.82825 18.9111 9.46305 18.781Z" fill="#7D4556"/>
<path fill-rule="evenodd" clip-rule="evenodd" d="M11.9411 17.9999C11.8961 18.4464 11.4975 18.7718 11.051 18.7268C10.6044 18.6817 10.279 18.2831 10.3241 17.8366C10.3692 17.39 10.7678 17.0646 11.2143 17.1098C11.6608 17.1549 11.9862 17.5534 11.9411 17.9999Z" fill="white"/>
<path d="M11.2214 17.0528C11.6993 17.1011 12.0477 17.5277 11.9994 18.0057C11.9512 18.4837 11.5245 18.832 11.0465 18.7837C10.5686 18.7355 10.2202 18.3088 10.2685 17.8309C10.3167 17.3528 10.7434 17.0044 11.2214 17.0528ZM10.3824 17.8424C10.3405 18.2574 10.643 18.6279 11.058 18.6698C11.4731 18.7117 11.8436 18.4092 11.8855 17.9942C11.9274 17.5791 11.6249 17.2087 11.2099 17.1668C10.7948 17.1247 10.4243 17.4272 10.3824 17.8424Z" fill="#7D4556"/>
<path d="M11.1625 17.6005C11.0226 17.5864 10.9195 17.6461 10.8533 17.7509C10.8189 17.8054 10.8012 17.8591 10.7944 17.8972C10.7888 17.9283 10.8095 17.958 10.8406 17.9636C10.8689 17.9687 10.8961 17.952 10.905 17.9256L10.9108 17.9019C10.9121 17.8973 10.9137 17.8919 10.9157 17.8859C10.924 17.8606 10.9354 17.8353 10.9501 17.8121C10.9946 17.7417 11.0578 17.705 11.151 17.7145C11.2351 17.7229 11.2832 17.7662 11.3085 17.8382C11.322 17.8766 11.3271 17.9179 11.3269 17.9541L11.326 17.9769C11.3228 18.0084 11.3457 18.0364 11.3772 18.0396C11.4087 18.0428 11.4367 18.0199 11.4399 17.9884L11.4407 17.9782C11.4436 17.9243 11.4381 17.8616 11.4165 17.8002C11.3773 17.6887 11.294 17.6138 11.1625 17.6005Z" fill="#7D4556"/>
<path fill-rule="evenodd" clip-rule="evenodd" d="M10.3047 17.6173C10.3047 17.6173 10.0947 17.4818 9.87991 17.5795L10.3047 17.6173Z" fill="white"/>
<path d="M10.3047 17.6173C10.3047 17.6173 10.0947 17.4818 9.87991 17.5795" stroke="#7D4556" stroke-width="0.207183"/>
<path d="M8.68063 20.0305C8.65777 20.0187 8.62967 20.0277 8.61787 20.0506C8.60608 20.0734 8.61504 20.1015 8.6379 20.1133C9.4205 20.5172 10.256 20.5415 11.0115 20.3545C11.0364 20.3483 11.0517 20.323 11.0455 20.2981C11.0393 20.2731 11.0141 20.2579 10.9891 20.2641C10.2536 20.4461 9.44008 20.4225 8.68063 20.0305Z" fill="#9B6160"/>
<path d="M9.81051 19.2707C9.78489 19.2685 9.76227 19.2874 9.75999 19.313C9.75794 19.3361 9.77306 19.3567 9.79479 19.3622L9.80226 19.3635L10.168 19.3961C10.1937 19.3983 10.2163 19.3794 10.2186 19.3538C10.2206 19.3307 10.2055 19.3101 10.1838 19.3045L10.1763 19.3033L9.81051 19.2707Z" fill="#9B6160"/>
<path d="M10.0603 19.7955C10.0371 19.7948 10.0174 19.8111 10.0132 19.8331L10.0123 19.8407L9.99731 20.3475C9.99654 20.3732 10.0168 20.3947 10.0425 20.3955C10.0656 20.3961 10.0853 20.3798 10.0896 20.3578L10.0904 20.3503L10.1054 19.8434C10.1062 19.8177 10.086 19.7962 10.0603 19.7955Z" fill="#9B6160"/>
<path d="M9.85562 19.9296C9.83278 19.9258 9.81106 19.9393 9.80385 19.9606L9.802 19.9679L9.73804 20.3508C9.7338 20.3762 9.75093 20.4002 9.77631 20.4044C9.79914 20.4083 9.82087 20.3948 9.82807 20.3735L9.82992 20.3662L9.89389 19.9833C9.89813 19.9579 9.88099 19.9339 9.85562 19.9296Z" fill="#9B6160"/>
<path d="M10.221 20.0803C10.1979 20.0818 10.1799 20.0999 10.1777 20.1222L10.1775 20.1298L10.1922 20.3593C10.1938 20.385 10.216 20.4045 10.2416 20.4028C10.2647 20.4014 10.2828 20.3833 10.285 20.361L10.2852 20.3534L10.2705 20.1239C10.2689 20.0982 10.2467 20.0787 10.221 20.0803Z" fill="#9B6160"/>
<path d="M9.66597 20.0127C9.64379 20.006 9.62055 20.0167 9.61075 20.0369L9.608 20.0439L9.53025 20.304C9.52288 20.3287 9.53689 20.3546 9.56153 20.362C9.58372 20.3686 9.60696 20.3579 9.61675 20.3378L9.6195 20.3307L9.69726 20.0706C9.70462 20.046 9.69062 20.02 9.66597 20.0127Z" fill="#9B6160"/>
<path d="M13.1505 17.8645C13.0585 17.7375 12.9242 17.7286 12.7808 17.9131C12.7175 18.0286 12.7154 18.1081 12.7515 18.2248L12.7708 18.2838C12.7719 18.2875 12.7729 18.2909 12.7741 18.2951C12.792 18.3593 12.7851 18.4024 12.7359 18.4636C12.7237 18.4787 12.7105 18.4912 12.6964 18.5014C12.6631 18.5254 12.6291 18.5347 12.6024 18.5355L12.5852 18.5354C12.5628 18.537 12.5443 18.5547 12.5422 18.5777C12.5402 18.6008 12.5553 18.6214 12.577 18.627L12.5865 18.6284L12.5884 18.6285C12.6355 18.6307 12.694 18.618 12.7509 18.577C12.7718 18.5619 12.7911 18.5436 12.8085 18.522C12.8732 18.4414 12.8877 18.3712 12.8681 18.2871L12.8586 18.2526C12.8562 18.2449 12.8529 18.235 12.8467 18.2163C12.8111 18.1101 12.8101 18.0536 12.8583 17.9642C12.958 17.8366 13.0182 17.8406 13.075 17.9192C13.092 17.9425 13.1035 17.9664 13.1089 17.981C13.1177 18.0051 13.1445 18.0175 13.1687 18.0087C13.1928 17.9998 13.2052 17.9731 13.1964 17.9489C13.1883 17.927 13.1733 17.896 13.1505 17.8645Z" fill="#9B6160"/>
<path d="M7.28036 17.2634C7.22107 17.2597 7.16818 17.2883 7.12148 17.336C7.09677 17.3612 7.07886 17.3862 7.06849 17.404C7.05552 17.4262 7.06301 17.4547 7.08522 17.4677C7.10743 17.4806 7.13596 17.4731 7.14893 17.4509C7.15576 17.4392 7.16948 17.4201 7.18803 17.4011C7.21767 17.3709 7.24766 17.3547 7.2746 17.3563C7.30911 17.3585 7.34771 17.3891 7.38868 17.4607L7.3967 17.4752L7.40145 17.4903C7.4265 17.575 7.4173 17.6288 7.37659 17.7079L7.34772 17.7617C7.29783 17.8574 7.29265 17.9327 7.34927 18.0365C7.36887 18.0724 7.39375 18.1017 7.42263 18.1247C7.46951 18.1621 7.51669 18.1775 7.55085 18.1805C7.57647 18.1828 7.59909 18.1639 7.60138 18.1383C7.60366 18.1127 7.58474 18.09 7.55912 18.0878C7.54163 18.0862 7.51133 18.0763 7.48073 18.0519C7.46141 18.0365 7.44463 18.0168 7.43105 17.9919C7.39346 17.9229 7.39354 17.8808 7.42346 17.8184L7.44089 17.785C7.44319 17.7808 7.4459 17.7758 7.4492 17.7698C7.51209 17.6544 7.52763 17.5726 7.48091 17.4351L7.47972 17.4329C7.42174 17.324 7.35493 17.268 7.28036 17.2634Z" fill="#9B6160"/>
<path fill-rule="evenodd" clip-rule="evenodd" d="M12.8996 17.3159C13.2763 16.7642 13.1169 16.1884 12.8336 15.9525C12.9719 15.4499 12.7041 14.5133 11.9924 14.3564C11.5537 14.4871 11.0471 14.4595 11.0471 14.4595C11.0471 14.4595 9.90139 13.6555 8.99109 14.4172C8.14016 14.2479 7.61216 15.184 7.65079 15.5384C7.13484 16.0777 7.42784 16.9932 7.42784 16.9932C7.42784 16.9932 7.44933 17.3391 7.56459 17.8246C7.68383 18.3268 7.80928 17.7059 7.82157 17.5665C7.83399 17.4272 8.19257 17.3421 8.13233 16.7047C8.5519 16.4611 8.50296 16.0238 8.50296 16.0238C8.50296 16.0238 8.76168 16.3394 9.60951 16.0169C10.1467 16.5563 11.0725 16.147 11.0725 16.147C11.0725 16.147 11.7562 16.553 12.197 16.3347C12.197 16.3347 12.0498 16.6728 12.3316 17.1893C12.1741 17.6434 12.4977 17.8887 12.3799 18.1591C12.2623 18.4295 12.4929 18.7308 12.6354 18.1818C12.6354 18.1818 13.0419 17.82 12.8996 17.3159Z" fill="#7D4556"/>
<path fill-rule="evenodd" clip-rule="evenodd" d="M6.26711 45.3855C6.10155 42.1393 5.96343 38.7818 5.91449 36.1084C5.91449 36.1084 6.20662 34.1585 7.9876 34.4192C9.73306 34.6747 9.81641 36.8632 9.81641 36.8632L9.39299 45.4988C9.39299 45.4988 9.3084 46.9045 7.74665 46.8204C6.32213 46.7439 6.26711 45.3855 6.26711 45.3855Z" fill="#597EF7"/>
<path fill-rule="evenodd" clip-rule="evenodd" d="M7.7135 53.4044C8.32297 53.2815 8.88761 53.7588 8.86662 54.3801C8.84265 55.095 8.81495 56.0609 8.7993 57.1014C8.78315 58.1722 8.76763 59.0595 8.69112 59.1723C8.35402 59.6692 7.67946 59.8547 6.98665 60.3472C6.4384 60.7371 6.34401 60.9222 5.64485 61.0538C4.65382 61.2404 5.11549 60.8196 6.21471 59.4888C7.19382 58.3031 7.12737 57.7476 7.12737 57.7476L6.94181 54.4021C6.91535 53.924 7.24412 53.4989 7.7135 53.4044Z" fill="#C99382"/>
<path fill-rule="evenodd" clip-rule="evenodd" d="M6.31751 59.1741C5.60221 59.9706 4.7822 60.6004 4.80257 60.9784C4.82282 61.3562 5.12116 61.6972 6.35353 61.2586C7.19688 60.9584 6.9553 60.7777 7.76003 60.2529C8.16196 59.9908 8.30852 60.0189 8.67902 59.7141C8.89129 59.4406 8.79429 58.1134 8.79429 58.1134L7.38468 59.6611C7.38468 59.6611 7.75083 58.9405 7.44914 58.7847C7.14757 58.6289 6.86985 58.5229 6.69223 58.6511C6.51449 58.7791 6.31751 59.1741 6.31751 59.1741Z" fill="#7D4556"/>
<path fill-rule="evenodd" clip-rule="evenodd" d="M6.27591 45.672C6.59512 51.2904 6.83893 56.9148 6.83893 56.9148L8.98185 56.9471L9.44141 45.716C9.44141 45.716 9.2946 44.0298 7.73085 44.0553C6.31988 44.0783 6.27591 45.672 6.27591 45.672Z" fill="#597EF7"/>
<path fill-rule="evenodd" clip-rule="evenodd" d="M13.1454 45.3628C13.3033 42.116 13.4771 38.9567 13.5195 36.2832C13.5195 36.2832 13.179 34.1356 11.3986 34.4005C9.65364 34.6602 9.57564 36.849 9.57564 36.849L10.0198 45.4835C10.0198 45.4835 10.1077 46.8891 11.6692 46.8013C13.0935 46.7212 13.1454 45.3628 13.1454 45.3628Z" fill="#597EF7"/>
<path fill-rule="evenodd" clip-rule="evenodd" d="M11.7155 53.3851C11.1058 53.2637 10.5423 53.7423 10.5646 54.3637C10.5905 55.0784 10.6205 56.0442 10.6386 57.0846C10.6573 58.1554 10.675 59.0428 10.7518 59.1554C11.0901 59.6514 11.7651 59.8352 12.459 60.3262C13.0082 60.7147 13.1033 60.8995 13.8027 61.0294C14.7941 61.2136 14.3314 60.794 13.2291 59.4657C12.2469 58.2826 12.3122 57.7269 12.3122 57.7269L12.4894 54.3809C12.515 53.9028 12.1851 53.4785 11.7155 53.3851Z" fill="#C99382"/>
<path fill-rule="evenodd" clip-rule="evenodd" d="M13.1288 59.1514C13.8459 59.9462 14.6676 60.574 14.6481 60.952C14.6287 61.33 14.3312 61.6717 13.0978 61.236C12.2537 60.9378 12.4949 60.7565 11.6889 60.2337C11.2864 59.9726 11.1398 60.001 10.7685 59.697C10.5557 59.424 10.6493 58.0967 10.6493 58.0967L12.0629 59.6409C12.0629 59.6409 11.6949 58.9213 11.9962 58.7648C12.2975 58.6082 12.5749 58.5016 12.753 58.6293C12.9308 58.757 13.1288 59.1514 13.1288 59.1514Z" fill="#7D4556"/>
<path fill-rule="evenodd" clip-rule="evenodd" d="M13.1367 45.6493C12.8309 51.2684 12.6011 56.8936 12.6011 56.8936L10.458 56.9308L9.97122 45.7008C9.97122 45.7008 10.1141 44.0143 11.6778 44.036C13.0889 44.0555 13.1367 45.6493 13.1367 45.6493Z" fill="#597EF7"/>
<path fill-rule="evenodd" clip-rule="evenodd" d="M8.08895 21.8557L8.24595 21.2786L11.2993 21.362L11.422 21.915C11.422 21.915 13.8862 22.2275 14.2524 23.1434C14.6302 24.0883 13.3273 29.4449 12.9076 30.3775C13.2807 31.1236 13.0103 31.8375 13.0103 31.8375H6.80007C6.80007 31.8375 6.05323 31.6364 6.51949 30.8438C6.27096 29.1525 5.31483 23.4 5.54026 22.4975C5.78867 21.5039 8.08895 21.8557 8.08895 21.8557Z" fill="#ADC6FF"/>
<path d="M13.9185 23.8598C13.8929 23.862 13.8738 23.8845 13.876 23.9101C13.9122 24.3455 13.8827 24.9894 13.8008 25.7854C13.7657 26.1269 13.7218 26.4876 13.6711 26.8595C13.6283 27.1738 13.5828 27.4808 13.5369 27.7709L13.4973 28.0173L13.451 28.2918C13.4465 28.3171 13.4634 28.3413 13.4888 28.3457C13.5141 28.3502 13.5383 28.3333 13.5427 28.308L13.5751 28.1179C13.5842 28.0628 13.5939 28.0039 13.604 27.9413L13.6117 27.8936C13.6634 27.5715 13.7152 27.2264 13.7634 26.8721C13.8142 26.4993 13.8582 26.1376 13.8935 25.795L13.9057 25.6729C13.9787 24.9276 14.0037 24.3223 13.9688 23.9024C13.9667 23.8768 13.9442 23.8577 13.9185 23.8598Z" fill="#9B6160"/>
<path d="M8.33402 21.9165C8.30924 21.9096 8.28355 21.9241 8.27665 21.9489C8.26975 21.9737 8.28424 21.9994 8.30902 22.0063C8.58621 22.0835 8.90576 22.1342 9.25955 22.1616C9.78753 22.2024 10.3519 22.1896 10.8952 22.1437L10.9861 22.1356C11.0451 22.1302 11.1006 22.1246 11.1524 22.1189L11.2336 22.1097L11.2995 22.1014C11.325 22.098 11.3429 22.0745 11.3394 22.049C11.3359 22.0235 11.3125 22.0057 11.287 22.0091L11.2226 22.0172L11.18 22.0221C11.0936 22.0319 10.9954 22.0417 10.8874 22.0509C10.3486 22.0964 9.78901 22.1091 9.26674 22.0687C8.91855 22.0418 8.6048 21.9919 8.33402 21.9165Z" fill="#597EF7"/>
<path fill-rule="evenodd" clip-rule="evenodd" d="M5.88852 36.3223C6.08675 34.224 6.39478 33.1215 6.63015 32.7273C11.6873 32.8718 12.9471 32.8054 12.9471 32.8054C12.9471 32.8054 13.5042 33.9057 13.5664 36.3689C13.5664 36.3689 11.6746 38.6693 9.66536 38.6693C7.85395 38.6693 5.88852 36.3223 5.88852 36.3223Z" fill="#597EF7"/>
<path fill-rule="evenodd" clip-rule="evenodd" d="M6.62835 32.8514L6.72399 31.8998L12.9165 31.8499L12.9453 32.803C12.9453 32.803 9.66803 33.0534 6.62835 32.8514Z" fill="#597EF7"/>
<path d="M9.86706 32.7316C9.84075 32.7313 9.81915 32.7523 9.8188 32.7786L9.79948 34.1708C9.79433 34.5282 9.78907 34.884 9.78375 35.233L9.76158 36.6208L9.73921 37.8591C9.73358 38.145 9.72823 38.395 9.72317 38.606C9.72254 38.6323 9.74335 38.6542 9.76965 38.6548C9.79595 38.6554 9.81778 38.6346 9.81841 38.6083L9.83111 38.0283L9.85253 36.875L9.8656 36.0899C9.87279 35.6443 9.87994 35.1792 9.88694 34.7065L9.91406 32.7799C9.9144 32.7536 9.89336 32.732 9.86706 32.7316Z" fill="#253368"/>
<path d="M8.9861 32.7777C8.9598 32.7772 8.93803 32.7981 8.93749 32.8244L8.92762 33.3621L8.92166 33.7385C8.91694 34.0565 8.91307 34.3693 8.91034 34.6693L8.90746 35.0479C8.90404 35.6233 8.90587 36.0978 8.91428 36.4431C8.95121 36.7844 9.13726 36.9879 9.42001 37.0767C9.57274 37.1246 9.73288 37.1337 9.8761 37.1207L9.89838 37.1185C9.90809 37.1174 9.91561 37.1164 9.92074 37.1156C9.94673 37.1114 9.96446 37.087 9.96034 37.0611C9.95623 37.0351 9.93183 37.0174 9.90585 37.0215L9.88721 37.0239C9.88158 37.0245 9.875 37.0252 9.86752 37.0258C9.73573 37.0378 9.58742 37.0294 9.44855 36.9858C9.20018 36.9078 9.04161 36.7344 9.00925 36.4368L9.00559 36.2486C9.00022 35.9022 8.9998 35.4528 9.00354 34.9237L9.0056 34.6701C9.00794 34.4132 9.01111 34.1468 9.01494 33.8758L9.02532 33.221L9.03273 32.8264C9.03328 32.8001 9.0124 32.7783 8.9861 32.7777Z" fill="#253368"/>
<path d="M7.17968 32.9096C7.15338 32.9091 7.13172 32.9301 7.1313 32.9564L7.13023 32.9899C7.12976 33.0009 7.12912 33.014 7.12828 33.029C7.12499 33.0874 7.1197 33.1525 7.11197 33.2227C7.08988 33.4232 7.05268 33.6235 6.99692 33.81C6.86915 34.2374 6.66499 34.5249 6.37244 34.6135C6.34726 34.6212 6.33303 34.6478 6.34066 34.6729C6.34829 34.6981 6.37488 34.7123 6.40006 34.7047C6.73032 34.6046 6.95221 34.2922 7.08819 33.8373C7.14577 33.6447 7.18399 33.4389 7.20666 33.2332C7.21459 33.1612 7.22001 33.0944 7.22339 33.0343L7.22656 32.9579C7.22697 32.9316 7.20598 32.91 7.17968 32.9096Z" fill="#253368"/>
<path d="M12.389 33.0197C12.3653 33.0195 12.3455 33.0367 12.3417 33.0593L12.341 33.067L12.341 33.0837C12.3412 33.1469 12.3441 33.2394 12.3518 33.3518C12.3654 33.5481 12.3901 33.7437 12.4288 33.9267C12.5304 34.4068 12.7098 34.7244 12.9951 34.7984C13.0206 34.805 13.0466 34.7897 13.0532 34.7642C13.0598 34.7387 13.0445 34.7127 13.019 34.7061C12.7804 34.6443 12.6167 34.3546 12.522 33.907C12.4843 33.7288 12.4601 33.5374 12.4469 33.3452L12.4435 33.2918C12.4389 33.2144 12.4369 33.1489 12.4364 33.0994L12.4363 33.0677C12.4364 33.0414 12.4153 33.0199 12.389 33.0197Z" fill="#253368"/>
<path d="M6.73819 31.852C6.71188 31.852 6.69056 31.8733 6.69056 31.8996C6.69056 31.9233 6.70783 31.9429 6.73046 31.9466L6.73819 31.9472H12.9485C12.9748 31.9472 12.9961 31.9259 12.9961 31.8996C12.9961 31.8759 12.9788 31.8563 12.9562 31.8526L12.9485 31.852H6.73819Z" fill="#253368"/>
<path d="M6.61398 32.7214C6.58768 32.7214 6.56635 32.7427 6.56635 32.769C6.56635 32.7927 6.58363 32.8123 6.60626 32.816L6.61398 32.8167H12.9485C12.9748 32.8167 12.9961 32.7953 12.9961 32.769C12.9961 32.7453 12.9788 32.7257 12.9562 32.722L12.9485 32.7214H6.61398Z" fill="#253368"/>
<path fill-rule="evenodd" clip-rule="evenodd" d="M14.8642 23.708C14.8642 23.708 14.3647 22.0426 12.8468 22.5257C11.299 23.0184 11.8702 24.6839 11.8702 24.6839C11.8702 24.6839 12.2007 25.8509 12.6462 27.2504C12.9943 28.3439 13.2572 29.1844 13.5467 29.8631C13.8589 30.5952 14.6369 31.0206 15.3478 30.7943C16.4283 30.4504 16.6658 29.6532 16.4601 28.8883C16.26 28.1446 15.9592 27.1494 15.7206 26.3346C15.2615 24.7679 14.8642 23.708 14.8642 23.708Z" fill="#ADC6FF"/>
<path fill-rule="evenodd" clip-rule="evenodd" d="M10.7387 43.2549L16.8823 42.9761C17.0451 42.9687 17.1711 42.8307 17.1638 42.6679L16.968 38.3564C16.9607 38.1936 16.8227 38.0675 16.6599 38.0748L10.5164 38.3537C10.3535 38.3611 10.2275 38.499 10.2348 38.6619L10.4306 42.9735C10.4379 43.1363 10.5759 43.2623 10.7387 43.2549Z" fill="#4E5C93"/>
<path fill-rule="evenodd" clip-rule="evenodd" d="M10.9458 43.2454L17.0892 42.9666C17.252 42.9591 17.3781 42.8212 17.3708 42.6583L17.175 38.3468C17.1677 38.1841 17.0296 38.058 16.8669 38.0654L10.7233 38.3442C10.5604 38.3516 10.4344 38.4895 10.4417 38.6525L10.6376 42.964C10.6449 43.1268 10.7828 43.2528 10.9458 43.2454Z" fill="#253368"/>
<path fill-rule="evenodd" clip-rule="evenodd" d="M13.4285 38.2225C13.8092 38.1947 14.1104 38.2225 14.2726 38.2152C14.6912 38.1964 14.5755 39.6007 14.6595 39.8221C14.7873 40.1589 15.579 39.9665 15.8837 38.7012C15.9704 38.3415 15.9459 37.8054 15.9464 37.2958C15.9464 37.2958 15.8416 36.0718 15.352 36.0019C14.9273 35.9411 14.5691 36.3947 14.5691 36.3947C14.5691 36.3947 14.1183 37.0251 13.8876 37.5982L13.4285 38.2225Z" fill="#C99382"/>
<path d="M14.9472 38.5372C14.9218 38.5415 14.9048 38.5656 14.9091 38.5909L14.9158 38.6365L14.922 38.6843C14.9251 38.7095 14.9281 38.7367 14.931 38.7657C14.9639 39.0939 14.9643 39.4528 14.9107 39.8024C14.9068 39.8279 14.9242 39.8516 14.9497 39.8555C14.9751 39.8594 14.9989 39.842 15.0028 39.8166C15.0577 39.4581 15.0573 39.0918 15.0237 38.7564L15.0176 38.6995C15.0155 38.6814 15.0134 38.6641 15.0113 38.6477L15.0009 38.5753C14.997 38.5525 14.9772 38.5364 14.9547 38.5365L14.9472 38.5372Z" fill="#9B6160"/>
<path d="M15.3459 38.4025C15.3208 38.4079 15.3047 38.4327 15.3101 38.4578C15.3921 38.8417 15.3746 39.1931 15.296 39.4945C15.2844 39.5393 15.272 39.5798 15.2596 39.6158L15.2503 39.642C15.2411 39.6669 15.2341 39.6836 15.2303 39.6917C15.2195 39.715 15.2296 39.7427 15.2529 39.7535C15.2762 39.7644 15.3039 39.7543 15.3148 39.731L15.3242 39.709C15.3268 39.7027 15.3297 39.6954 15.3328 39.6872L15.3377 39.6742C15.3543 39.6293 15.3708 39.577 15.3862 39.518C15.4682 39.2033 15.4864 38.8374 15.4012 38.4383C15.3964 38.4157 15.3758 38.4005 15.3534 38.4015L15.3459 38.4025Z" fill="#9B6160"/>
<path d="M15.7081 38.1581C15.6825 38.1609 15.664 38.1839 15.6668 38.2095L15.6692 38.2367C15.6699 38.246 15.6706 38.2571 15.6713 38.2701C15.6845 38.5008 15.6735 38.8108 15.6199 39.1856C15.6163 39.2111 15.634 39.2347 15.6595 39.2383C15.6849 39.2419 15.7085 39.2242 15.7121 39.1988C15.7643 38.8342 15.7768 38.5291 15.766 38.2961L15.7628 38.2399C15.7615 38.2212 15.7603 38.2076 15.7594 38.1994C15.7569 38.1764 15.738 38.1591 15.7156 38.1579L15.7081 38.1581Z" fill="#9B6160"/>
<path fill-rule="evenodd" clip-rule="evenodd" d="M13.5164 30.0509C13.5164 30.0509 13.5756 28.2675 15.0675 28.2681C16.6063 28.2688 16.6289 29.9823 16.6289 29.9823C16.6289 29.9823 16.615 31.1884 16.6043 32.675C16.598 33.5827 16.5707 34.5847 16.4466 35.3093C16.3123 36.094 15.875 36.1718 15.1289 36.1714C14.243 36.171 13.8768 36.0806 13.7655 35.2965C13.6592 34.5488 13.6479 33.5316 13.6034 32.7437C13.5187 31.2414 13.5164 30.0509 13.5164 30.0509Z" fill="#ADC6FF"/>
<path fill-rule="evenodd" clip-rule="evenodd" d="M15.8753 36.9411L14.15 36.9404L14.0263 35.7746L16 35.7755L15.8753 36.9411Z" fill="#ADC6FF"/>
<path fill-rule="evenodd" clip-rule="evenodd" d="M7.40189 22.3447C7.40189 22.3447 9.00178 22.9702 8.29741 24.5952C7.57913 26.252 5.98967 25.5486 5.98967 25.5486C5.98967 25.5486 4.86586 25.1315 3.52519 24.5776C2.47764 24.145 1.67167 23.8175 1.03238 23.4694C0.342299 23.0936 0.0276852 22.2273 0.357575 21.4663C0.858868 20.3096 1.69365 20.0914 2.43168 20.3529C3.14947 20.6073 4.1051 20.9836 4.88871 21.2836C6.39532 21.8602 7.40189 22.3447 7.40189 22.3447Z" fill="#ADC6FF"/>
<path d="M5.82371 25.0622L5.81614 25.0623C5.79054 25.0648 5.77182 25.0876 5.77434 25.1132L5.84412 25.8074L5.86547 26.0159C5.92926 26.6364 5.99513 27.2569 6.06014 27.8428L6.07784 28.0016C6.09731 28.1756 6.11644 28.3439 6.13518 28.5061L6.18122 28.8986C6.30614 29.947 6.40388 30.6239 6.46779 30.8339L6.46989 30.8405L6.4647 30.851C6.25508 31.287 6.3014 31.6022 6.51267 31.8074L6.52638 31.8203C6.59954 31.8875 6.67279 31.9265 6.72359 31.9437C6.74795 31.952 6.7744 31.939 6.78267 31.9146C6.79094 31.8903 6.7779 31.8638 6.75354 31.8555L6.74181 31.851C6.73225 31.847 6.71936 31.841 6.70399 31.8328C6.66496 31.812 6.62583 31.7852 6.58939 31.7517C6.39334 31.5716 6.34991 31.2884 6.56175 30.8646C6.56747 30.8532 6.56823 30.8399 6.56386 30.8279L6.55854 30.8122C6.49519 30.6135 6.38966 29.8737 6.25575 28.7359L6.20506 28.298C6.19365 28.1979 6.18209 28.0956 6.17042 27.9913L6.13498 27.6719C6.09355 27.2955 6.05187 26.9062 6.01071 26.5132L5.93679 25.7979L5.86704 25.1041C5.86478 25.0811 5.84609 25.0636 5.82371 25.0622Z" fill="#597EF7"/>
<path d="M13.8895 24.829C13.8638 24.8277 13.8419 24.8474 13.8405 24.8731L13.8331 24.9902L13.8248 25.1049C13.8197 25.1722 13.8139 25.2456 13.8071 25.3247L13.7941 25.4719C13.7646 25.7957 13.7262 26.1526 13.6776 26.5366C13.5176 27.8024 13.2818 29.1031 12.956 30.3658C12.953 30.3772 12.9545 30.3894 12.9602 30.3997C13.0402 30.5464 13.0731 30.7482 13.0655 30.9911C13.0596 31.1777 13.0304 31.3782 12.9853 31.5801C12.971 31.6439 12.956 31.7043 12.9408 31.7603L12.9213 31.8292C12.9138 31.8549 12.9079 31.8738 12.9042 31.8851C12.8961 31.9095 12.9094 31.9358 12.9338 31.9439C12.9583 31.9519 12.9846 31.9386 12.9926 31.9142L13.009 31.861C13.0122 31.8503 13.0155 31.8389 13.0189 31.8268C13.0385 31.7581 13.058 31.682 13.0762 31.6004C13.1225 31.3932 13.1525 31.1872 13.1586 30.994C13.1663 30.7489 13.1347 30.5406 13.0549 30.3801L13.0506 30.3716L13.0883 30.2236C13.3797 29.0641 13.5961 27.8758 13.7487 26.7141L13.77 26.5483L13.7918 26.3725C13.8339 26.0249 13.8675 25.7011 13.8936 25.4059L13.9076 25.2401C13.9125 25.1802 13.9169 25.1241 13.9207 25.0719L13.9297 24.9405L13.9335 24.878C13.9349 24.8523 13.9152 24.8304 13.8895 24.829Z" fill="#597EF7"/>
<path fill-rule="evenodd" clip-rule="evenodd" d="M39.8945 29.8999C42.9407 28.8797 45.0007 27.3414 45.3469 26.0996C45.7309 24.7222 45.475 22.6053 42.6335 22.9877C41.3297 23.1634 39.8057 24.8593 38.8366 26.1761C37.9918 27.3238 37.2622 28.3568 37.2622 28.3568C37.2622 28.3568 36.8739 29.0838 37.1043 29.4919C37.3347 29.8999 37.0275 30.2443 37.6674 31.035C37.9184 31.3452 37.5138 31.5068 38.3074 31.7363C38.7195 31.8556 39.6769 31.1497 39.8945 29.8999Z" fill="#FFC2BD"/>
<path fill-rule="evenodd" clip-rule="evenodd" d="M28.9024 25.9669C28.9024 25.9669 24.2576 16.6304 24.7018 15.7451C25.1461 14.8596 28.4253 12.869 33.382 13.209C38.3602 13.5504 40.1009 15.5655 40.1009 15.5655C40.1009 15.5655 38.821 21.483 37.7475 25.3229C38.3129 26.329 37.2851 27.0432 37.2851 27.0432C37.2851 27.0432 30.8331 26.746 29.2983 26.8265C28.5816 26.5204 28.9024 25.9669 28.9024 25.9669Z" fill="#597EF7"/>
<path fill-rule="evenodd" clip-rule="evenodd" d="M38.3573 33.7769L32.8416 36.3176L27.1836 34.0958C27.1836 34.0958 27.8747 29.8107 29.1611 27.8212C29.3658 27.26 29.449 26.8393 29.449 26.8393C29.449 26.8393 34.5175 26.074 37.2822 27.0432L37.3846 27.9615C37.3846 27.9615 37.8228 29 38.0501 29.9509C38.4341 31.5579 38.3573 33.7769 38.3573 33.7769Z" fill="#4E5C93"/>
<path fill-rule="evenodd" clip-rule="evenodd" d="M27.3472 33.4099C27.3472 33.4099 31.3097 27.5151 33.2297 35.0905C28.5663 51.3507 27.7987 53.9169 27.7987 53.9169C27.7987 53.9169 27.8331 55.2942 26.9116 55.8298H23.6862C23.6862 55.8298 22.4574 55.0648 24.0702 53.3048C26.8348 36.1646 27.3472 33.4099 27.3472 33.4099Z" fill="#4E5C93"/>
<path fill-rule="evenodd" clip-rule="evenodd" d="M38.3587 33.5218C38.3587 33.5218 35.6845 32.7213 32.843 36.3177C32.5991 53.1106 32.3571 53.4828 32.3571 53.4828C32.3571 53.4828 31.6487 54.971 32.647 55.7362H35.9743C35.9743 55.7362 36.8363 54.7586 36.4523 53.6874C38.2187 38.9193 38.3587 33.5218 38.3587 33.5218Z" fill="#4E5C93"/>
<path fill-rule="evenodd" clip-rule="evenodd" d="M21.1967 60.8904H25.492L27.0618 55.6787H23.7057L23.1297 59.1555L21.085 60.5253C20.9209 60.6352 20.999 60.8904 21.1967 60.8904Z" fill="#253368"/>
<path fill-rule="evenodd" clip-rule="evenodd" d="M32.663 55.6544L35.8387 55.6695L35.3268 58.9519L36.9759 60.4304C37.1564 60.5922 37.0414 60.8905 36.7988 60.8905H32.4258L32.663 55.6544Z" fill="#253368"/>
<path fill-rule="evenodd" clip-rule="evenodd" d="M29.9102 12.5047L30.1657 8.06226H34.3894L34.3854 12.8618L33.174 15.1574L29.9102 12.5047Z" fill="#FFC2BD"/>
<path fill-rule="evenodd" clip-rule="evenodd" d="M31.5396 5.5882C31.5396 5.5882 33.8947 4.97602 34.5346 6.0728C35.157 7.13951 35.2001 10.9955 33.9715 11.5821C32.9699 12.0603 30.9252 11.8372 30.4389 9.97529C30.4389 9.97529 30.0293 8.54684 30.1829 7.27156C30.3364 5.99628 31.5396 5.5882 31.5396 5.5882Z" fill="#FFC2BD"/>
<path fill-rule="evenodd" clip-rule="evenodd" d="M30.441 8.85297C30.441 8.85297 29.801 7.62862 29.3147 8.29185C28.8283 8.95496 29.6474 10.1793 30.3642 10.1283C31.0809 10.0773 30.441 8.85297 30.441 8.85297Z" fill="#FFC2BD"/>
<path fill-rule="evenodd" clip-rule="evenodd" d="M34.9428 8.29185C34.9428 8.29185 35.25 6.81247 34.8917 5.89421C34.5332 4.97595 34.0724 4.05781 33.7397 4.54241C33.6884 4.31284 33.3813 3.85371 33.151 3.70067C32.9205 3.54763 32.2037 4.54241 32.2037 4.54241C32.2037 4.54241 32.255 4.08328 31.9733 4.3639C31.6918 4.6444 29.9767 5.5116 29.6952 5.97073C29.4135 6.42986 29.5631 8.11769 29.5631 8.11769C29.5631 8.11769 30.1136 8.06663 30.4079 9.11247C30.3311 8.27073 30.6828 7.83079 30.8633 7.66339C30.9317 7.5999 30.9709 7.51167 30.9781 7.41885C30.9917 7.24058 31.0118 6.94126 31.0193 6.64881C31.0227 6.5199 31.1172 6.41333 31.2447 6.39136C32.5425 6.16735 33.9692 6.36879 34.4774 6.45606C34.5922 6.47573 34.6803 6.5677 34.6955 6.68284L34.8236 7.63949C34.8236 7.63949 34.8917 7.80714 34.9428 8.29185Z" fill="#253368"/>
<path d="M31.7824 7.95116C31.7932 7.94831 31.8043 7.94724 31.8153 7.94795L31.8263 7.94926L32.6566 8.09385C32.7122 8.10355 32.7494 8.15636 32.7397 8.21181C32.7306 8.2638 32.6834 8.29965 32.6317 8.29594L32.6213 8.29467L31.8133 8.15388L31.402 8.26284C31.3509 8.27639 31.2984 8.24878 31.2801 8.20045L31.2769 8.19051C31.2633 8.13951 31.291 8.08726 31.3395 8.06901L31.3495 8.06582L31.7824 7.95116Z" fill="#253368"/>
<path d="M34.3053 7.86176C34.3194 7.85802 34.3342 7.85735 34.3485 7.85975L34.3591 7.86211L34.6792 7.95131C34.7336 7.96647 34.7654 8.02271 34.7501 8.07693C34.7359 8.12775 34.6854 8.15875 34.6343 8.14993L34.6241 8.14763L34.3309 8.06584L33.5387 8.27556C33.4875 8.28911 33.4351 8.26148 33.4168 8.21315L33.4136 8.20321C33.4 8.1522 33.4277 8.09995 33.4762 8.08172L33.4862 8.07853L34.3053 7.86176Z" fill="#253368"/>
<path fill-rule="evenodd" clip-rule="evenodd" d="M30.4782 9.34395C30.4782 9.34395 31.1397 9.85848 31.4853 10.3941C31.9653 9.80115 32.471 9.54599 32.471 9.54599C32.471 9.54599 33.0508 9.97519 33.358 9.84134C33.4539 9.72656 33.4437 9.60984 33.4437 9.60984C33.4437 9.60984 33.962 9.80115 34.3267 10.3368C34.4804 9.95419 34.9131 9.45873 34.9131 9.45873C34.9131 9.45873 35.0052 11.9564 33.162 11.9946C31.2997 11.9946 30.679 10.968 30.4679 10.1071C30.4191 9.83736 30.3439 9.15264 30.4782 9.34395Z" fill="#EFADAB"/>
<path d="M32.0331 10.0008C32.0496 9.95886 32.0971 9.93827 32.1392 9.95478L32.1679 9.96541C32.1804 9.9699 32.196 9.97526 32.2142 9.98133C32.2755 10.0018 32.3444 10.0222 32.4192 10.0413C32.6722 10.106 32.9275 10.1395 33.1635 10.1253C33.2785 10.1184 33.3858 10.1001 33.4839 10.0695C33.527 10.0561 33.5729 10.08 33.5864 10.123C33.5999 10.166 33.5758 10.2117 33.5327 10.2252C33.4213 10.2599 33.301 10.2804 33.1734 10.288C32.918 10.3034 32.6467 10.2678 32.3785 10.1993C32.2998 10.1792 32.2272 10.1576 32.1623 10.136L32.1153 10.1198L32.0792 10.1065C32.0372 10.09 32.0165 10.0427 32.0331 10.0008Z" fill="#D18888"/>
<path d="M33.2999 8.18066C33.3304 8.18342 33.3536 8.20831 33.3549 8.23801L33.3547 8.24621L33.3299 8.51757L33.3469 8.59821L33.3514 8.62046C33.3689 8.70728 33.3865 8.80021 33.4028 8.89555C33.4197 8.99384 33.4343 9.08921 33.4462 9.17968L33.4542 9.24365C33.4968 9.59814 33.4888 9.81675 33.3957 9.88895C33.3055 9.95887 33.1494 9.93455 32.9338 9.84934C32.88 9.82805 32.8236 9.80321 32.7656 9.77551C32.6968 9.74267 32.6291 9.70754 32.5654 9.67242L32.4913 9.63041C32.4875 9.6282 32.4846 9.62647 32.4825 9.62524C32.4539 9.60809 32.4446 9.57102 32.4618 9.54244C32.479 9.51386 32.5162 9.5046 32.5449 9.52175L32.5658 9.53395C32.5829 9.54385 32.6025 9.5549 32.6241 9.56681C32.6858 9.60086 32.7514 9.63492 32.8179 9.66665C32.8736 9.69322 32.9274 9.71696 32.9785 9.73715C33.1526 9.80597 33.2799 9.8258 33.3213 9.7937C33.3648 9.75998 33.3689 9.53815 33.3296 9.2233L33.326 9.19528C33.3144 9.10651 33.3 9.01268 33.2834 8.91588C33.2705 8.84059 33.2568 8.76679 33.243 8.69638L33.2199 8.58188L33.2097 8.53437C33.2088 8.53033 33.2083 8.52623 33.2083 8.5221L33.2085 8.51592L33.2341 8.2353C33.2369 8.20488 33.2618 8.18178 33.2916 8.18047L33.2999 8.18066Z" fill="#D18888"/>
<path d="M33.2337 10.6207C33.2671 10.6205 33.2944 10.6474 33.2946 10.6807C33.2947 10.7113 33.272 10.7367 33.2425 10.7408L33.2343 10.7414L32.803 10.7434C32.7696 10.7436 32.7423 10.7167 32.7422 10.6834C32.742 10.6528 32.7647 10.6275 32.7942 10.6233L32.8025 10.6227L33.2337 10.6207Z" fill="#D18888"/>
<path fill-rule="evenodd" clip-rule="evenodd" d="M32.052 8.8657C32.052 9.01367 31.966 9.13352 31.86 9.13352C31.754 9.13352 31.668 9.01367 31.668 8.8657C31.668 8.71784 31.754 8.59787 31.86 8.59787C31.966 8.59787 32.052 8.71784 32.052 8.8657Z" fill="#253368"/>
<path fill-rule="evenodd" clip-rule="evenodd" d="M34.0676 8.8657C34.0676 9.01367 33.9817 9.13352 33.8756 9.13352C33.7696 9.13352 33.6836 9.01367 33.6836 8.8657C33.6836 8.71784 33.7696 8.59787 33.8756 8.59787C33.9817 8.59787 34.0676 8.71784 34.0676 8.8657Z" fill="#253368"/>
<path d="M32.1709 9.78393C32.1946 9.76037 32.2329 9.76038 32.2566 9.78395C32.2781 9.80538 32.28 9.83891 32.2624 9.86253L32.2566 9.8693L31.9237 10.2008C31.9 10.2244 31.8617 10.2244 31.838 10.2008C31.8165 10.1794 31.8146 10.1459 31.8322 10.1223L31.8381 10.1155L32.1709 9.78393Z" fill="#D18888"/>
<path d="M30.4725 10.1342C30.4999 10.1275 30.5276 10.1442 30.5344 10.1715L30.5422 10.2002C30.545 10.2096 30.5483 10.2206 30.5523 10.2332L30.5564 10.2462C30.576 10.307 30.601 10.3748 30.6319 10.4479C30.7204 10.6571 30.8384 10.8663 30.9897 11.0614C31.5444 11.7764 32.3806 12.1161 33.5656 11.8746C33.5932 11.869 33.6202 11.8867 33.6259 11.9143C33.6315 11.9419 33.6137 11.9688 33.586 11.9744C32.3616 12.2239 31.4866 11.8685 30.9088 11.1237C30.7517 10.9211 30.6294 10.7043 30.5377 10.4875C30.5056 10.4115 30.4795 10.3409 30.4591 10.2774L30.4449 10.2313L30.4351 10.1959C30.4283 10.1685 30.4451 10.1409 30.4725 10.1342Z" fill="#D18888"/>
<path d="M33.0473 11.2795C33.0761 11.2625 33.1132 11.272 33.1303 11.3007C33.1424 11.3211 33.1595 11.3557 33.1765 11.4009C33.2189 11.5139 33.2356 11.6307 33.2104 11.7425C33.1842 11.8588 33.114 11.9582 32.9953 12.0329C32.967 12.0507 32.9296 12.0423 32.9117 12.0141C32.8938 11.9859 32.9023 11.9486 32.9306 11.9308C33.0221 11.8733 33.0731 11.8011 33.0922 11.7161C33.1114 11.6307 33.098 11.5362 33.0631 11.4432C33.0488 11.4052 33.0347 11.3769 33.026 11.3621C33.009 11.3335 33.0185 11.2964 33.0473 11.2795Z" fill="#D18888"/>
<path d="M29.4513 8.67152C29.4753 8.55159 29.5697 8.49618 29.7227 8.55478C29.9645 8.64738 29.9894 8.82417 29.9075 9.1502C29.8625 9.32973 29.9248 9.43091 30.0921 9.46425C30.1197 9.46976 30.1377 9.4966 30.1322 9.52418C30.1266 9.55176 30.0997 9.56965 30.072 9.56414C29.8468 9.51926 29.7494 9.36083 29.8084 9.12549C29.8789 8.84449 29.8609 8.71685 29.686 8.64987C29.5935 8.61445 29.5634 8.63211 29.5516 8.69141C29.5482 8.70846 29.5471 8.72707 29.5478 8.7452L29.5494 8.76744L29.5501 8.77265C29.5546 8.80041 29.5357 8.82658 29.5078 8.83111C29.48 8.83563 29.4537 8.81679 29.4492 8.78903L29.4472 8.77285C29.444 8.74037 29.4445 8.7055 29.4513 8.67152Z" fill="#D18888"/>
<path fill-rule="evenodd" clip-rule="evenodd" d="M32.4157 10.5854C32.4113 10.6115 32.3866 10.6291 32.3605 10.6247C32.3343 10.6205 32.3166 10.5958 32.321 10.5698C32.3253 10.5437 32.35 10.5261 32.3762 10.5303C32.4024 10.5347 32.4201 10.5593 32.4157 10.5854Z" fill="#D18888"/>
<path fill-rule="evenodd" clip-rule="evenodd" d="M31.693 10.7654C31.6887 10.7915 31.664 10.8091 31.6378 10.8047C31.6116 10.8005 31.594 10.7758 31.5983 10.7498C31.6027 10.7237 31.6274 10.7061 31.6536 10.7103C31.6797 10.7147 31.6974 10.7393 31.693 10.7654Z" fill="#D18888"/>
<path fill-rule="evenodd" clip-rule="evenodd" d="M34.0149 10.9217C34.0241 10.9465 34.0115 10.974 33.9867 10.9833C33.9618 10.9925 33.9341 10.9798 33.9249 10.955C33.9157 10.9303 33.9283 10.9028 33.9531 10.8936C33.9779 10.8843 34.0057 10.897 34.0149 10.9217Z" fill="#D18888"/>
<path fill-rule="evenodd" clip-rule="evenodd" d="M34.468 10.6931C34.4772 10.7178 34.4646 10.7453 34.4398 10.7546C34.415 10.7638 34.3872 10.7511 34.378 10.7264C34.3688 10.7016 34.3814 10.6741 34.4062 10.6649C34.4311 10.6556 34.4587 10.6683 34.468 10.6931Z" fill="#D18888"/>
<path fill-rule="evenodd" clip-rule="evenodd" d="M33.6282 11.061C33.6374 11.0858 33.6248 11.1133 33.5999 11.1225C33.5751 11.1317 33.5474 11.1191 33.5382 11.0944C33.5289 11.0696 33.5417 11.0421 33.5665 11.0329C33.5913 11.0236 33.6189 11.0363 33.6282 11.061Z" fill="#D18888"/>
<path fill-rule="evenodd" clip-rule="evenodd" d="M33.0657 10.9513C33.0749 10.9761 33.0623 11.0036 33.0374 11.0129C33.0126 11.022 32.9849 11.0094 32.9757 10.9846C32.9664 10.9599 32.9792 10.9324 33.004 10.9232C33.0288 10.9139 33.0564 10.9266 33.0657 10.9513Z" fill="#D18888"/>
<path fill-rule="evenodd" clip-rule="evenodd" d="M31.136 10.5687C31.1453 10.5935 31.1326 10.6211 31.1077 10.6303C31.0829 10.6394 31.0553 10.6268 31.046 10.602C31.0368 10.5773 31.0495 10.5498 31.0743 10.5406C31.0991 10.5313 31.1268 10.544 31.136 10.5687Z" fill="#D18888"/>
<path fill-rule="evenodd" clip-rule="evenodd" d="M32.0524 11.2567C32.0481 11.2827 32.0233 11.3003 31.9972 11.296C31.971 11.2917 31.9533 11.267 31.9577 11.241C31.9621 11.2149 31.9868 11.1973 32.0129 11.2016C32.0391 11.206 32.0568 11.2306 32.0524 11.2567Z" fill="#D18888"/>
<path fill-rule="evenodd" clip-rule="evenodd" d="M32.4274 11.1824C32.4231 11.2085 32.3983 11.2261 32.3722 11.2218C32.346 11.2175 32.3283 11.1928 32.3327 11.1668C32.3371 11.1407 32.3618 11.1231 32.3879 11.1274C32.4141 11.1318 32.4318 11.1564 32.4274 11.1824Z" fill="#D18888"/>
<path fill-rule="evenodd" clip-rule="evenodd" d="M33.9313 11.3112C33.9269 11.3373 33.9022 11.3549 33.8761 11.3506C33.85 11.3463 33.8323 11.3216 33.8366 11.2956C33.8409 11.2696 33.8656 11.252 33.8918 11.2562C33.918 11.2605 33.9357 11.2851 33.9313 11.3112Z" fill="#D18888"/>
<path fill-rule="evenodd" clip-rule="evenodd" d="M33.693 10.7463C33.6886 10.7723 33.6639 10.79 33.6378 10.7856C33.6117 10.7813 33.594 10.7567 33.5983 10.7306C33.6026 10.7045 33.6274 10.6869 33.6535 10.6912C33.6797 10.6956 33.6974 10.7202 33.693 10.7463Z" fill="#D18888"/>
<path fill-rule="evenodd" clip-rule="evenodd" d="M33.8649 10.268C33.8606 10.2941 33.8358 10.3117 33.8097 10.3074C33.7835 10.303 33.7658 10.2784 33.7702 10.2523C33.7746 10.2263 33.7993 10.2086 33.8254 10.213C33.8516 10.2173 33.8693 10.242 33.8649 10.268Z" fill="#D18888"/>
<path fill-rule="evenodd" clip-rule="evenodd" d="M31.6461 11.0635C31.6418 11.0896 31.6171 11.1072 31.5909 11.1029C31.5649 11.0985 31.5472 11.0739 31.5514 11.0478C31.5558 11.0218 31.5805 11.0041 31.6066 11.0085C31.6328 11.0128 31.6505 11.0375 31.6461 11.0635Z" fill="#D18888"/>
<path fill-rule="evenodd" clip-rule="evenodd" d="M34.8225 13.525L34.6305 12.747L33.7685 12.8235L33.2522 14.7999L32.1091 12.6239L29.5581 12.3645L29.1992 13.5887C29.1992 13.5887 30.8608 15.8383 33.5554 15.4253C34.8864 15.2212 34.8225 13.525 34.8225 13.525Z" fill="#597EF7"/>
<path fill-rule="evenodd" clip-rule="evenodd" d="M38.0508 14.4432C38.0508 14.4432 39.6891 18.5242 38.1531 22.2226C39.3819 24.4161 40.6618 26.023 41.4298 26.7371C42.1978 27.4513 45.1436 27.2897 45.3719 24.9007C45.5767 22.7583 41.8249 17.6615 41.2762 16.7387C40.4571 15.3615 38.6139 14.4432 38.0508 14.4432Z" fill="#FFC2BD"/>
<path fill-rule="evenodd" clip-rule="evenodd" d="M43.3511 19.9781C42.3394 18.2407 41.4993 17.1044 41.2136 16.624C40.3945 15.2466 38.5514 14.3285 37.9883 14.3285C37.9883 14.3285 39.6265 18.4094 38.0906 22.1079C38.6118 23.0381 38.554 22.955 39.0506 23.651C39.0506 23.651 39.4345 22.8092 40.8937 21.5849C42.411 20.3118 43.3511 19.9781 43.3511 19.9781Z" fill="#597EF7"/>
<path d="M39.1172 17.5609C39.1422 17.5551 39.1672 17.5705 39.173 17.5954L39.1776 17.6165C39.1811 17.6335 39.185 17.6536 39.1892 17.6768C39.2012 17.7429 39.2131 17.8207 39.2242 17.9101C39.2909 18.4451 39.2992 19.1055 39.2118 19.872C39.0909 20.9319 38.7995 22.0595 38.3002 23.2354C38.2902 23.259 38.2629 23.27 38.2393 23.26C38.2157 23.2501 38.2046 23.2229 38.2146 23.1994C38.7104 22.0317 38.9995 20.9128 39.1194 19.8616C39.206 19.1026 39.1978 18.4495 39.132 17.9215C39.1227 17.8464 39.1128 17.7796 39.1028 17.7216L39.0929 17.6668C39.0883 17.6428 39.0847 17.626 39.0825 17.6165C39.0767 17.5916 39.0922 17.5667 39.1172 17.5609Z" fill="#253368"/>
<path fill-rule="evenodd" clip-rule="evenodd" d="M37.4 27.9742C33.5027 27.4768 29.1445 27.7618 29.1445 27.7618L29.2981 26.6715C29.2981 26.6715 34.2514 26.0402 37.3104 26.8563C37.3807 27.3793 37.4 27.9742 37.4 27.9742Z" fill="#253368"/>
<path d="M41.074 23.2822C41.0946 23.2559 41.1326 23.2513 41.159 23.2718C41.183 23.2905 41.189 23.3235 41.1744 23.3491L41.1694 23.3565L39.8895 24.9889C39.869 25.0152 39.8309 25.0199 39.8045 24.9993C39.7806 24.9807 39.7745 24.9476 39.7891 24.9221L39.7941 24.9146L41.074 23.2822Z" fill="#D18888"/>
<path d="M33.6514 27.7915C33.6862 27.7928 33.7139 27.8197 33.717 27.8533L33.7168 27.8717L33.7009 28.2631L33.6834 28.6467C33.6745 28.8328 33.6647 29.0285 33.6537 29.2323L33.649 29.3201C33.5929 30.3493 33.522 31.3785 33.4348 32.3471L33.4183 32.528C33.2747 34.0744 33.1017 35.3127 32.8961 36.132C32.887 36.1684 32.8499 36.1905 32.8134 36.1814C32.7769 36.1723 32.7546 36.1354 32.7638 36.099L32.784 36.0165C32.9787 35.2057 33.1442 34.0041 33.2825 32.5155C33.3715 31.5565 33.4443 30.5329 33.5021 29.5054L33.5128 29.3127C33.532 28.96 33.5482 28.6304 33.5614 28.3313L33.5729 28.0632L33.5809 27.8571C33.5822 27.8196 33.6138 27.7902 33.6514 27.7915Z" fill="#253368"/>
<path d="M35.135 27.8425C35.1727 27.8429 35.2029 27.8736 35.2026 27.9112L35.1992 28.1507C35.1961 28.341 35.1918 28.5531 35.186 28.7815C35.1709 29.3839 35.149 29.9863 35.1191 30.5546L35.1115 30.696C35.0204 32.3369 34.8853 33.3369 34.6642 33.5082C34.5825 33.5716 34.4839 33.6401 34.3705 33.7133C34.2855 33.768 34.193 33.8249 34.0939 33.8834C33.9437 33.972 33.7848 34.061 33.6244 34.1472L33.528 34.1985C33.474 34.2271 33.4231 34.2536 33.3761 34.2778L33.2706 34.3315C33.2369 34.3483 33.1959 34.3347 33.1791 34.3011C33.1622 34.2676 33.1759 34.2267 33.2096 34.21L33.2418 34.1937L33.3492 34.1387C33.3855 34.1198 33.4239 34.0997 33.4641 34.0785C33.6552 33.9774 33.8462 33.8716 34.0244 33.7665L34.1197 33.7094C34.1818 33.6718 34.2408 33.635 34.2964 33.5992C34.4068 33.528 34.5022 33.4616 34.5805 33.401C34.7502 33.2694 34.8891 32.2406 34.9753 30.6885C35.0065 30.1275 35.0295 29.5294 35.0458 28.9284L35.0533 28.6286C35.0555 28.5306 35.0576 28.4361 35.0593 28.3455L35.0647 28.0257L35.0662 27.9098C35.0665 27.8723 35.0974 27.8422 35.135 27.8425Z" fill="#253368"/>
<path fill-rule="evenodd" clip-rule="evenodd" d="M32.6484 27.6234V26.5343C32.6484 26.392 32.7573 26.2755 32.8952 26.2714C33.3523 26.2578 34.3683 26.2456 35.2899 26.362C35.4184 26.3783 35.5154 26.49 35.5154 26.6235V27.6475C35.5154 27.794 35.4002 27.9123 35.2581 27.9105C34.7357 27.9041 33.5457 27.8899 32.9012 27.8863C32.761 27.8856 32.6484 27.768 32.6484 27.6234Z" fill="#E4EBF7"/>
<path fill-rule="evenodd" clip-rule="evenodd" d="M32.9453 27.4354L32.9457 26.7145C32.9457 26.6204 33.0346 26.5433 33.1471 26.5406C33.52 26.5317 34.3489 26.5241 35.1006 26.6013C35.2055 26.6122 35.2846 26.6862 35.2846 26.7745L35.2844 27.4523C35.2844 27.5493 35.1903 27.6275 35.0745 27.6264C34.6482 27.6219 33.6772 27.6121 33.1516 27.6096C33.0371 27.609 32.9453 27.5312 32.9453 27.4354Z" fill="#253368"/>
<path fill-rule="evenodd" clip-rule="evenodd" d="M35.2757 26.4622L32.8555 27.5384L32.9554 27.7576L35.3957 26.6615L35.2757 26.4622Z" fill="#E4EBF7"/>
<path fill-rule="evenodd" clip-rule="evenodd" d="M35.3811 27.5039L32.9552 26.4402L32.8594 26.6613L35.3135 27.7264L35.3811 27.5039Z" fill="#E4EBF7"/>
<path d="M30.4616 27.793C30.4985 27.8006 30.5221 27.8366 30.5144 27.8734L30.5015 27.9299C30.4988 27.9413 30.4958 27.9534 30.4926 27.9661C30.4745 28.039 30.4523 28.1201 30.4259 28.2074C30.3505 28.4569 30.2566 28.7064 30.1429 28.9398L30.1136 28.9987C29.7 29.8137 29.1418 30.2132 28.4275 29.9509C28.3921 29.938 28.374 29.8989 28.387 29.8637C28.4001 29.8285 28.4393 29.8104 28.4746 29.8234C29.1218 30.061 29.6306 29.6801 30.0202 28.8805C30.1304 28.6542 30.2218 28.4112 30.2953 28.1682C30.3167 28.0973 30.3353 28.0306 30.3511 27.9694L30.3688 27.8985L30.3809 27.8456C30.3886 27.8088 30.4247 27.7853 30.4616 27.793Z" fill="#253368"/>
<path d="M33.847 34.5561C33.8658 34.5272 33.9028 34.5173 33.9332 34.5316L33.9413 34.5361L35.4772 35.5309C35.5087 35.5514 35.5177 35.5934 35.4972 35.6249C35.4784 35.6538 35.4413 35.6637 35.4109 35.6494L35.4028 35.6448L33.867 34.6501C33.8354 34.6296 33.8264 34.5875 33.847 34.5561Z" fill="#253368"/>
<path d="M33.1759 34.3064C33.2049 34.2878 33.2428 34.2939 33.2646 34.3194L33.2701 34.3268L33.9613 35.398C33.9817 35.4295 33.9725 35.4716 33.9408 35.4919C33.9118 35.5105 33.8739 35.5044 33.8521 35.4789L33.8466 35.4715L33.1554 34.4003C33.135 34.3687 33.1442 34.3267 33.1759 34.3064Z" fill="#253368"/>
<path fill-rule="evenodd" clip-rule="evenodd" d="M23.4778 37.8391L23.2853 31.9038C23.2792 31.7136 23.4243 31.5522 23.6147 31.5374L31.4944 30.8499C31.6964 30.8342 31.871 30.9887 31.8793 31.1904L32.1402 37.5681C32.1483 37.7664 31.9922 37.933 31.7931 37.9385L23.8449 38.1835C23.6483 38.1888 23.4841 38.0349 23.4778 37.8391Z" fill="#FFC2BD"/>
<path fill-rule="evenodd" clip-rule="evenodd" d="M23.1261 37.906L22.9298 31.8552C22.9246 31.6966 23.0457 31.5621 23.2043 31.5498L31.2023 30.8531C31.3707 30.8401 31.5163 30.9687 31.5232 31.1368L31.789 37.6361C31.7958 37.8014 31.6656 37.9403 31.4997 37.9449L23.4319 38.193C23.2681 38.1976 23.1314 38.0693 23.1261 37.906Z" fill="#597EF7"/>
<path fill-rule="evenodd" clip-rule="evenodd" d="M25.4584 14.8513C25.4584 14.8513 24.0762 15.1574 23.4618 17.504C22.8474 19.8505 23.0778 21.9931 23.2314 24.9518C23.385 27.9105 24.4602 33.0883 24.921 34.9757C25.3816 36.8632 25.5504 37.4932 26.0216 38.1639C26.2904 38.5465 26.7383 38.6358 27.0456 38.5211C27.4551 38.9291 28.1078 38.6486 28.1078 38.6486C28.1078 38.6486 29.0934 38.9037 29.2982 38.3426C30.1045 38.4573 29.759 37.3478 29.8614 36.9397C29.9637 36.5315 29.5415 35.7153 28.415 34.5931C27.6983 33.3178 28.3382 21.942 28.6454 20.5137C28.9526 19.0854 28.9398 15.1574 25.4584 14.8513Z" fill="#FFC2BD"/>
<path fill-rule="evenodd" clip-rule="evenodd" d="M28.4509 22.3501C28.4509 22.3501 29.1932 17.759 28.4764 16.3306C27.7597 14.9023 26.6111 13.8183 24.7903 15.1573C22.64 16.7387 23.0752 21.3554 23.0752 21.3554C23.0752 21.3554 25.4558 21.891 28.4509 22.3501Z" fill="#597EF7"/>
<path d="M26.5633 15.721C26.6856 15.7134 26.8237 15.7213 26.9839 15.7579C27.2185 15.8115 27.4486 15.9182 27.6636 16.0904C28.3074 16.6059 28.7142 17.6124 28.7766 19.2378L28.7786 19.2934L28.497 22.5072C28.4947 22.5327 28.4722 22.5515 28.4466 22.5493C28.4236 22.5473 28.406 22.5289 28.4043 22.5067L28.4044 22.4992L28.6859 19.2909C28.6314 17.6631 28.2328 16.665 27.6054 16.1625C27.4017 15.9994 27.1845 15.8987 26.9631 15.8481C26.825 15.8165 26.7048 15.8077 26.5979 15.8119L26.5654 15.8137C26.5558 15.8144 26.5305 15.8161 26.5254 15.8155C26.4999 15.8125 26.4817 15.7895 26.4847 15.7641C26.4877 15.7387 26.5108 15.7206 26.5363 15.7235C26.5323 15.7231 26.5448 15.7221 26.5633 15.721Z" fill="#253368"/>
<path d="M29.1966 36.8283C29.23 36.8299 29.2558 36.8581 29.2543 36.8914L29.2517 36.9635C29.2512 36.978 29.2507 36.9934 29.2503 37.0095C29.2445 37.2219 29.2442 37.4476 29.2532 37.6587L29.2563 37.7243C29.2712 38.0035 29.3025 38.2121 29.3512 38.3173C29.3652 38.3475 29.3519 38.3834 29.3215 38.3973C29.2912 38.4113 29.2552 38.3981 29.2412 38.3678C29.1798 38.2353 29.1461 37.9917 29.1322 37.6638C29.1243 37.4801 29.1234 37.2861 29.127 37.0991L29.1299 36.9823L29.1333 36.8859C29.1348 36.8526 29.1632 36.8268 29.1966 36.8283Z" fill="#D18888"/>
<path d="M29.4052 13.6112C29.413 13.5896 29.4354 13.5774 29.4574 13.5815L29.4647 13.5835L31.1541 14.1957C31.1782 14.2044 31.1907 14.231 31.1819 14.255C31.174 14.2766 31.1516 14.2888 31.1297 14.2847L31.1224 14.2827L29.4329 13.6705C29.4088 13.6618 29.3964 13.6352 29.4052 13.6112Z" fill="#253368"/>
<path d="M33.2445 14.7554C33.2691 14.7483 33.2949 14.7624 33.302 14.787L33.3108 14.8182L33.3328 14.8991C33.3381 14.9192 33.3436 14.9403 33.3492 14.9625L33.3579 14.9965C33.3997 15.1618 33.4414 15.3447 33.4804 15.54C33.5724 16.0011 33.6345 16.4577 33.653 16.885C33.6654 17.1694 33.6578 17.4328 33.6279 17.6711C33.6247 17.6965 33.6015 17.7144 33.576 17.7113C33.5506 17.7081 33.5325 17.685 33.5357 17.6596C33.5649 17.4269 33.5723 17.1686 33.5602 16.889C33.5419 16.467 33.4804 16.0148 33.3893 15.5581C33.3506 15.3644 33.3092 15.183 33.2678 15.019L33.2429 14.9228L33.2143 14.8182C33.2138 14.8161 33.2132 14.8143 33.2128 14.8128C33.2056 14.7882 33.2198 14.7626 33.2445 14.7554Z" fill="#253368"/>
<path fill-rule="evenodd" clip-rule="evenodd" d="M86.1293 20.5703C84.0943 23.6142 81.3565 21.8399 80.6622 21.0479C79.8759 20.1508 78.8899 20.263 78.5903 19.1666C78.2476 17.9123 79.2062 17.111 79.0189 16.5502C78.4573 14.3825 80.0022 15.1613 79.7635 13.8219C79.3645 11.5836 79.7086 11.6271 80.6622 10.0345C81.7995 8.13477 83.0085 9.01726 83.0085 9.01726C83.0085 9.01726 84.6809 8.61424 85.4298 10.8568C85.5653 11.2622 86.1162 11.5046 86.1287 12.5262C86.1605 15.1293 87.5716 15.3352 87.8511 17.111C88.143 18.9647 86.8032 19.5237 86.1293 20.5703Z" fill="#253368"/>
<path fill-rule="evenodd" clip-rule="evenodd" d="M85.0647 12.8865C85.167 12.2428 84.6894 12.314 84.6894 12.314C84.6894 12.314 84.4586 12.9833 84.4414 13.5249C85.1158 13.5315 85.0647 12.8865 85.0647 12.8865Z" fill="#F4B784"/>
<path fill-rule="evenodd" clip-rule="evenodd" d="M80.4412 12.8865C80.3391 12.2428 80.9495 12.314 80.9495 12.314C80.9495 12.314 81.1803 12.9833 81.1975 13.5249C80.5231 13.5315 80.4412 12.8865 80.4412 12.8865Z" fill="#F4B784"/>
<path fill-rule="evenodd" clip-rule="evenodd" d="M82.8322 17.4418C82.2395 17.4418 81.7658 16.9498 81.6562 16.3587L81.7463 14.078H83.785L83.8752 16.3587C83.8986 16.9498 83.4248 17.4418 82.8322 17.4418Z" fill="#F4B784"/>
<path d="M82.8928 14.1449C82.9209 14.143 82.9452 14.1642 82.9471 14.1923C82.9488 14.2175 82.9318 14.2397 82.9078 14.2452L82.8996 14.2465L82.7224 14.2583C82.6943 14.2601 82.67 14.2389 82.6681 14.2109C82.6664 14.1856 82.6834 14.1635 82.7074 14.1579L82.7156 14.1567L82.8928 14.1449Z" fill="#DD936F"/>
<path fill-rule="evenodd" clip-rule="evenodd" d="M84.6332 12.7567C84.4701 14.1956 83.8117 15.0927 82.7985 15.0927C81.7852 15.0927 81.0751 14.0421 80.9638 12.7567C80.7777 10.6077 81.7852 10.0095 82.7985 10.0095C83.8117 10.0095 84.8822 10.5583 84.6332 12.7567Z" fill="#FFC999"/>
<path fill-rule="evenodd" clip-rule="evenodd" d="M84.8558 11.081C84.6311 10.2117 84.2069 9.33678 82.9337 9.56112C81.3985 8.73877 79.03 12.2098 80.4625 12.3599C81.8105 12.5013 81.6544 11.4484 81.9397 10.7572C82.2018 10.1217 82.6841 10.8319 82.6841 10.8319C82.6841 10.8319 82.9506 10.5328 83.2501 10.645C83.7521 10.8328 83.2083 11.8285 84.4814 12.4515C84.6364 12.5273 84.5026 13.3931 84.5564 13.3236C84.806 12.9996 85.0804 11.95 84.8558 11.081Z" fill="#253368"/>
<path d="M81.3749 11.5389L82.2736 11.697C82.3098 11.7034 82.3339 11.7378 82.3276 11.7739C82.3217 11.807 82.2923 11.83 82.2595 11.8287L82.2505 11.8277L81.3518 11.6696C81.3157 11.6633 81.2915 11.6288 81.2979 11.5927C81.3037 11.5597 81.3332 11.5366 81.3659 11.5379L81.3749 11.5389Z" fill="#253368"/>
<path d="M84.1727 11.588C84.2092 11.5844 84.2418 11.611 84.2455 11.6475C84.2488 11.6809 84.2267 11.711 84.1949 11.7186L84.1859 11.7201L83.1044 11.8284C83.0678 11.8321 83.0353 11.8055 83.0316 11.769C83.0282 11.7356 83.0503 11.7055 83.0822 11.6979L83.0911 11.6964L84.1727 11.588Z" fill="#253368"/>
<path d="M82.3667 11.8317C82.3899 11.8216 82.4166 11.8302 82.4298 11.8508L82.4337 11.8581L82.571 12.1739C82.573 12.1786 82.5744 12.1837 82.5749 12.1888L82.5751 12.1965L82.5268 13.2531L82.7858 13.364C82.8091 13.3739 82.8211 13.3992 82.8152 13.423L82.8126 13.4308C82.8026 13.4541 82.7773 13.4661 82.7535 13.4602L82.7456 13.4576L82.4542 13.3329C82.4371 13.3256 82.4256 13.3097 82.4236 13.2916L82.4234 13.2838L82.4727 12.2036L82.3402 11.8986C82.3301 11.8754 82.3387 11.8488 82.3593 11.8356L82.3667 11.8317Z" fill="#DD936F"/>
<path d="M81.813 12.165C81.9976 12.165 82.1416 12.3396 82.1416 12.5492C82.1416 12.5859 82.1118 12.6156 82.0751 12.6156C82.0384 12.6156 82.0086 12.5859 82.0086 12.5492C82.0086 12.4079 81.9178 12.2978 81.813 12.2978C81.7081 12.2978 81.6174 12.4078 81.6174 12.5492C81.6174 12.5859 81.5876 12.6156 81.5509 12.6156C81.5141 12.6156 81.4844 12.5859 81.4844 12.5492C81.4844 12.3396 81.6283 12.165 81.813 12.165Z" fill="#253368"/>
<path d="M83.6099 12.165C83.7945 12.165 83.9385 12.3396 83.9385 12.5492C83.9385 12.5859 83.9087 12.6156 83.872 12.6156C83.8352 12.6156 83.8055 12.5859 83.8055 12.5492C83.8055 12.4078 83.7148 12.2978 83.6099 12.2978C83.505 12.2978 83.4142 12.4078 83.4142 12.5492C83.4142 12.5859 83.3845 12.6156 83.3477 12.6156C83.311 12.6156 83.2812 12.5859 83.2812 12.5492C83.2812 12.3396 83.4252 12.165 83.6099 12.165Z" fill="#253368"/>
<path d="M82.22 13.685C82.2303 13.7386 82.2588 13.8143 82.3153 13.8905C82.4103 14.0183 82.5531 14.0957 82.747 14.0957C82.9562 14.0957 83.1031 14.0237 83.1928 13.9028C83.2473 13.8294 83.2701 13.7561 83.275 13.7035C83.2787 13.6646 83.248 13.631 83.2088 13.631L83.113 13.6306C82.973 13.6295 82.8246 13.6264 82.6739 13.6216L82.4938 13.6153L82.2887 13.6062C82.2456 13.604 82.2118 13.6427 82.22 13.685ZM82.3834 13.7484L82.381 13.7433L82.4886 13.7479C82.5177 13.749 82.5477 13.7502 82.5785 13.7512L82.6698 13.7543C82.7911 13.7581 82.911 13.7609 83.0264 13.7624L83.1208 13.7634L83.119 13.768C83.1102 13.7871 83.0993 13.8059 83.086 13.8238C83.0216 13.9105 82.9146 13.9629 82.747 13.9629C82.5969 13.9629 82.4929 13.9066 82.4221 13.8114C82.4071 13.7911 82.3942 13.77 82.3834 13.7484Z" fill="#C44343"/>
<path d="M82.8951 14.3168C82.9233 14.3168 82.9461 14.3396 82.9461 14.3677C82.9461 14.393 82.9276 14.414 82.9034 14.418L82.8951 14.4186H82.633C82.6049 14.4186 82.582 14.3958 82.582 14.3677C82.582 14.3424 82.6005 14.3214 82.6248 14.3175L82.633 14.3168H82.8951Z" fill="#DD936F"/>
<path fill-rule="evenodd" clip-rule="evenodd" d="M84.764 13.3424C84.7524 13.3057 84.7003 13.3068 84.6903 13.3438C84.6015 13.6714 84.3945 14.5535 84.7375 14.5742C85.1242 14.5977 84.8692 13.6768 84.764 13.3424Z" fill="white"/>
<path fill-rule="evenodd" clip-rule="evenodd" d="M80.8772 13.3424C80.8657 13.3057 80.8135 13.3068 80.8036 13.3438C80.7147 13.6714 80.5078 14.5535 80.8508 14.5742C81.2375 14.5977 80.9824 13.6768 80.8772 13.3424Z" fill="white"/>
<path fill-rule="evenodd" clip-rule="evenodd" d="M75.755 24.5603C75.2166 24.2018 75.0702 23.4595 75.4211 22.8685L78.2406 17.932C78.7083 17.1448 79.4102 16.7459 80.1274 17.2237C80.8363 17.6957 80.7217 18.7452 80.1913 19.4785L77.4612 24.2006C77.0533 24.7645 76.3001 24.9233 75.755 24.5603Z" fill="#FFC999"/>
<path fill-rule="evenodd" clip-rule="evenodd" d="M78.9789 21.5781L76.957 19.971L78.1926 17.7284C78.7973 16.6363 79.5425 16.6907 80.4876 16.854L80.4444 16.8999C81.211 17.3552 81.2511 18.6671 80.7815 19.4243L78.9789 21.5781Z" fill="#597EF7"/>
<path fill-rule="evenodd" clip-rule="evenodd" d="M79.608 25.4048L79.7896 26.7248C79.7896 26.7248 76.3493 25.5333 75.5449 24.5534C74.2395 22.9634 76.8913 22.5507 76.8913 22.5507L79.608 25.4048Z" fill="#FFC999"/>
<path d="M76.771 22.6667C77.0445 22.6667 77.298 22.8258 77.5259 23.0892C77.6049 23.1805 77.6752 23.2782 77.736 23.3759C77.752 23.4016 77.7664 23.4259 77.7793 23.4485L77.8017 23.4889C77.806 23.4968 77.8091 23.5029 77.8112 23.507C77.8193 23.5231 77.8127 23.5428 77.7966 23.5508C77.7804 23.5589 77.7608 23.5524 77.7527 23.5362L77.7439 23.5195L77.7344 23.5021C77.7191 23.4744 77.7011 23.4436 77.6804 23.4104C77.6213 23.3154 77.553 23.2204 77.4764 23.1319C77.2597 22.8814 77.0216 22.7321 76.771 22.7321C76.7529 22.7321 76.7383 22.7174 76.7383 22.6994C76.7383 22.6814 76.7529 22.6667 76.771 22.6667Z" fill="#DD936F"/>
<path d="M76.921 19.9399C76.9363 19.9208 76.9627 19.9159 76.9836 19.927L76.9911 19.932L78.9737 21.5079L79.1487 21.2857C79.1638 21.2664 79.1903 21.2613 79.2112 21.2724L79.2187 21.2773C79.238 21.2924 79.2431 21.3188 79.232 21.3396L79.2271 21.3472L79.0211 21.6088C79.0059 21.6281 78.9793 21.6332 78.9584 21.622L78.9508 21.617L76.929 20.0099C76.9074 19.9927 76.9039 19.9614 76.921 19.9399Z" fill="#253368"/>
<path fill-rule="evenodd" clip-rule="evenodd" d="M89.7815 24.563C90.3018 24.1786 90.4116 23.4299 90.0321 22.857L87.1979 18.0223C86.6923 17.259 85.7474 16.9367 85.0544 17.4488C84.3695 17.955 84.5355 18.9977 85.1012 19.7041L88.0597 24.287C88.4948 24.8303 89.2549 24.9522 89.7815 24.563Z" fill="#FFC999"/>
<path fill-rule="evenodd" clip-rule="evenodd" d="M86.374 21.6851L88.396 20.0779L87.1604 17.8355C86.7181 17.062 85.5607 16.6317 84.9427 17.2096L84.9087 17.0069C84.1419 17.4622 84.102 18.7741 84.5716 19.5313L86.374 21.6851Z" fill="#597EF7"/>
<path fill-rule="evenodd" clip-rule="evenodd" d="M81.9067 48.8116C81.9091 48.7775 81.6246 57.2503 81.6556 57.8579C81.7399 59.516 81.9425 59.7338 81.0786 60.2194C80.8573 60.3438 80.508 60.2343 80.1691 60.6565C79.2416 61.8127 77.8347 62.5124 77.6204 61.8868C77.4722 61.298 79.6958 59.2826 79.8641 58.0412C80.0388 56.7517 78.6265 46.7684 79.467 45.9994C80.3074 45.2306 81.2416 41.8561 81.9067 48.8116Z" fill="#FFC999"/>
<path fill-rule="evenodd" clip-rule="evenodd" d="M81.6614 60.4032C81.6614 60.4032 81.9032 59.4876 81.6608 58.3946C81.6608 58.3946 80.9483 59.1153 80.3349 59.896C79.6265 60.7973 79.4459 60.8507 79.4459 60.8507C78.5129 61.1947 78.2705 60.664 78.2705 60.664C78.2705 60.664 77.7886 61.3552 76.8514 62.1217C76.0123 62.808 79.4108 62.7602 79.8299 61.8806C80.2489 61.0012 80.8343 60.4694 80.8343 60.4694L81.1685 61.7512L81.4911 61.725L81.6614 60.4032Z" fill="#253368"/>
<path fill-rule="evenodd" clip-rule="evenodd" d="M82.6968 42.5602L82.7433 54.9064L77.3256 54.6989C77.3256 54.6989 77.3016 49.1383 77.456 42.4965C77.456 42.4965 77.2928 38.6082 80.0387 38.6082C82.7844 38.6082 82.6968 42.5602 82.6968 42.5602Z" fill="#E4EBF7"/>
<path fill-rule="evenodd" clip-rule="evenodd" d="M77.4794 41.9462C77.6179 36.5926 77.8782 29.9865 78.3664 28.8171C78.3664 28.8171 78.9655 28.1107 80.7628 29.232C82.8583 30.5394 82.6684 32.4463 82.6684 32.4463L82.6947 42.1296C82.6519 42.8377 82.5777 45.0362 79.8391 45.0362C77.1432 45.0362 77.4764 42.0627 77.4794 41.9462Z" fill="#E4EBF7"/>
<path fill-rule="evenodd" clip-rule="evenodd" d="M83.6211 48.8322C83.6187 48.7981 83.9032 57.2709 83.8722 57.8785C83.7879 59.5367 83.5854 59.7544 84.4492 60.24C84.6705 60.3644 85.0198 60.2549 85.3587 60.6772C86.2862 61.8334 87.6931 62.5332 87.9074 61.9074C88.0556 61.3186 85.832 59.3032 85.6637 58.0618C85.489 56.7723 86.9013 46.789 86.0608 46.02C85.2204 45.2512 84.2862 41.8767 83.6211 48.8322Z" fill="#FFC999"/>
<path fill-rule="evenodd" clip-rule="evenodd" d="M83.8651 60.4238C83.8651 60.4238 83.6233 59.5082 83.8657 58.4152C83.8657 58.4152 84.5783 59.1359 85.1916 59.9166C85.9 60.8179 86.0806 60.8713 86.0806 60.8713C87.0136 61.2153 87.256 60.6846 87.256 60.6846C87.256 60.6846 87.7379 61.3758 88.6751 62.1423C89.5142 62.8286 86.1157 62.7808 85.6966 61.9012C85.2776 61.0218 84.6922 60.49 84.6922 60.49L84.358 61.7718L84.0353 61.7456L83.8651 60.4238Z" fill="#253368"/>
<path fill-rule="evenodd" clip-rule="evenodd" d="M82.9645 42.5809L82.918 54.927L88.3357 54.7196C88.3357 54.7196 88.3596 49.1589 88.2052 42.5171C88.2052 42.5171 88.3684 38.6288 85.6226 38.6288C82.8769 38.6288 82.9645 42.5809 82.9645 42.5809Z" fill="#E4EBF7"/>
<path fill-rule="evenodd" clip-rule="evenodd" d="M88.1997 42.5442C88.0613 37.1905 87.8009 30.5846 87.3127 29.415C87.3127 29.415 86.7136 28.7087 84.9164 29.8301C82.8208 31.1374 83.0106 33.0444 83.0106 33.0444L82.9844 42.7277C83.0272 43.4356 83.1014 45.6343 85.8401 45.6343C88.5359 45.6343 88.2026 42.6608 88.1997 42.5442Z" fill="#E4EBF7"/>
<path fill-rule="evenodd" clip-rule="evenodd" d="M87.6099 30.8727C87.6099 30.8727 87.4514 27.8079 85.3961 26.2086L79.903 26.1883C79.903 26.1883 78.0117 27.8711 78.0117 31.0222C78.0117 31.0222 78.9723 31.2072 80.0879 31.9317C80.8155 32.4043 81.629 33.0529 82.9003 33.0529C84.1965 33.0529 84.8766 32.464 85.6129 31.9815C86.7062 31.2652 87.6099 30.8727 87.6099 30.8727Z" fill="#E4EBF7"/>
<path fill-rule="evenodd" clip-rule="evenodd" d="M79.875 26.2393L85.4136 26.2085L85.1695 25.3923L80.156 25.398L79.875 26.2393Z" fill="#E4EBF7"/>
<path d="M85.2384 25.3471C85.2665 25.3471 85.2894 25.3699 85.2894 25.398C85.2894 25.4233 85.2709 25.4443 85.2466 25.4483L85.2384 25.4489H80.0783C80.0502 25.4489 80.0273 25.4261 80.0273 25.398C80.0273 25.3727 80.0458 25.3517 80.0701 25.3478L80.0783 25.3471H85.2384Z" fill="#DD936F"/>
<path d="M85.2395 26.1456C85.267 26.1456 85.2894 26.1679 85.2894 26.1954C85.2894 26.2201 85.2713 26.2406 85.2476 26.2445L85.2395 26.2452H80.046C80.0184 26.2452 79.9961 26.2229 79.9961 26.1954C79.9961 26.1706 80.0142 26.1501 80.0379 26.1463L80.046 26.1456H85.2395Z" fill="#A3B5D6"/>
<path d="M82.7256 25.3287C82.7504 25.3287 82.771 25.3467 82.7749 25.3704L82.7755 25.3784V32.7874C82.7755 32.8149 82.7532 32.8372 82.7256 32.8372C82.7009 32.8372 82.6803 32.8192 82.6764 32.7955L82.6758 32.7874V25.3784C82.6758 25.3509 82.6981 25.3287 82.7256 25.3287Z" fill="#A3B5D6"/>
<path fill-rule="evenodd" clip-rule="evenodd" d="M86.2251 17.1003C85.2009 16.7002 84.4388 17.0274 84.1034 16.7266C83.9051 16.5486 83.922 15.8252 83.922 15.8252H81.4486C81.4486 15.8252 81.5018 16.4791 81.3037 16.6571C80.9683 16.9579 80.1808 16.6556 79.2568 17.1554C78.3843 17.6272 78.6912 19.2309 79.0907 20.3023C79.183 20.55 79.0237 21.0168 79.1779 21.3613C79.3333 21.7078 79.5692 22.1275 79.6628 22.3517C79.9704 23.0884 79.9072 23.8821 80.1056 24.5506C80.1056 24.5506 79.7895 25.1611 80.2885 25.4089H85.082C85.6805 25.1361 85.2648 24.5506 85.2648 24.5506C85.4543 23.9126 85.3392 23.3981 85.62 22.4637C85.6763 22.277 85.8873 21.9808 86.0674 21.5855C86.3483 20.9688 86.2171 20.377 86.2546 20.2275C86.5828 18.9173 87.1132 17.4473 86.2251 17.1003Z" fill="#597EF7"/>
<path d="M81.8607 16.9136L83.6521 16.9929C83.6796 16.9941 83.7009 17.0174 83.6997 17.0448C83.6986 17.0696 83.6796 17.0893 83.6558 17.0921L83.6477 17.0924L81.8563 17.0131C81.8287 17.0119 81.8074 16.9886 81.8086 16.9612C81.8097 16.9364 81.8287 16.9167 81.8526 16.9139L81.8607 16.9136Z" fill="#253368"/>
<path d="M79.4684 18.8357C79.4802 18.8108 79.51 18.8003 79.5348 18.8121C79.5597 18.8239 79.5703 18.8536 79.5585 18.8784L79.5424 18.914L79.526 18.9522C79.5203 18.9657 79.5144 18.98 79.5083 18.9951L79.499 19.0183C79.4539 19.1318 79.4088 19.2605 79.3667 19.4017C79.2141 19.9132 79.1404 20.4466 79.1886 20.9641C79.2273 21.3787 79.3634 21.7145 79.6958 22.2592L79.7224 22.3026L79.7291 22.3201L79.7926 22.6765L79.8338 22.9053C79.8545 23.0192 79.8751 23.1323 79.8954 23.2429L79.9844 23.7203C80.0626 24.133 80.121 24.4201 80.1524 24.5378C80.1557 24.5503 80.154 24.5637 80.1476 24.575C79.9644 24.9004 80.0974 25.315 80.2766 25.3571L80.287 25.3591L85.0836 25.3591L85.0988 25.3495L85.1078 25.3433C85.135 25.324 85.1623 25.2998 85.1879 25.2704C85.3229 25.115 85.3557 24.8887 85.2176 24.5704C85.2136 24.5612 85.2125 24.551 85.2144 24.5412L85.2671 24.2645C85.3526 23.8108 85.426 23.3951 85.4879 23.0214L85.5173 22.8415C85.5339 22.7388 85.5486 22.6451 85.5615 22.5608L85.5897 22.3716C85.5907 22.3639 85.5936 22.3566 85.598 22.3502C85.9992 21.7699 86.1754 21.3107 86.2034 20.7979C86.2287 20.3303 86.1431 19.8652 85.9847 19.4275C85.9358 19.2927 85.8836 19.1706 85.8313 19.0635L85.8101 19.0208C85.8033 19.0073 85.7967 18.9946 85.7904 18.9827L85.7626 18.9321C85.7486 18.9084 85.7565 18.8779 85.7802 18.8639C85.804 18.85 85.8346 18.8579 85.8485 18.8816L85.8634 18.908L85.8688 18.918C85.8815 18.9413 85.8952 18.9678 85.9099 18.9972L85.921 19.0199C85.9747 19.1301 86.0284 19.2554 86.0785 19.3937C86.2411 19.843 86.3291 20.3209 86.303 20.8033C86.2747 21.3222 86.1004 21.7878 85.7113 22.3613L85.6868 22.3969L85.6664 22.5344C85.6479 22.6565 85.6253 22.7998 85.5985 22.9633L85.5608 23.1896C85.4958 23.5751 85.4191 24.0022 85.3303 24.4666L85.3151 24.5452L85.3218 24.5609C85.4559 24.8892 85.4213 25.1411 85.2767 25.3196L85.2632 25.3357C85.2098 25.3971 85.156 25.4352 85.118 25.4537C85.1135 25.4559 85.1087 25.4574 85.1037 25.4581L85.0962 25.4587L80.2796 25.4581C80.0205 25.4193 79.8544 24.9476 80.0395 24.5667L80.0509 24.544L80.0346 24.4759C80.0007 24.3282 79.9505 24.077 79.8872 23.7432L79.8376 23.4789L79.7769 23.1494C79.7564 23.0373 79.7357 22.9232 79.715 22.8087L79.6325 22.3467L79.6103 22.3104C79.2798 21.7688 79.1372 21.4241 79.0927 21.0073L79.0893 20.9733C79.0398 20.4416 79.1152 19.896 79.2711 19.3733C79.3141 19.2292 79.3602 19.0978 79.4063 18.9816L79.4251 18.9351C79.4312 18.9203 79.4371 18.9064 79.4427 18.8932L79.4632 18.8468C79.4654 18.8421 79.4671 18.8384 79.4684 18.8357Z" fill="#253368"/>
<path d="M85.5439 20.7135C85.5714 20.7135 85.5938 20.7358 85.5938 20.7632C85.5938 20.788 85.5757 20.8085 85.552 20.8124L85.5439 20.813H79.628C79.6005 20.813 79.5781 20.7907 79.5781 20.7632C79.5781 20.7385 79.5962 20.718 79.6199 20.7141L79.628 20.7135H85.5439Z" fill="#253368"/>
<path fill-rule="evenodd" clip-rule="evenodd" d="M85.5681 25.2606L85.2812 26.6325C85.2812 26.6325 88.9784 25.6326 89.894 24.663C91.3801 23.0894 88.6274 22.4631 88.6274 22.4631L85.5681 25.2606Z" fill="#FFC999"/>
<path fill-rule="evenodd" clip-rule="evenodd" d="M84.8719 25.1143C84.8719 25.1143 85.4284 24.2872 85.6689 24.2621C86.0415 24.2233 85.9429 24.9813 85.9429 24.9813C85.9429 24.9813 86.2976 25.121 86.1677 25.523C86.3719 25.8438 86.2144 26.0514 86.2144 26.0514C86.2144 26.0514 86.4733 26.2732 86.2294 26.5488C85.9856 26.8242 85.3154 26.8996 85.3175 26.4237C85.0009 26.2262 85.1654 25.9296 85.1654 25.9296C85.1654 25.9296 84.9236 25.7292 85.0904 25.4446C84.8757 25.3764 84.8146 25.2011 84.8719 25.1143Z" fill="#FFC999"/>
<path d="M85.6826 24.8691C85.696 24.857 85.7167 24.8581 85.7288 24.8715C85.7392 24.883 85.7399 24.8998 85.7314 24.912L85.7264 24.9176L85.1132 25.4689C85.0998 25.481 85.0791 25.4799 85.067 25.4665C85.0566 25.455 85.0559 25.4382 85.0644 25.426L85.0694 25.4204L85.6826 24.8691Z" fill="#DD936F"/>
<path d="M85.6724 24.2296C85.8659 24.2473 85.9649 24.3931 85.9909 24.6171C86.0021 24.7136 85.9988 24.8162 85.9867 24.9148L85.9826 24.9454L85.9795 24.9654L86.0031 24.9821C86.0347 25.0054 86.0662 25.0326 86.0958 25.0637C86.2139 25.188 86.266 25.334 86.2136 25.4952L86.2051 25.5188L86.21 25.5259C86.3321 25.707 86.3444 25.8665 86.2871 25.9956L86.2799 26.0109C86.2724 26.0259 86.2649 26.0387 86.2579 26.0491L86.2503 26.0598L86.3175 26.368C86.3209 26.3835 86.3127 26.3987 86.2988 26.4049L86.2925 26.4069C86.2771 26.4103 86.2618 26.4021 86.2556 26.3882L86.2536 26.3819L86.183 26.0583C86.1807 26.0478 86.1837 26.0369 86.191 26.0291C86.1979 26.0218 86.2094 26.0058 86.2212 25.9819C86.2785 25.8665 86.2688 25.7195 86.1416 25.542C86.135 25.5328 86.1337 25.5207 86.1382 25.5102C86.2023 25.3603 86.1601 25.2262 86.0483 25.1087C86.0216 25.0806 85.9929 25.0558 85.9642 25.0347C85.9472 25.0221 85.9341 25.0136 85.9271 25.0095C85.915 25.0025 85.9087 24.9886 85.9114 24.975L85.9144 24.9587C85.9165 24.9456 85.9191 24.928 85.9217 24.9068C85.9333 24.8129 85.9364 24.7153 85.9259 24.6247C85.903 24.4277 85.8224 24.3089 85.6664 24.2946C85.6484 24.293 85.6352 24.2771 85.6369 24.2591C85.6385 24.2412 85.6544 24.2279 85.6724 24.2296Z" fill="#DD936F"/>
<path d="M85.784 25.5703C85.8001 25.5619 85.8198 25.5681 85.8282 25.5841C85.8355 25.5981 85.8317 25.6149 85.8199 25.6245L85.8143 25.6282L85.1807 25.9586C85.1647 25.9669 85.1449 25.9607 85.1365 25.9447C85.1292 25.9307 85.1331 25.9139 85.1449 25.9043L85.1504 25.9007L85.784 25.5703Z" fill="#DD936F"/>
<path d="M85.9299 26.1401C85.9466 26.1333 85.9657 26.1413 85.9725 26.158C85.9785 26.1726 85.9731 26.189 85.9604 26.1975L85.9546 26.2006L85.3302 26.454C85.3135 26.4608 85.2944 26.4527 85.2876 26.436C85.2816 26.4214 85.287 26.405 85.2997 26.3966L85.3056 26.3935L85.9299 26.1401Z" fill="#DD936F"/>
<path d="M88.5829 22.7737C88.601 22.7737 88.6156 22.7883 88.6156 22.8064C88.6156 22.8244 88.601 22.839 88.5829 22.839C88.3313 22.839 88.0674 22.9893 87.8091 23.2409C87.7179 23.3297 87.6339 23.425 87.5592 23.5202C87.5331 23.5536 87.51 23.5845 87.4902 23.6122L87.4663 23.6466C87.4563 23.6616 87.436 23.6658 87.4209 23.6558C87.4059 23.6459 87.4017 23.6256 87.4117 23.6106L87.43 23.584L87.4369 23.5743C87.4573 23.5458 87.4809 23.5141 87.5077 23.48C87.5841 23.3826 87.6699 23.2851 87.7634 23.1941C88.0328 22.9318 88.3103 22.7737 88.5829 22.7737Z" fill="#DD936F"/>
<path d="M88.3678 20.039C88.3893 20.0219 88.4207 20.0254 88.4378 20.0469C88.4531 20.066 88.452 20.0929 88.4364 20.1107L88.4299 20.1169L86.4079 21.724C86.3886 21.7393 86.3616 21.7381 86.3438 21.7224L86.3376 21.7158L86.1317 21.4542C86.1147 21.4326 86.1185 21.4013 86.1402 21.3843C86.1594 21.3692 86.1863 21.3705 86.204 21.3861L86.2102 21.3927L86.385 21.6149L88.3678 20.039Z" fill="#253368"/>
<path fill-rule="evenodd" clip-rule="evenodd" d="M80.6457 25.1143C80.6457 25.1143 80.0892 24.2872 79.8488 24.2621C79.4761 24.2233 79.5747 24.9813 79.5747 24.9813C79.5747 24.9813 79.22 25.121 79.3498 25.523C79.1457 25.8438 79.3033 26.0514 79.3033 26.0514C79.3033 26.0514 79.0443 26.2732 79.2882 26.5488C79.532 26.8242 80.2022 26.8996 80.2001 26.4237C80.5166 26.2262 80.3521 25.9296 80.3521 25.9296C80.3521 25.9296 80.5939 25.7292 80.4271 25.4446C80.6419 25.3764 80.7029 25.2011 80.6457 25.1143Z" fill="#FFC999"/>
<path d="M79.7897 24.8715C79.8 24.86 79.8167 24.8576 79.8297 24.8647L79.8359 24.8691L80.4489 25.4204C80.4623 25.4324 80.4634 25.4531 80.4513 25.4665C80.441 25.478 80.4243 25.4804 80.4113 25.4732L80.4051 25.4689L79.7921 24.9176C79.7786 24.9055 79.7776 24.8849 79.7897 24.8715Z" fill="#DD936F"/>
<path d="M79.847 24.2296C79.8649 24.2279 79.8809 24.2412 79.8825 24.2591C79.8842 24.2771 79.8709 24.293 79.8529 24.2946C79.697 24.3089 79.6163 24.4277 79.5935 24.6247C79.583 24.7153 79.5861 24.8129 79.5976 24.9068L79.6033 24.948C79.6051 24.9595 79.6067 24.9686 79.608 24.975C79.6107 24.9886 79.6044 25.0025 79.5923 25.0095C79.5853 25.0136 79.5722 25.0221 79.5551 25.0347C79.5264 25.0558 79.4977 25.0806 79.471 25.1087C79.3593 25.2262 79.317 25.3603 79.3811 25.5102C79.3856 25.5207 79.3842 25.5328 79.3776 25.542C79.2505 25.7195 79.2408 25.8665 79.2981 25.9819C79.31 26.0058 79.3215 26.0217 79.3283 26.0291C79.3342 26.0353 79.3373 26.0436 79.3372 26.052L79.3364 26.0583L79.2658 26.3819C79.262 26.3996 79.2445 26.4107 79.2269 26.4069C79.2114 26.4035 79.2009 26.3898 79.2011 26.3746L79.2019 26.368L79.2691 26.0598L79.2683 26.0589C79.2617 26.0499 79.2544 26.0387 79.2469 26.0252L79.2395 26.0109C79.1741 25.8792 79.1823 25.7142 79.3092 25.5259L79.314 25.5188L79.3127 25.5155C79.2517 25.353 79.2966 25.2054 79.4091 25.0794L79.4236 25.0637C79.4531 25.0327 79.4847 25.0054 79.5163 24.9821L79.5399 24.9654L79.5361 24.9407L79.5327 24.9148C79.5206 24.8162 79.5173 24.7136 79.5285 24.6171C79.5545 24.3931 79.6535 24.2473 79.847 24.2296Z" fill="#DD936F"/>
<path d="M79.6912 25.5841C79.6985 25.5701 79.7146 25.5636 79.7292 25.5678L79.7354 25.5703L80.369 25.9007C80.385 25.909 80.3912 25.9287 80.3829 25.9447C80.3756 25.9587 80.3595 25.9652 80.3449 25.961L80.3387 25.9586L79.7051 25.6282C79.6891 25.6198 79.6829 25.6001 79.6912 25.5841Z" fill="#DD936F"/>
<path d="M79.5454 26.158C79.5513 26.1434 79.5667 26.1354 79.5817 26.1382L79.588 26.1401L80.2125 26.3935C80.2292 26.4003 80.2373 26.4193 80.2305 26.436C80.2245 26.4506 80.2092 26.4586 80.1942 26.4558L80.1879 26.454L79.5634 26.2006C79.5466 26.1938 79.5386 26.1747 79.5454 26.158Z" fill="#DD936F"/>
</g>
<defs>
<clipPath id="clip0_274_65880">
<rect width="94" height="66" fill="white"/>
</clipPath>
</defs>
</svg>
